<svg width="60" height="60" viewBox="0 0 60 60" fill="none" xmlns="http://www.w3.org/2000/svg">
<path d="M16.25 50C12.4583 50 9.21875 48.6875 6.53125 46.0625C3.84375 43.4375 2.5 40.2292 2.5 36.4375C2.5 33.1875 3.47917 30.2917 5.4375 27.75C7.39583 25.2083 9.95833 23.5833 13.125 22.875C14.1667 19.0417 16.25 15.9375 19.375 13.5625C22.5 11.1875 26.0417 10 30 10C34.875 10 39.0104 11.6979 42.4063 15.0937C45.8021 18.4896 47.5 22.625 47.5 27.5C50.375 27.8333 52.7604 29.0729 54.6563 31.2187C56.5521 33.3646 57.5 35.875 57.5 38.75C57.5 41.875 56.4063 44.5312 54.2188 46.7187C52.0313 48.9062 49.375 50 46.25 50H16.25ZM16.25 45H46.25C48 45 49.4792 44.3958 50.6875 43.1875C51.8958 41.9792 52.5 40.5 52.5 38.75C52.5 37 51.8958 35.5208 50.6875 34.3125C49.4792 33.1042 48 32.5 46.25 32.5H42.5V27.5C42.5 24.0417 41.2813 21.0937 38.8438 18.6562C36.4063 16.2187 33.4583 15 30 15C26.5417 15 23.5938 16.2187 21.1563 18.6562C18.7188 21.0937 17.5 24.0417 17.5 27.5H16.25C13.8333 27.5 11.7708 28.3542 10.0625 30.0625C8.35417 31.7708 7.5 33.8333 7.5 36.25C7.5 38.6667 8.35417 40.7292 10.0625 42.4375C11.7708 44.1458 13.8333 45 16.25 45Z" fill="#1F1F1F"/>
</svg>
