<svg width="96" height="133" viewBox="0 0 96 133" fill="none" xmlns="http://www.w3.org/2000/svg">
<mask id="path-1-outside-1_443_124" maskUnits="userSpaceOnUse" x="0" y="0" width="96" height="133" fill="black">
<rect fill="white" width="96" height="133"/>
<path d="M47.8405 18.1667C56.9206 18.1667 65.4791 20.6369 73.5161 25.5775C81.5531 30.5169 88.2364 37.6211 93.5662 46.89C93.9334 47.5722 94.0675 48.1472 93.9685 48.615C93.8695 49.0816 93.6508 49.5127 93.3124 49.9083C92.974 50.3027 92.5654 50.4914 92.0865 50.4741C91.6069 50.4558 91.1695 50.1233 90.7744 49.4766C85.8964 40.7822 79.6572 34.1091 72.0567 29.4575C64.4572 24.8047 56.3851 22.4783 47.8405 22.4783C39.296 22.4783 31.2873 24.8225 23.8147 29.5108C16.3411 34.1991 10.1231 40.8544 5.16044 49.4766C4.76536 50.1589 4.35632 50.5539 3.93333 50.6617C3.51033 50.7694 3.10129 50.6617 2.70621 50.3383C2.28321 50.015 2.05056 49.5569 2.00826 48.9642C1.96596 48.3714 2.08609 47.7878 2.36866 47.2133C7.61383 37.98 14.2338 30.8305 22.2284 25.765C30.2231 20.6994 38.7605 18.1667 47.8405 18.1667ZM47.8405 33.58C59.3182 33.58 69.174 38.43 77.4081 48.13C85.6422 57.8299 89.7592 69.8111 89.7592 84.0733C89.7592 89.1744 88.2999 93.4764 85.3812 96.9791C82.4625 100.482 78.9305 102.233 74.7851 102.233C70.5839 102.233 66.9816 100.482 63.9783 96.9791C60.975 93.4764 59.4734 89.1744 59.4734 84.0733C59.4734 80.0855 58.3241 76.7536 56.0255 74.0775C53.727 71.4003 50.9986 70.0616 47.8405 70.0616C44.6824 70.0616 41.9401 71.4003 39.6136 74.0775C37.2872 76.7536 36.1239 80.0855 36.1239 84.0733C36.1239 95.0311 38.711 104.174 43.8851 111.503C49.06 118.832 55.5814 123.969 63.4492 126.915C64.0414 127.166 64.4221 127.526 64.5913 127.993C64.7605 128.46 64.7888 128.981 64.6763 129.555C64.5629 130.166 64.337 130.633 63.9986 130.957C63.6602 131.28 63.2233 131.334 62.6878 131.118C53.9461 128.316 46.7691 122.756 41.1567 114.439C35.5452 106.123 32.7395 96.0011 32.7395 84.0733C32.7395 78.9 34.22 74.5527 37.181 71.0316C40.142 67.5116 43.6951 65.7516 47.8405 65.7516C51.9859 65.7516 55.5391 67.5116 58.5001 71.0316C61.4611 74.5527 62.9416 78.9 62.9416 84.0733C62.9416 87.9889 64.126 91.2852 66.4947 93.9624C68.8635 96.6386 71.627 97.9766 74.7851 97.9766C77.8874 97.9766 80.5806 96.6386 82.8648 93.9624C85.149 91.2852 86.2911 87.9889 86.2911 84.0733C86.2911 71.0678 82.5124 60.1644 74.9551 51.3633C67.397 42.5611 58.3728 38.16 47.8824 38.16C37.3921 38.16 28.3682 42.5611 20.811 51.3633C13.2537 60.1644 9.47502 71.05 9.47502 84.0199C9.47502 86.6066 9.69329 89.9294 10.1298 93.9883C10.5672 98.0483 11.5333 102.701 13.0282 107.947C13.2253 108.629 13.2181 109.186 13.0066 109.617C12.7951 110.048 12.4918 110.389 12.0968 110.64C11.6459 110.892 11.1877 110.919 10.7224 110.721C10.2571 110.524 9.92594 110.102 9.72882 109.455C8.57235 105.324 7.69082 101.147 7.08424 96.9258C6.47851 92.7041 6.17564 88.42 6.17564 84.0733C6.17564 70.0266 10.2999 58.0994 18.5483 48.2916C26.7968 38.4838 36.5609 33.58 47.8405 33.58ZM47.8405 2C53.3116 2 58.6697 2.85359 63.9149 4.56079C69.16 6.26692 74.1937 8.68276 79.0159 11.8083C79.5514 12.1316 79.8543 12.5628 79.9245 13.1016C79.9956 13.6405 79.9321 14.1433 79.7342 14.61C79.537 15.0778 79.241 15.455 78.8459 15.7417C78.4516 16.0294 77.9724 16.0116 77.4081 15.6883C72.8118 12.7783 68.0247 10.5058 63.0469 8.87083C58.0699 7.23692 53.0011 6.41996 47.8405 6.41996C42.7079 6.41996 37.6881 7.18303 32.7814 8.70917C27.8746 10.2364 23.1793 12.5628 18.6955 15.6883C18.1879 16.0116 17.751 16.0747 17.3847 15.8775C17.0183 15.6791 16.7222 15.3289 16.4964 14.8266C16.2705 14.3955 16.1859 13.9191 16.2426 13.3975C16.2993 12.8769 16.5247 12.455 16.9189 12.1316C21.7132 8.8261 26.7329 6.31111 31.9781 4.58667C37.2233 2.86222 42.5108 2 47.8405 2ZM47.8405 49.6917C55.6516 49.6917 62.3773 53.0058 68.0175 59.6342C73.6578 66.2625 76.4779 74.4089 76.4779 84.0733C76.4779 84.7555 76.3299 85.2853 76.0338 85.6625C75.7377 86.0397 75.3214 86.2283 74.7851 86.2283C74.2775 86.2283 73.8545 86.0397 73.5161 85.6625C73.1777 85.2853 73.0085 84.7555 73.0085 84.0733C73.0085 75.5589 70.52 68.4186 65.543 62.6525C60.566 56.8864 54.6652 54.0033 47.8405 54.0033C41.0159 54.0033 35.1574 56.8864 30.265 62.6525C25.3726 68.4186 22.9264 75.5589 22.9264 84.0733C22.9264 93.0911 24.1531 100.77 26.6064 107.111C29.0598 113.451 32.6832 119.801 37.4767 126.16C37.8717 126.663 38.0553 127.184 38.0274 127.723C37.9986 128.262 37.815 128.747 37.4767 129.178C37.1949 129.537 36.8142 129.771 36.3346 129.878C35.8557 129.986 35.4188 129.753 35.0237 129.178C30.089 122.639 26.2609 115.84 23.5393 108.781C20.8177 101.721 19.4569 93.4855 19.4569 84.0733C19.4569 74.4089 22.2348 66.2625 27.7904 59.6342C33.3461 53.0058 40.0294 49.6917 47.8405 49.6917ZM47.7136 81.81C48.2491 81.81 48.665 82.0255 48.961 82.4566C49.2571 82.8877 49.4052 83.4266 49.4052 84.0733C49.4052 92.5877 51.8446 99.5933 56.7235 105.09C61.6024 110.587 67.2566 113.335 73.6861 113.335C74.3063 113.335 75.0816 113.281 76.0122 113.173C76.9428 113.066 77.944 112.904 79.0159 112.688C79.5514 112.545 79.9956 112.644 80.3484 112.984C80.7003 113.326 80.9329 113.766 81.0463 114.305C81.1588 114.879 81.1021 115.382 80.8763 115.813C80.6512 116.244 80.2849 116.532 79.7773 116.677C78.2545 117.215 76.9221 117.512 75.78 117.566C74.6379 117.62 73.9399 117.647 73.6861 117.647C66.2126 117.647 59.7335 114.467 54.249 108.108C48.7644 101.749 46.0221 93.7377 46.0221 84.0733C46.0221 83.4266 46.1701 82.8877 46.4662 82.4566C46.7623 82.0255 47.1781 81.81 47.7136 81.81Z"/>
</mask>
<path d="M47.8405 18.1667C56.9206 18.1667 65.4791 20.6369 73.5161 25.5775C81.5531 30.5169 88.2364 37.6211 93.5662 46.89C93.9334 47.5722 94.0675 48.1472 93.9685 48.615C93.8695 49.0816 93.6508 49.5127 93.3124 49.9083C92.974 50.3027 92.5654 50.4914 92.0865 50.4741C91.6069 50.4558 91.1695 50.1233 90.7744 49.4766C85.8964 40.7822 79.6572 34.1091 72.0567 29.4575C64.4572 24.8047 56.3851 22.4783 47.8405 22.4783C39.296 22.4783 31.2873 24.8225 23.8147 29.5108C16.3411 34.1991 10.1231 40.8544 5.16044 49.4766C4.76536 50.1589 4.35632 50.5539 3.93333 50.6617C3.51033 50.7694 3.10129 50.6617 2.70621 50.3383C2.28321 50.015 2.05056 49.5569 2.00826 48.9642C1.96596 48.3714 2.08609 47.7878 2.36866 47.2133C7.61383 37.98 14.2338 30.8305 22.2284 25.765C30.2231 20.6994 38.7605 18.1667 47.8405 18.1667ZM47.8405 33.58C59.3182 33.58 69.174 38.43 77.4081 48.13C85.6422 57.8299 89.7592 69.8111 89.7592 84.0733C89.7592 89.1744 88.2999 93.4764 85.3812 96.9791C82.4625 100.482 78.9305 102.233 74.7851 102.233C70.5839 102.233 66.9816 100.482 63.9783 96.9791C60.975 93.4764 59.4734 89.1744 59.4734 84.0733C59.4734 80.0855 58.3241 76.7536 56.0255 74.0775C53.727 71.4003 50.9986 70.0616 47.8405 70.0616C44.6824 70.0616 41.9401 71.4003 39.6136 74.0775C37.2872 76.7536 36.1239 80.0855 36.1239 84.0733C36.1239 95.0311 38.711 104.174 43.8851 111.503C49.06 118.832 55.5814 123.969 63.4492 126.915C64.0414 127.166 64.4221 127.526 64.5913 127.993C64.7605 128.46 64.7888 128.981 64.6763 129.555C64.5629 130.166 64.337 130.633 63.9986 130.957C63.6602 131.28 63.2233 131.334 62.6878 131.118C53.9461 128.316 46.7691 122.756 41.1567 114.439C35.5452 106.123 32.7395 96.0011 32.7395 84.0733C32.7395 78.9 34.22 74.5527 37.181 71.0316C40.142 67.5116 43.6951 65.7516 47.8405 65.7516C51.9859 65.7516 55.5391 67.5116 58.5001 71.0316C61.4611 74.5527 62.9416 78.9 62.9416 84.0733C62.9416 87.9889 64.126 91.2852 66.4947 93.9624C68.8635 96.6386 71.627 97.9766 74.7851 97.9766C77.8874 97.9766 80.5806 96.6386 82.8648 93.9624C85.149 91.2852 86.2911 87.9889 86.2911 84.0733C86.2911 71.0678 82.5124 60.1644 74.9551 51.3633C67.397 42.5611 58.3728 38.16 47.8824 38.16C37.3921 38.16 28.3682 42.5611 20.811 51.3633C13.2537 60.1644 9.47502 71.05 9.47502 84.0199C9.47502 86.6066 9.69329 89.9294 10.1298 93.9883C10.5672 98.0483 11.5333 102.701 13.0282 107.947C13.2253 108.629 13.2181 109.186 13.0066 109.617C12.7951 110.048 12.4918 110.389 12.0968 110.64C11.6459 110.892 11.1877 110.919 10.7224 110.721C10.2571 110.524 9.92594 110.102 9.72882 109.455C8.57235 105.324 7.69082 101.147 7.08424 96.9258C6.47851 92.7041 6.17564 88.42 6.17564 84.0733C6.17564 70.0266 10.2999 58.0994 18.5483 48.2916C26.7968 38.4838 36.5609 33.58 47.8405 33.58ZM47.8405 2C53.3116 2 58.6697 2.85359 63.9149 4.56079C69.16 6.26692 74.1937 8.68276 79.0159 11.8083C79.5514 12.1316 79.8543 12.5628 79.9245 13.1016C79.9956 13.6405 79.9321 14.1433 79.7342 14.61C79.537 15.0778 79.241 15.455 78.8459 15.7417C78.4516 16.0294 77.9724 16.0116 77.4081 15.6883C72.8118 12.7783 68.0247 10.5058 63.0469 8.87083C58.0699 7.23692 53.0011 6.41996 47.8405 6.41996C42.7079 6.41996 37.6881 7.18303 32.7814 8.70917C27.8746 10.2364 23.1793 12.5628 18.6955 15.6883C18.1879 16.0116 17.751 16.0747 17.3847 15.8775C17.0183 15.6791 16.7222 15.3289 16.4964 14.8266C16.2705 14.3955 16.1859 13.9191 16.2426 13.3975C16.2993 12.8769 16.5247 12.455 16.9189 12.1316C21.7132 8.8261 26.7329 6.31111 31.9781 4.58667C37.2233 2.86222 42.5108 2 47.8405 2ZM47.8405 49.6917C55.6516 49.6917 62.3773 53.0058 68.0175 59.6342C73.6578 66.2625 76.4779 74.4089 76.4779 84.0733C76.4779 84.7555 76.3299 85.2853 76.0338 85.6625C75.7377 86.0397 75.3214 86.2283 74.7851 86.2283C74.2775 86.2283 73.8545 86.0397 73.5161 85.6625C73.1777 85.2853 73.0085 84.7555 73.0085 84.0733C73.0085 75.5589 70.52 68.4186 65.543 62.6525C60.566 56.8864 54.6652 54.0033 47.8405 54.0033C41.0159 54.0033 35.1574 56.8864 30.265 62.6525C25.3726 68.4186 22.9264 75.5589 22.9264 84.0733C22.9264 93.0911 24.1531 100.77 26.6064 107.111C29.0598 113.451 32.6832 119.801 37.4767 126.16C37.8717 126.663 38.0553 127.184 38.0274 127.723C37.9986 128.262 37.815 128.747 37.4767 129.178C37.1949 129.537 36.8142 129.771 36.3346 129.878C35.8557 129.986 35.4188 129.753 35.0237 129.178C30.089 122.639 26.2609 115.84 23.5393 108.781C20.8177 101.721 19.4569 93.4855 19.4569 84.0733C19.4569 74.4089 22.2348 66.2625 27.7904 59.6342C33.3461 53.0058 40.0294 49.6917 47.8405 49.6917ZM47.7136 81.81C48.2491 81.81 48.665 82.0255 48.961 82.4566C49.2571 82.8877 49.4052 83.4266 49.4052 84.0733C49.4052 92.5877 51.8446 99.5933 56.7235 105.09C61.6024 110.587 67.2566 113.335 73.6861 113.335C74.3063 113.335 75.0816 113.281 76.0122 113.173C76.9428 113.066 77.944 112.904 79.0159 112.688C79.5514 112.545 79.9956 112.644 80.3484 112.984C80.7003 113.326 80.9329 113.766 81.0463 114.305C81.1588 114.879 81.1021 115.382 80.8763 115.813C80.6512 116.244 80.2849 116.532 79.7773 116.677C78.2545 117.215 76.9221 117.512 75.78 117.566C74.6379 117.62 73.9399 117.647 73.6861 117.647C66.2126 117.647 59.7335 114.467 54.249 108.108C48.7644 101.749 46.0221 93.7377 46.0221 84.0733C46.0221 83.4266 46.1701 82.8877 46.4662 82.4566C46.7623 82.0255 47.1781 81.81 47.7136 81.81Z" fill="#1F1F1F"/>
<path d="M47.8405 18.1667C56.9206 18.1667 65.4791 20.6369 73.5161 25.5775C81.5531 30.5169 88.2364 37.6211 93.5662 46.89C93.9334 47.5722 94.0675 48.1472 93.9685 48.615C93.8695 49.0816 93.6508 49.5127 93.3124 49.9083C92.974 50.3027 92.5654 50.4914 92.0865 50.4741C91.6069 50.4558 91.1695 50.1233 90.7744 49.4766C85.8964 40.7822 79.6572 34.1091 72.0567 29.4575C64.4572 24.8047 56.3851 22.4783 47.8405 22.4783C39.296 22.4783 31.2873 24.8225 23.8147 29.5108C16.3411 34.1991 10.1231 40.8544 5.16044 49.4766C4.76536 50.1589 4.35632 50.5539 3.93333 50.6617C3.51033 50.7694 3.10129 50.6617 2.70621 50.3383C2.28321 50.015 2.05056 49.5569 2.00826 48.9642C1.96596 48.3714 2.08609 47.7878 2.36866 47.2133C7.61383 37.98 14.2338 30.8305 22.2284 25.765C30.2231 20.6994 38.7605 18.1667 47.8405 18.1667ZM47.8405 33.58C59.3182 33.58 69.174 38.43 77.4081 48.13C85.6422 57.8299 89.7592 69.8111 89.7592 84.0733C89.7592 89.1744 88.2999 93.4764 85.3812 96.9791C82.4625 100.482 78.9305 102.233 74.7851 102.233C70.5839 102.233 66.9816 100.482 63.9783 96.9791C60.975 93.4764 59.4734 89.1744 59.4734 84.0733C59.4734 80.0855 58.3241 76.7536 56.0255 74.0775C53.727 71.4003 50.9986 70.0616 47.8405 70.0616C44.6824 70.0616 41.9401 71.4003 39.6136 74.0775C37.2872 76.7536 36.1239 80.0855 36.1239 84.0733C36.1239 95.0311 38.711 104.174 43.8851 111.503C49.06 118.832 55.5814 123.969 63.4492 126.915C64.0414 127.166 64.4221 127.526 64.5913 127.993C64.7605 128.46 64.7888 128.981 64.6763 129.555C64.5629 130.166 64.337 130.633 63.9986 130.957C63.6602 131.28 63.2233 131.334 62.6878 131.118C53.9461 128.316 46.7691 122.756 41.1567 114.439C35.5452 106.123 32.7395 96.0011 32.7395 84.0733C32.7395 78.9 34.22 74.5527 37.181 71.0316C40.142 67.5116 43.6951 65.7516 47.8405 65.7516C51.9859 65.7516 55.5391 67.5116 58.5001 71.0316C61.4611 74.5527 62.9416 78.9 62.9416 84.0733C62.9416 87.9889 64.126 91.2852 66.4947 93.9624C68.8635 96.6386 71.627 97.9766 74.7851 97.9766C77.8874 97.9766 80.5806 96.6386 82.8648 93.9624C85.149 91.2852 86.2911 87.9889 86.2911 84.0733C86.2911 71.0678 82.5124 60.1644 74.9551 51.3633C67.397 42.5611 58.3728 38.16 47.8824 38.16C37.3921 38.16 28.3682 42.5611 20.811 51.3633C13.2537 60.1644 9.47502 71.05 9.47502 84.0199C9.47502 86.6066 9.69329 89.9294 10.1298 93.9883C10.5672 98.0483 11.5333 102.701 13.0282 107.947C13.2253 108.629 13.2181 109.186 13.0066 109.617C12.7951 110.048 12.4918 110.389 12.0968 110.64C11.6459 110.892 11.1877 110.919 10.7224 110.721C10.2571 110.524 9.92594 110.102 9.72882 109.455C8.57235 105.324 7.69082 101.147 7.08424 96.9258C6.47851 92.7041 6.17564 88.42 6.17564 84.0733C6.17564 70.0266 10.2999 58.0994 18.5483 48.2916C26.7968 38.4838 36.5609 33.58 47.8405 33.58ZM47.8405 2C53.3116 2 58.6697 2.85359 63.9149 4.56079C69.16 6.26692 74.1937 8.68276 79.0159 11.8083C79.5514 12.1316 79.8543 12.5628 79.9245 13.1016C79.9956 13.6405 79.9321 14.1433 79.7342 14.61C79.537 15.0778 79.241 15.455 78.8459 15.7417C78.4516 16.0294 77.9724 16.0116 77.4081 15.6883C72.8118 12.7783 68.0247 10.5058 63.0469 8.87083C58.0699 7.23692 53.0011 6.41996 47.8405 6.41996C42.7079 6.41996 37.6881 7.18303 32.7814 8.70917C27.8746 10.2364 23.1793 12.5628 18.6955 15.6883C18.1879 16.0116 17.751 16.0747 17.3847 15.8775C17.0183 15.6791 16.7222 15.3289 16.4964 14.8266C16.2705 14.3955 16.1859 13.9191 16.2426 13.3975C16.2993 12.8769 16.5247 12.455 16.9189 12.1316C21.7132 8.8261 26.7329 6.31111 31.9781 4.58667C37.2233 2.86222 42.5108 2 47.8405 2ZM47.8405 49.6917C55.6516 49.6917 62.3773 53.0058 68.0175 59.6342C73.6578 66.2625 76.4779 74.4089 76.4779 84.0733C76.4779 84.7555 76.3299 85.2853 76.0338 85.6625C75.7377 86.0397 75.3214 86.2283 74.7851 86.2283C74.2775 86.2283 73.8545 86.0397 73.5161 85.6625C73.1777 85.2853 73.0085 84.7555 73.0085 84.0733C73.0085 75.5589 70.52 68.4186 65.543 62.6525C60.566 56.8864 54.6652 54.0033 47.8405 54.0033C41.0159 54.0033 35.1574 56.8864 30.265 62.6525C25.3726 68.4186 22.9264 75.5589 22.9264 84.0733C22.9264 93.0911 24.1531 100.77 26.6064 107.111C29.0598 113.451 32.6832 119.801 37.4767 126.16C37.8717 126.663 38.0553 127.184 38.0274 127.723C37.9986 128.262 37.815 128.747 37.4767 129.178C37.1949 129.537 36.8142 129.771 36.3346 129.878C35.8557 129.986 35.4188 129.753 35.0237 129.178C30.089 122.639 26.2609 115.84 23.5393 108.781C20.8177 101.721 19.4569 93.4855 19.4569 84.0733C19.4569 74.4089 22.2348 66.2625 27.7904 59.6342C33.3461 53.0058 40.0294 49.6917 47.8405 49.6917ZM47.7136 81.81C48.2491 81.81 48.665 82.0255 48.961 82.4566C49.2571 82.8877 49.4052 83.4266 49.4052 84.0733C49.4052 92.5877 51.8446 99.5933 56.7235 105.09C61.6024 110.587 67.2566 113.335 73.6861 113.335C74.3063 113.335 75.0816 113.281 76.0122 113.173C76.9428 113.066 77.944 112.904 79.0159 112.688C79.5514 112.545 79.9956 112.644 80.3484 112.984C80.7003 113.326 80.9329 113.766 81.0463 114.305C81.1588 114.879 81.1021 115.382 80.8763 115.813C80.6512 116.244 80.2849 116.532 79.7773 116.677C78.2545 117.215 76.9221 117.512 75.78 117.566C74.6379 117.62 73.9399 117.647 73.6861 117.647C66.2126 117.647 59.7335 114.467 54.249 108.108C48.7644 101.749 46.0221 93.7377 46.0221 84.0733C46.0221 83.4266 46.1701 82.8877 46.4662 82.4566C46.7623 82.0255 47.1781 81.81 47.7136 81.81Z" stroke="black" stroke-width="3" mask="url(#path-1-outside-1_443_124)"/>
</svg>
