<svg width="62" height="66" viewBox="0 0 62 66" fill="none" xmlns="http://www.w3.org/2000/svg">
<path d="M10.333 24.75V19.25H15.4997V24.75H10.333ZM10.333 46.75V30.25H15.4997V46.75H10.333ZM28.4163 46.75H23.2497C21.8288 46.75 20.6125 46.2115 19.6007 45.1344C18.5889 44.0573 18.083 42.7625 18.083 41.25V24.75C18.083 23.2375 18.5889 21.9427 19.6007 20.8656C20.6125 19.7885 21.8288 19.25 23.2497 19.25H28.4163C29.8372 19.25 31.0535 19.7885 32.0653 20.8656C33.0771 21.9427 33.583 23.2375 33.583 24.75V41.25C33.583 42.7625 33.0771 44.0573 32.0653 45.1344C31.0535 46.2115 29.8372 46.75 28.4163 46.75ZM23.2497 41.25H28.4163V24.75H23.2497V41.25ZM36.1663 46.75V41.25H46.4997V35.75H41.333C39.9122 35.75 38.6959 35.2115 37.684 34.1344C36.6722 33.0573 36.1663 31.7625 36.1663 30.25V24.75C36.1663 23.2375 36.6722 21.9427 37.684 20.8656C38.6959 19.7885 39.9122 19.25 41.333 19.25H51.6663V24.75H41.333V30.25H46.4997C47.9205 30.25 49.1368 30.7885 50.1486 31.8656C51.1604 32.9427 51.6663 34.2375 51.6663 35.75V41.25C51.6663 42.7625 51.1604 44.0573 50.1486 45.1344C49.1368 46.2115 47.9205 46.75 46.4997 46.75H36.1663Z" fill="#1F1F1F"/>
</svg>
