<svg width="408" height="122" viewBox="0 0 408 122" fill="none" xmlns="http://www.w3.org/2000/svg">
<g clip-path="url(#clip0_509_3476)">
<path d="M114.727 76.4617V43.975H123.323V56.07H133.02V43.975H141.616V76.4617H133.02V63.5671H123.323V76.4617H114.727ZM155.692 77.0614C152.96 77.0614 150.977 76.1452 149.745 74.3126C148.512 72.4466 147.895 69.9644 147.895 66.8655V51.4722H156.492V65.7662C156.492 67.3657 156.692 68.4315 157.092 68.9646C157.525 69.4978 158.158 69.7644 158.991 69.7644C159.79 69.7644 160.457 69.5978 160.99 69.2647C161.523 68.9316 162.056 68.365 162.59 67.5652V51.4722H171.186V76.4617H164.189L163.589 73.1633H163.389C162.39 74.3627 161.273 75.3124 160.04 76.0121C158.841 76.7118 157.392 77.0614 155.692 77.0614ZM186.086 86.7576C184.187 86.7576 182.437 86.5411 180.838 86.108C179.239 85.7079 177.956 85.0582 176.99 84.1584C176.057 83.2592 175.59 82.0593 175.59 80.5599C175.59 78.5943 176.756 76.9949 179.089 75.762V75.562C178.45 75.0897 177.893 74.5155 177.439 73.863C177.006 73.1633 176.79 72.2966 176.79 71.2638C176.79 70.3975 177.04 69.5478 177.539 68.7151C178.073 67.8818 178.756 67.1656 179.589 66.566V66.3659C178.689 65.7662 177.89 64.9165 177.19 63.8167C176.523 62.6839 176.19 61.401 176.19 59.9686C176.19 57.9025 176.69 56.2035 177.69 54.8707C178.722 53.5043 180.055 52.505 181.688 51.8718C183.321 51.2056 185.053 50.872 186.886 50.872C188.352 50.872 189.684 51.0721 190.884 51.4722H200.18V57.6695H196.582C196.681 57.9695 196.765 58.3526 196.831 58.8188C196.931 59.2854 196.981 59.7685 196.981 60.2682C196.981 62.2342 196.532 63.8337 195.632 65.0665C194.732 66.2659 193.516 67.1491 191.984 67.7153C190.451 68.2819 188.752 68.565 186.886 68.565C186.053 68.565 185.12 68.4485 184.087 68.2149C183.687 68.5815 183.487 69.0647 183.487 69.6643C183.487 70.1975 183.754 70.5806 184.287 70.8141C184.853 71.0472 185.753 71.1638 186.986 71.1638H190.734C193.866 71.1638 196.282 71.6804 197.981 72.7132C199.714 73.713 200.58 75.362 200.58 77.6611C200.58 79.4606 199.98 81.043 198.781 82.4094C197.615 83.7753 195.949 84.8416 193.783 85.6078C191.617 86.3745 189.051 86.7576 186.086 86.7576ZM186.886 63.4671C187.685 63.4671 188.335 63.184 188.835 62.6173C189.335 62.0512 189.584 61.1679 189.584 59.9686C189.584 58.8023 189.335 57.9525 188.835 57.4194C188.335 56.8532 187.685 56.5701 186.886 56.5701C186.086 56.5701 185.436 56.8532 184.937 57.4194C184.436 57.9525 184.187 58.8023 184.187 59.9686C184.187 61.1679 184.436 62.0512 184.937 62.6173C185.436 63.184 186.086 63.4671 186.886 63.4671ZM187.485 81.4597C188.885 81.4597 190.051 81.2431 190.984 80.81C191.917 80.4099 192.383 79.8602 192.383 79.1605C192.383 78.4943 192.084 78.0777 191.484 77.9112C190.917 77.7446 190.101 77.6611 189.035 77.6611H187.086C186.086 77.6611 185.32 77.6281 184.787 77.5611C184.287 77.528 183.854 77.4615 183.487 77.3615C182.887 77.9612 182.587 78.5608 182.587 79.1605C182.587 79.9602 183.037 80.5434 183.937 80.91C184.87 81.2766 186.053 81.4597 187.485 81.4597ZM213.37 86.7576C211.47 86.7576 209.721 86.5411 208.122 86.108C206.522 85.7079 205.24 85.0582 204.273 84.1584C203.341 83.2592 202.874 82.0593 202.874 80.5599C202.874 78.5943 204.04 76.9949 206.372 75.762V75.562C205.734 75.0897 205.176 74.5155 204.723 73.863C204.29 73.1633 204.073 72.2966 204.073 71.2638C204.073 70.3975 204.323 69.5478 204.823 68.7151C205.356 67.8818 206.039 67.1656 206.873 66.566V66.3659C205.973 65.7662 205.173 64.9165 204.473 63.8167C203.807 62.6839 203.474 61.401 203.474 59.9686C203.474 57.9025 203.974 56.2035 204.973 54.8707C206.006 53.5043 207.339 52.505 208.972 51.8718C210.604 51.2056 212.337 50.872 214.169 50.872C215.635 50.872 216.968 51.0721 218.168 51.4722H227.464V57.6695H223.865C223.965 57.9695 224.048 58.3526 224.115 58.8188C224.215 59.2854 224.265 59.7685 224.265 60.2682C224.265 62.2342 223.815 63.8337 222.916 65.0665C222.016 66.2659 220.8 67.1491 219.267 67.7153C217.735 68.2819 216.035 68.565 214.169 68.565C213.336 68.565 212.404 68.4485 211.37 68.2149C210.971 68.5815 210.771 69.0647 210.771 69.6643C210.771 70.1975 211.037 70.5806 211.57 70.8141C212.137 71.0472 213.036 71.1638 214.269 71.1638H218.018C221.15 71.1638 223.565 71.6804 225.265 72.7132C226.997 73.713 227.863 75.362 227.863 77.6611C227.863 79.4606 227.264 81.043 226.064 82.4094C224.898 83.7753 223.232 84.8416 221.067 85.6078C218.901 86.3745 216.335 86.7576 213.37 86.7576ZM214.169 63.4671C214.969 63.4671 215.619 63.184 216.119 62.6173C216.618 62.0512 216.868 61.1679 216.868 59.9686C216.868 58.8023 216.618 57.9525 216.119 57.4194C215.619 56.8532 214.969 56.5701 214.169 56.5701C213.37 56.5701 212.72 56.8532 212.22 57.4194C211.72 57.9525 211.47 58.8023 211.47 59.9686C211.47 61.1679 211.72 62.0512 212.22 62.6173C212.72 63.184 213.37 63.4671 214.169 63.4671ZM214.769 81.4597C216.169 81.4597 217.334 81.2431 218.268 80.81C219.201 80.4099 219.667 79.8602 219.667 79.1605C219.667 78.4943 219.367 78.0777 218.767 77.9112C218.201 77.7446 217.385 77.6611 216.318 77.6611H214.369C213.37 77.6611 212.603 77.6281 212.07 77.5611C211.57 77.528 211.137 77.4615 210.771 77.3615C210.171 77.9612 209.871 78.5608 209.871 79.1605C209.871 79.9602 210.321 80.5434 211.221 80.91C212.154 81.2766 213.336 81.4597 214.769 81.4597ZM231.557 76.4617V51.4722H240.154V76.4617H231.557ZM235.855 48.3733C234.456 48.3733 233.323 47.9902 232.457 47.2239C231.59 46.4242 231.157 45.3744 231.157 44.0751C231.157 42.7757 231.59 41.7424 232.457 40.9762C233.323 40.1765 234.456 39.7769 235.855 39.7769C237.255 39.7769 238.388 40.1765 239.254 40.9762C240.12 41.7424 240.553 42.7757 240.553 44.0751C240.553 45.3744 240.12 46.4242 239.254 47.2239C238.388 47.9902 237.255 48.3733 235.855 48.3733ZM245.956 76.4617V51.4722H252.953L253.552 54.4706H253.752C254.752 53.5043 255.885 52.6715 257.151 51.9718C258.45 51.2386 259.95 50.872 261.649 50.872C264.414 50.872 266.397 51.8053 267.597 53.6713C268.83 55.5038 269.446 57.9695 269.446 61.0679V76.4617H260.849V62.1677C260.849 60.5683 260.649 59.502 260.25 58.9688C259.85 58.4357 259.217 58.1691 258.35 58.1691C257.551 58.1691 256.884 58.3357 256.351 58.6692C255.818 59.0023 255.218 59.4689 254.552 60.0686V76.4617H245.956ZM284.141 86.7576C282.242 86.7576 280.493 86.5411 278.893 86.108C277.294 85.7079 276.011 85.0582 275.045 84.1584C274.112 83.2592 273.646 82.0593 273.646 80.5599C273.646 78.5943 274.812 76.9949 277.144 75.762V75.562C276.505 75.0897 275.948 74.5155 275.495 73.863C275.062 73.1633 274.845 72.2966 274.845 71.2638C274.845 70.3975 275.095 69.5478 275.595 68.7151C276.128 67.8818 276.811 67.1656 277.644 66.566V66.3659C276.744 65.7662 275.944 64.9165 275.245 63.8167C274.579 62.6839 274.245 61.401 274.245 59.9686C274.245 57.9025 274.745 56.2035 275.745 54.8707C276.778 53.5043 278.111 52.505 279.743 51.8718C281.376 51.2056 283.108 50.872 284.941 50.872C286.407 50.872 287.74 51.0721 288.939 51.4722H298.235V57.6695H294.637C294.737 57.9695 294.82 58.3526 294.887 58.8188C294.987 59.2854 295.037 59.7685 295.037 60.2682C295.037 62.2342 294.587 63.8337 293.687 65.0665C292.788 66.2659 291.571 67.1491 290.039 67.7153C288.506 68.2819 286.807 68.565 284.941 68.565C284.108 68.565 283.175 68.4485 282.142 68.2149C281.742 68.5815 281.543 69.0647 281.543 69.6643C281.543 70.1975 281.809 70.5806 282.342 70.8141C282.908 71.0472 283.808 71.1638 285.041 71.1638H288.79C291.921 71.1638 294.337 71.6804 296.037 72.7132C297.769 73.713 298.635 75.362 298.635 77.6611C298.635 79.4606 298.036 81.043 296.836 82.4094C295.67 83.7753 294.004 84.8416 291.838 85.6078C289.672 86.3745 287.107 86.7576 284.141 86.7576ZM284.941 63.4671C285.741 63.4671 286.39 63.184 286.89 62.6173C287.39 62.0512 287.64 61.1679 287.64 59.9686C287.64 58.8023 287.39 57.9525 286.89 57.4194C286.39 56.8532 285.741 56.5701 284.941 56.5701C284.141 56.5701 283.492 56.8532 282.992 57.4194C282.492 57.9525 282.242 58.8023 282.242 59.9686C282.242 61.1679 282.492 62.0512 282.992 62.6173C283.492 63.184 284.141 63.4671 284.941 63.4671ZM285.541 81.4597C286.94 81.4597 288.106 81.2431 289.039 80.81C289.972 80.4099 290.439 79.8602 290.439 79.1605C290.439 78.4943 290.139 78.0777 289.539 77.9112C288.973 77.7446 288.156 77.6611 287.09 77.6611H285.141C284.141 77.6611 283.375 77.6281 282.842 77.5611C282.342 77.528 281.909 77.4615 281.543 77.3615C280.942 77.9612 280.643 78.5608 280.643 79.1605C280.643 79.9602 281.092 80.5434 281.992 80.91C282.925 81.2766 284.108 81.4597 285.541 81.4597ZM313.034 76.4617V43.975H334.225V51.1721H321.631V57.3694H332.426V64.5664H321.631V76.4617H313.034ZM343.626 77.0614C342.06 77.0614 340.711 76.7118 339.578 76.0121C338.496 75.2987 337.618 74.3174 337.029 73.1633C336.429 71.997 336.129 70.7306 336.129 69.3647C336.129 66.7655 337.196 64.7334 339.328 63.267C341.46 61.7676 344.926 60.7683 349.724 60.2682C349.524 58.5357 348.357 57.6695 346.225 57.6695C345.325 57.6695 344.376 57.8525 343.376 58.2191C342.377 58.5522 341.227 59.0688 339.927 59.7685L336.929 54.171C338.695 53.1047 340.478 52.2884 342.277 51.7218C344.106 51.1561 346.01 50.8697 347.924 50.872C351.19 50.872 353.739 51.8053 355.571 53.6713C357.404 55.5038 358.32 58.4692 358.32 62.5673V76.4617H351.323L350.723 74.0626H350.523C349.524 74.9623 348.457 75.6955 347.325 76.2617C346.225 76.7948 344.992 77.0614 343.626 77.0614ZM346.625 70.4641C347.325 70.4641 347.908 70.314 348.374 70.0144C348.84 69.6813 349.291 69.2647 349.724 68.7651V65.3661C347.691 65.6662 346.275 66.1158 345.475 66.7155C344.709 67.3157 344.326 67.9653 344.326 68.665C344.326 69.8644 345.092 70.4641 346.625 70.4641ZM375.22 77.0614C372.854 77.0614 370.722 76.5448 368.823 75.512C366.923 74.4792 365.407 72.9963 364.274 71.0637C363.175 69.0982 362.625 66.7325 362.625 63.9667C362.625 61.2014 363.242 58.8523 364.474 56.9197C365.74 54.9537 367.39 53.4547 369.422 52.4215C371.454 51.3887 373.654 50.872 376.019 50.872C377.519 50.872 378.868 51.1056 380.068 51.5717C381.301 52.0384 382.383 52.6715 383.316 53.4713L379.318 58.9688C378.785 58.5027 378.302 58.1861 377.869 58.0195C377.438 57.853 376.981 57.7685 376.519 57.7695C374.92 57.7695 373.671 58.3357 372.771 59.4689C371.871 60.5683 371.421 62.0677 371.421 63.9667C371.421 65.8663 371.888 67.3822 372.821 68.515C373.754 69.6143 374.886 70.1645 376.219 70.1645C376.919 70.1645 377.602 70.0144 378.268 69.7144C378.952 69.3912 379.604 69.0062 380.218 68.565L383.516 74.1626C382.283 75.2624 380.918 76.0286 379.418 76.4617C377.919 76.8614 376.519 77.0614 375.22 77.0614ZM397.581 77.0614C395.148 77.0614 392.949 76.5448 390.984 75.512C389.051 74.4792 387.518 72.9963 386.385 71.0637C385.253 69.0982 384.686 66.7325 384.686 63.9667C384.686 61.268 385.253 58.9523 386.385 57.0198C387.552 55.0537 389.051 53.5378 390.884 52.4715C392.716 51.4052 394.649 50.872 396.681 50.872C399.147 50.872 401.18 51.4222 402.779 52.5215C404.411 53.5878 405.611 55.0372 406.377 56.8697C407.177 58.7022 407.577 60.7348 407.577 62.9674C407.577 63.7002 407.527 64.4168 407.427 65.1165C407.36 65.7827 407.293 66.2659 407.227 66.566H392.983C393.382 68.0654 394.099 69.1147 395.132 69.7144C396.165 70.281 397.381 70.5641 398.78 70.5641C400.38 70.5641 402.079 70.0644 403.878 69.0647L406.677 74.1626C405.344 75.0954 403.845 75.8121 402.179 76.3117C400.513 76.8114 398.98 77.0614 397.581 77.0614ZM392.883 60.9679H400.28C400.28 60.0016 400.03 59.1689 399.53 58.4692C399.063 57.736 398.181 57.3694 396.881 57.3694C395.948 57.3694 395.115 57.6529 394.382 58.2191C393.649 58.7858 393.149 59.702 392.883 60.9679Z" fill="#000B1B"/>
<path d="M96.2492 81.2228C95.9958 80.2665 95.5854 79.3592 95.0348 78.5373C95.1527 78.1042 95.2424 77.6644 95.3027 77.2205C95.6934 74.4009 94.7163 71.8196 92.8739 69.822C91.876 68.7311 90.8064 68.0111 89.6736 67.5691C90.4171 64.3876 90.7936 61.1316 90.7955 57.8643C90.7955 56.3725 90.7111 54.9108 90.5695 53.4708C90.4955 52.7518 90.4063 52.0342 90.302 51.3189C89.9774 49.2085 89.4962 47.1251 88.862 45.0862C88.4464 43.7466 87.9656 42.4281 87.4216 41.1353C86.6058 39.2209 85.6532 37.3675 84.5714 35.5896C83.8613 34.4071 83.0885 33.2634 82.2557 32.1638C81.8476 31.6084 81.4225 31.0662 80.9799 30.5379C79.6692 28.9448 78.2453 27.4488 76.7181 26.0618C76.2113 25.5956 75.69 25.1454 75.1545 24.712C74.6275 24.2723 74.0886 23.8468 73.539 23.4357C72.4326 22.6123 71.2889 21.8398 70.1122 21.1205C63.6102 17.1715 55.9852 14.9072 47.8356 14.9072C24.1077 14.9072 4.87615 34.1392 4.87615 57.8662C4.87553 61.1746 5.25884 64.4716 6.01841 67.6913C4.99929 68.1338 4.02217 68.8231 3.11676 69.821C1.2748 71.8173 0.297207 74.3896 0.688339 77.2087C0.747316 77.6569 0.836961 78.1004 0.955858 78.5363C0.405583 79.3587 -0.00475317 80.2665 -0.258588 81.2228C-0.824763 83.3748 -0.638397 85.3153 0.0811173 87.0153C-0.700676 89.238 -0.505347 91.6046 0.513296 93.6622C1.25404 95.1649 2.31421 96.327 3.62065 97.3664C5.17433 98.6011 7.11914 99.6509 9.46547 100.657C12.2643 101.851 15.6802 102.972 17.2339 103.384C21.2471 104.423 25.0952 105.082 28.9956 105.114C34.5517 105.165 39.3368 103.859 42.7631 100.515C44.4461 100.721 46.1399 100.824 47.8356 100.824C49.6271 100.82 51.4166 100.707 53.1944 100.486C56.6122 103.851 61.4158 105.17 66.9926 105.116C70.8921 105.086 74.7402 104.427 78.7431 103.386C80.3071 102.975 83.7221 101.853 86.5223 100.66C88.8686 99.6514 90.813 98.6021 92.3775 97.3687C93.6741 96.3298 94.7333 95.1673 95.4745 93.6645C96.5035 91.607 96.6889 89.2403 95.9171 87.0176C96.63 85.3177 96.8149 83.3729 96.2492 81.2228ZM92.2676 86.8714C93.056 88.3675 93.1065 90.058 92.4105 91.6324C91.3556 94.0189 88.7351 95.8981 83.6457 97.916C80.4812 99.1715 77.5829 99.9736 77.5574 99.9812C73.3715 101.067 69.5857 101.618 66.3085 101.618C60.8817 101.618 56.8439 100.121 54.2829 97.1635C49.9521 97.9009 45.5298 97.9259 41.191 97.2376C38.6272 100.146 34.6116 101.618 29.2306 101.618C25.953 101.618 22.1676 101.067 17.9817 99.9812C17.9557 99.9736 15.0593 99.1715 11.8934 97.916C6.80397 95.8981 4.18306 94.0198 3.12855 91.6324C2.43263 90.058 2.48311 88.3675 3.27151 86.8714C3.34464 86.7327 3.42249 86.5968 3.506 86.4661C3.03344 85.7565 2.71652 84.9544 2.57597 84.1136C2.43546 83.2729 2.47457 82.4113 2.69071 81.5866C3.004 80.3967 3.65132 79.4068 4.52984 78.6958C4.10681 78.0004 3.82915 77.2266 3.7136 76.4207C3.46071 74.6684 4.04198 72.9185 5.35079 71.4922C6.36943 70.382 7.80988 69.771 9.40508 69.771H9.44754C8.24503 65.9168 7.63526 61.9021 7.63908 57.8648C7.63908 35.8444 25.4911 17.9919 47.5138 17.9919C69.5371 17.9919 87.3886 35.843 87.3886 57.8648C87.3914 61.913 86.7776 65.938 85.5678 69.8012C85.7603 69.7823 85.9491 69.7724 86.134 69.7724C87.7287 69.7724 89.1697 70.3829 90.1883 71.4931C91.4962 72.9185 92.0789 74.6698 91.8255 76.4217C91.7099 77.2275 91.4325 78.0018 91.0093 78.6972C91.8878 79.4078 92.5351 80.3976 92.8484 81.588C93.064 82.4128 93.1032 83.2738 92.9626 84.1151C92.822 84.9558 92.5054 85.7574 92.0331 86.4675C92.1166 86.5968 92.1954 86.7327 92.2676 86.8714Z" fill="white"/>
<path d="M92.0331 86.4678C92.5054 85.7577 92.822 84.9561 92.9626 84.1153C93.1032 83.2741 93.064 82.413 92.8484 81.5883C92.5351 80.3984 91.8878 79.4085 91.0093 78.6975C91.432 78.002 91.7099 77.2283 91.8255 76.4224C92.0784 74.6701 91.4971 72.9202 90.1883 71.4939C89.1697 70.3837 87.7288 69.7727 86.134 69.7727C85.9486 69.7727 85.7604 69.7821 85.5679 69.8015C86.7762 65.9383 87.3891 61.9132 87.3853 57.8656C87.3853 35.8455 69.5333 17.9927 47.5124 17.9927C25.4915 17.9927 7.63766 35.8437 7.63766 57.8656C7.63383 61.9029 8.2436 65.9175 9.44611 69.7717H9.40365C7.80892 69.7717 6.36848 70.3827 5.34984 71.4929C4.04197 72.9183 3.45976 74.6692 3.71265 76.4215C3.8281 77.2273 4.10576 78.0011 4.52888 78.6965C3.65037 79.4076 3.00304 80.3974 2.69023 81.5878C2.47423 82.4125 2.43526 83.2741 2.57596 84.1153C2.71665 84.9561 3.03376 85.7582 3.50646 86.4678C3.42201 86.5985 3.34463 86.7343 3.27197 86.8731C2.48405 88.3692 2.43309 90.0597 3.12902 91.6341C4.18352 94.0201 6.80443 95.9003 11.8939 97.9177C15.0583 99.1732 17.9567 99.9753 17.9821 99.9828C22.1681 101.068 25.9534 101.62 29.2306 101.62C34.6121 101.62 38.6273 100.148 41.1916 97.2393C45.5303 97.9276 49.9526 97.9026 54.2834 97.1652C56.8439 100.123 60.8822 101.62 66.309 101.62C69.5862 101.62 73.372 101.068 77.5579 99.9828C77.5834 99.9753 80.4803 99.1732 83.6462 97.9177C88.7356 95.9003 91.3565 94.0201 92.411 91.6341C93.107 90.0597 93.0565 88.3692 92.2681 86.8731C92.1959 86.7329 92.1166 86.5975 92.0331 86.4678ZM39.3567 92.6863C39.1359 93.0727 38.8995 93.4497 38.6475 93.8163C37.9846 94.7868 37.1127 95.528 36.1012 96.0795C34.1663 97.134 31.718 97.503 29.2302 97.503C25.3009 97.503 21.2726 96.5834 19.0145 95.9974C18.9036 95.9687 5.17432 92.0908 6.91248 88.79C7.205 88.2352 7.68672 88.0134 8.29253 88.0134C10.7398 88.0134 15.1961 91.6577 17.1117 91.6577C17.5392 91.6577 17.8411 91.4751 17.9642 91.0311C18.7805 88.1035 5.55885 86.8731 6.67233 82.6343C6.86907 81.8841 7.40175 81.5798 8.15146 81.5798C11.3867 81.5793 18.6488 87.2694 20.1676 87.2694C20.2841 87.2694 20.3676 87.2354 20.4129 87.1637L20.4327 87.1311C21.1452 85.954 20.7366 85.0981 15.8524 82.1068L15.3834 81.8214C10.0095 78.5682 6.23684 76.6111 8.38265 74.2757C8.62941 74.0058 8.97902 73.8864 9.40412 73.8864C9.90849 73.8864 10.5185 74.0553 11.1904 74.3379C14.0288 75.5349 17.9628 78.7994 19.6061 80.2233C20.0907 80.6451 20.3761 80.9027 20.3761 80.9027C20.3761 80.9027 22.4568 83.0665 23.7151 83.0665C24.0048 83.0665 24.2502 82.9528 24.4167 82.6702C25.3094 81.166 16.1303 74.2106 15.6127 71.341C15.2621 69.3962 15.859 68.4115 16.9635 68.4115C17.4882 68.4115 18.1289 68.6347 18.8361 69.0834C21.0301 70.4762 25.266 77.7553 26.8168 80.5866C27.3368 81.5359 28.2243 81.937 29.024 81.937C30.6107 81.937 31.8511 80.3597 29.1693 78.3554C25.1386 75.3391 26.5531 70.4096 28.4767 70.1063C28.5588 70.0935 28.6418 70.0869 28.7244 70.0864C30.4739 70.0864 31.2457 73.1013 31.2457 73.1013C31.2457 73.1013 33.5071 78.781 37.3925 82.6631C40.9184 86.187 41.4105 89.0793 39.3567 92.6863ZM51.9206 93.3515L51.7191 93.3756L51.3752 93.4152C51.1945 93.4336 51.0137 93.4515 50.8321 93.4685L50.6547 93.4846L50.4933 93.4983L50.2636 93.5167C50.1791 93.5228 50.0947 93.5294 50.0102 93.5346L49.7573 93.5516L49.7016 93.5549L49.5025 93.5667L49.4181 93.5709L49.1822 93.5827L48.908 93.594L48.6589 93.6025L48.4928 93.6072H48.4089C48.357 93.6072 48.3055 93.6101 48.2536 93.6105H48.1711C48.1192 93.6105 48.0677 93.6105 48.0158 93.6134L47.8049 93.6157H47.5096C47.2779 93.6157 47.0472 93.6134 46.8165 93.6091L46.6297 93.6049C46.5768 93.6049 46.5235 93.6021 46.4707 93.6006L46.273 93.5945L46.0267 93.5851L45.8054 93.5756L45.7478 93.5733L45.5369 93.562C45.4784 93.5586 45.4199 93.5558 45.3619 93.552L45.2255 93.544C45.0543 93.5332 44.883 93.5209 44.7117 93.5077L44.5325 93.4935L44.306 93.4742L44.0413 93.4497C43.8936 93.436 43.7459 93.4209 43.5983 93.4044H43.5912C45.7474 88.5942 44.657 84.1021 40.2998 79.7482C37.4425 76.8947 35.5411 72.68 35.1472 71.7548C34.3489 69.0159 32.2356 65.9713 28.7267 65.9713C28.43 65.9718 28.1341 65.9954 27.8411 66.0416C26.3035 66.2832 24.9598 67.1683 24.0011 68.4997C22.9654 67.2112 21.9581 66.1869 21.0475 65.608C19.6745 64.738 18.3049 64.2964 16.9696 64.2964C15.3041 64.2964 13.8146 64.9805 12.7766 66.2214L12.7507 66.253L12.6922 66.0072L12.6898 65.9968C12.4924 65.1522 12.3266 64.3001 12.1925 63.4433C12.1925 63.4372 12.1925 63.4315 12.1897 63.4259L12.1604 63.232C12.1446 63.1272 12.1292 63.022 12.1142 62.9173C12.1019 62.83 12.0897 62.7427 12.0784 62.6559C12.067 62.5691 12.0548 62.4818 12.0444 62.3945C12.0331 62.3067 12.0227 62.2194 12.0123 62.1322C12.0023 62.0491 11.9928 61.9661 11.9835 61.883L11.9807 61.8618C11.9382 61.4787 11.9017 61.0951 11.8712 60.7111L11.8547 60.4888C11.85 60.428 11.8457 60.3666 11.842 60.3048C11.842 60.2907 11.8401 60.276 11.8391 60.2628L11.8236 60.0165C11.818 59.9274 11.8137 59.8382 11.8089 59.749C11.8042 59.6603 11.7995 59.5712 11.7957 59.4815L11.7863 59.248L11.7835 59.1772L11.7764 58.9611L11.7713 58.778C11.7713 58.7049 11.7679 58.6313 11.7665 58.5582L11.7627 58.3275C11.7618 58.2506 11.7627 58.1741 11.7608 58.0972C11.7585 58.0198 11.7608 57.9429 11.7608 57.8656C11.7608 38.1192 27.7699 22.1101 47.5181 22.1101C67.2663 22.1101 83.2749 38.1183 83.2749 57.8656V58.3275C83.2749 58.4044 83.273 58.4817 83.2711 58.5582C83.2711 58.6223 83.2687 58.6851 83.2668 58.7493C83.2668 58.8063 83.2645 58.863 83.2621 58.9182C83.2621 58.9904 83.2579 59.0621 83.2555 59.1343V59.1404C83.2494 59.297 83.2428 59.4537 83.2362 59.6103L83.2333 59.6622L83.2211 59.8962L83.2098 60.0817C83.1833 60.5209 83.1489 60.9602 83.1069 61.3985V61.4046C83.0993 61.4867 83.0909 61.5693 83.0819 61.6514C83.0611 61.8425 83.0399 62.0336 83.0187 62.2246L82.9946 62.4167L82.9649 62.6422C82.9545 62.7248 82.9432 62.8068 82.9314 62.8889C82.9186 62.9809 82.905 63.0725 82.8918 63.164L82.8587 63.3801L82.82 63.6254C82.8068 63.7071 82.7936 63.7882 82.778 63.8698C82.762 63.951 82.7497 64.0321 82.7356 64.1138C82.7073 64.2761 82.678 64.4379 82.6464 64.5997C82.5837 64.922 82.5181 65.2433 82.4487 65.5641C82.4313 65.6439 82.4133 65.7241 82.3949 65.8038C81.3886 64.8257 80.0562 64.2931 78.586 64.2931C77.2522 64.2931 75.8811 64.7342 74.5086 65.6047C73.5975 66.1831 72.5911 67.2079 71.5546 68.4964C70.5944 67.1645 69.2507 66.2799 67.715 66.0378C67.422 65.9921 67.1257 65.9685 66.8289 65.968C63.3191 65.968 61.2073 69.0126 60.4085 71.7515C60.0126 72.6767 58.1112 76.8909 55.2506 79.7492C50.8967 84.0889 49.7979 88.5612 51.9206 93.3515ZM88.8352 83.7228L88.821 83.7648C88.8111 83.7917 88.8012 83.8185 88.7904 83.845C88.7734 83.8851 88.7554 83.9242 88.7366 83.9634C88.6908 84.0568 88.6389 84.1474 88.5818 84.2342C88.503 84.3517 88.4167 84.464 88.3228 84.5697C88.3011 84.5942 88.2803 84.6183 88.2558 84.6423C88.2228 84.6787 88.1874 84.7141 88.1525 84.7494C87.5169 85.3793 86.5488 85.9309 85.4542 86.4376C85.3301 86.4937 85.2046 86.5499 85.0772 86.606L84.9507 86.6622C84.8663 86.6994 84.7823 86.7367 84.6936 86.773C84.6073 86.8098 84.5205 86.8462 84.4336 86.882L84.1704 86.991C83.5546 87.2444 82.9238 87.4855 82.3081 87.7242L82.0453 87.8261L81.7849 87.928C81.6122 87.9955 81.4414 88.063 81.273 88.1304L81.0224 88.2314L80.7766 88.3324L80.6554 88.3829C80.5751 88.4168 80.4959 88.4499 80.4176 88.4838C78.6068 89.2604 77.3045 90.0507 77.5782 91.0316C77.5857 91.0595 77.5942 91.0859 77.6037 91.1114C77.6282 91.184 77.6617 91.2529 77.7032 91.3171C77.7278 91.3558 77.7561 91.3921 77.7877 91.4251C78.1095 91.7592 78.695 91.7063 79.4334 91.4412C79.4933 91.4194 79.5546 91.3963 79.6164 91.3718C79.6589 91.3558 79.7009 91.3388 79.7433 91.3218L79.807 91.2949C79.976 91.2232 80.1548 91.1434 80.3378 91.0562C80.3836 91.0349 80.4298 91.0142 80.4761 90.9896C81.3787 90.5485 82.402 89.9535 83.4174 89.4124C83.5731 89.3279 83.7292 89.2472 83.8845 89.167C84.1383 89.0354 84.3945 88.9085 84.653 88.7872C85.6146 88.3352 86.5181 88.0144 87.2452 88.0144C87.5858 88.0144 87.8873 88.0842 88.1378 88.2446L88.1798 88.2725C88.3067 88.3621 88.4171 88.472 88.5073 88.5985C88.528 88.6282 88.5497 88.6589 88.5681 88.6905C88.588 88.723 88.6068 88.7565 88.6247 88.7905C88.9838 89.4718 88.6833 90.1781 87.9803 90.8703C87.3051 91.5346 86.2548 92.1861 85.0607 92.7896C84.9725 92.8344 84.8833 92.8792 84.7936 92.9226C81.2404 94.6674 76.5883 95.9814 76.5232 95.9979C75.2833 96.3192 73.5102 96.7415 71.513 97.0571L71.2172 97.1029L71.1691 97.11C70.7162 97.1779 70.2618 97.2378 69.8065 97.2897L69.7645 97.294C68.9365 97.3884 68.0872 97.4568 67.2365 97.4855H67.2238C66.9181 97.4969 66.6128 97.5021 66.3071 97.5021H65.9551C65.4889 97.4954 65.0233 97.4747 64.5585 97.4388C64.5477 97.4388 64.5364 97.4388 64.525 97.4365C64.359 97.4237 64.1924 97.4082 64.0268 97.3898C63.7418 97.3591 63.4573 97.3214 63.1738 97.277C63.0634 97.2586 62.9454 97.2393 62.8317 97.2194C62.7798 97.21 62.7284 97.2006 62.6769 97.1902L62.6647 97.1878C62.501 97.1567 62.3382 97.1223 62.1759 97.085C62.082 97.0637 61.9876 97.0425 61.8947 97.0175L61.839 97.0029C61.7928 96.9916 61.7475 96.9793 61.7022 96.967L61.6772 96.9604L61.5314 96.9184C61.4785 96.9033 61.4262 96.8878 61.3733 96.8722L61.3545 96.8665L61.2172 96.8245C61.1653 96.8085 61.1138 96.7915 61.0624 96.775C61.0199 96.7608 60.978 96.7462 60.9355 96.7325L60.8425 96.7C60.7529 96.6688 60.6642 96.6358 60.5755 96.6018L60.4915 96.5693L60.4222 96.5414C60.2886 96.4877 60.1556 96.4315 60.0239 96.3725L59.9362 96.3305L59.9216 96.3239C59.8904 96.3093 59.8598 96.2947 59.8286 96.2815C59.7677 96.2522 59.7074 96.222 59.6474 96.1914L59.6295 96.1824L59.5427 96.1366C59.3884 96.0564 59.237 95.9706 59.0888 95.879L59.0077 95.8295C58.9657 95.804 58.9275 95.7781 58.8874 95.7521L58.7817 95.6818C58.7435 95.6563 58.7052 95.6304 58.668 95.6035L58.6 95.5554C58.5283 95.5039 58.458 95.4516 58.3886 95.3973C58.3518 95.369 58.3155 95.3397 58.2792 95.3128C58.1985 95.2482 58.1197 95.1817 58.0419 95.1133L58.0386 95.1104C57.9626 95.0449 57.8885 94.9769 57.8163 94.9076L57.8126 94.9028C57.7748 94.867 57.738 94.8311 57.7012 94.7939C57.6649 94.7566 57.6281 94.7198 57.5927 94.6825C57.5568 94.6448 57.521 94.6065 57.4861 94.5674C57.4521 94.5306 57.4191 94.4933 57.386 94.4556L57.3747 94.4428C57.2044 94.2451 57.0449 94.038 56.8972 93.8224L56.8387 93.736C56.8001 93.679 56.7618 93.6214 56.7241 93.5638L56.6127 93.3926C56.558 93.3091 56.5047 93.2246 56.4528 93.1397C56.4155 93.0793 56.3787 93.0189 56.3424 92.958C56.3117 92.9061 56.2811 92.8547 56.2518 92.8037C56.2353 92.7759 56.2197 92.7476 56.2042 92.7193C56.1886 92.69 56.1702 92.6603 56.1537 92.6306L56.1272 92.5839C56.1183 92.5683 56.1154 92.5636 56.1107 92.5532C56.0786 92.4971 56.0475 92.44 56.0173 92.382C56.0036 92.3569 55.99 92.3315 55.9753 92.3065L55.9329 92.2253L55.8909 92.1446L55.8097 91.9809C55.7965 91.954 55.7838 91.9271 55.771 91.9002C55.7432 91.8422 55.7168 91.7851 55.6903 91.728C55.68 91.7049 55.6691 91.6818 55.6597 91.6587C55.6234 91.5799 55.5889 91.5001 55.5564 91.4194C55.5342 91.3661 55.5139 91.3133 55.4922 91.2605C55.4313 91.1048 55.3742 90.9476 55.3219 90.7886C55.3063 90.7415 55.2907 90.6947 55.277 90.6476C55.2431 90.5405 55.2124 90.4324 55.185 90.3234C55.1515 90.1965 55.1218 90.0682 55.0968 89.9394C55.0808 89.8634 55.0666 89.787 55.0548 89.7101C55.0421 89.6341 55.0312 89.5582 55.0223 89.4827C55.0029 89.3322 54.9892 89.1812 54.9812 89.0297C54.9812 89.0047 54.9789 88.9792 54.9784 88.9542C54.976 88.9042 54.9746 88.8542 54.9741 88.8042C54.9477 86.7886 55.9683 84.8499 58.1494 82.6697C62.0343 78.7881 64.2962 73.1079 64.2962 73.1079C64.2962 73.1079 64.3571 72.8697 64.484 72.5271C64.5265 72.4134 64.5708 72.3002 64.6175 72.1884C64.6708 72.0619 64.7279 71.9369 64.7893 71.8142L64.8072 71.7784C64.886 71.6217 64.9714 71.4693 65.0643 71.3207C65.0855 71.2863 65.1063 71.2518 65.1308 71.2178C65.1997 71.115 65.2729 71.0154 65.3498 70.9187C65.4092 70.8447 65.4724 70.7729 65.539 70.705C65.7645 70.4729 66.0216 70.2832 66.3127 70.1817L66.3495 70.17C66.3741 70.1619 66.3981 70.1544 66.4231 70.1473C66.4524 70.1398 66.4816 70.1327 66.5109 70.1266L66.5241 70.1242C66.5859 70.1119 66.6477 70.1034 66.7105 70.0992H66.7161C66.7487 70.0992 66.7812 70.0959 66.8147 70.0959C66.8983 70.0964 66.9813 70.103 67.0639 70.1157C67.4139 70.1709 67.7475 70.3794 68.0344 70.7012L68.0731 70.7465C68.1665 70.856 68.2514 70.973 68.3269 71.0957C68.3835 71.1867 68.4368 71.2825 68.4873 71.383C68.5076 71.4254 68.5269 71.4641 68.5463 71.5057C68.5557 71.5269 68.5652 71.5476 68.5741 71.5694C68.593 71.6113 68.6105 71.6538 68.6279 71.6982C68.7265 71.951 68.803 72.212 68.8568 72.4781C68.9138 72.7654 68.9469 73.057 68.9563 73.35C68.9596 73.4788 68.9596 73.609 68.9563 73.7411C68.9539 73.7911 68.9516 73.8416 68.9478 73.8921C68.9091 74.4531 68.7869 75.0051 68.585 75.5302C68.5647 75.5821 68.5425 75.635 68.5218 75.6878C68.4203 75.9303 68.3024 76.1653 68.1693 76.3917C68.0934 76.521 68.0113 76.6494 67.9235 76.7767L67.8697 76.8532C67.6616 77.1438 67.4295 77.4165 67.1757 77.6685C66.9256 77.919 66.6576 78.1507 66.3741 78.3625C66.0896 78.5725 65.823 78.8055 65.5767 79.0589C64.8676 79.8034 64.7024 80.4597 64.8619 80.9575C64.8808 81.0136 64.903 81.0688 64.9284 81.1221C64.9874 81.2377 65.0638 81.3439 65.1554 81.4364L65.1804 81.4614C65.2063 81.4864 65.2337 81.5104 65.2615 81.5336L65.2898 81.5567C65.3587 81.6095 65.4314 81.6567 65.5073 81.6978C65.529 81.7095 65.5493 81.7213 65.5743 81.7327C65.6786 81.7846 65.7876 81.8261 65.8999 81.8577L65.931 81.8657L65.973 81.877L66.0098 81.886L66.049 81.8945L66.0881 81.9025L66.1254 81.9087C66.1533 81.9138 66.1816 81.9181 66.2094 81.9219L66.2368 81.9256L66.2854 81.9308L66.3156 81.9337L66.3656 81.9374H66.3944L66.4463 81.9398H66.61L66.6567 81.9374L66.7105 81.9341L66.7761 81.928L66.8374 81.9204C66.8511 81.9204 66.8652 81.9167 66.8794 81.9143C67.0955 81.8827 67.3059 81.8218 67.505 81.7331C67.5475 81.7152 67.5895 81.6954 67.6282 81.6746C67.7112 81.6331 67.7919 81.5864 67.8692 81.535C67.9773 81.4642 68.0792 81.3845 68.175 81.2976L68.2415 81.2344C68.2519 81.2241 68.2627 81.2141 68.2726 81.2033C68.3378 81.1382 68.3991 81.0693 68.4562 80.9971C68.5571 80.8697 68.6468 80.7343 68.7246 80.5918C69.648 78.9131 70.6157 77.2589 71.6268 75.6317L71.7655 75.4094L71.9056 75.1867C71.9759 75.0744 72.0462 74.9631 72.1165 74.8532L72.1877 74.7423L72.3298 74.521C72.5204 74.2261 72.7114 73.9346 72.904 73.6458L73.0479 73.4306C73.3366 73.0032 73.6249 72.5871 73.9099 72.1912L74.0523 71.9959C74.3623 71.5675 74.6855 71.149 75.021 70.7404L75.1545 70.5809C75.1762 70.554 75.1965 70.5281 75.2206 70.5021L75.3512 70.3507C75.373 70.3257 75.3937 70.3011 75.4164 70.2771L75.5428 70.1341L75.6065 70.0652C75.6678 69.9987 75.7301 69.9331 75.7933 69.868C75.8358 69.826 75.875 69.7835 75.916 69.7444C76.1552 69.4995 76.419 69.2801 76.7035 69.09L76.769 69.048L76.8356 69.0055C76.878 68.9791 76.921 68.9536 76.9648 68.9296C78.0802 68.2969 79.004 68.2501 79.5353 68.7814C79.8575 69.1037 80.0354 69.6373 80.026 70.3794C80.026 70.4125 80.026 70.445 80.0231 70.479V70.5158C80.0231 70.5493 80.0203 70.5837 80.0179 70.6182C80.0179 70.6602 80.0127 70.7026 80.0085 70.7446C80.0043 70.7871 80.0024 70.8192 79.9981 70.8564C79.9981 70.8673 79.9958 70.8781 79.9943 70.889C79.9911 70.922 79.9868 70.9555 79.9826 70.9886C79.9826 70.9989 79.9826 71.0088 79.9783 71.0192C79.9736 71.064 79.967 71.1089 79.959 71.1532C79.9538 71.1943 79.9472 71.2353 79.9392 71.2764C79.9359 71.2999 79.9311 71.3231 79.9274 71.3467C79.9151 71.4137 79.899 71.4802 79.8797 71.5453C79.8434 71.667 79.799 71.7864 79.7467 71.9025C79.724 71.9529 79.6999 72.0034 79.6754 72.053C79.6245 72.1553 79.5669 72.2601 79.5037 72.3686C79.4721 72.4219 79.4395 72.4771 79.4046 72.5323L79.3517 72.6163C79.298 72.7008 79.2418 72.7862 79.1833 72.8725C79.1248 72.9588 79.0621 73.0471 78.9946 73.1362C78.9073 73.2551 78.8153 73.3764 78.7181 73.4991L78.6445 73.592C78.4364 73.851 78.2232 74.1058 78.0052 74.3563L77.832 74.5521L77.7438 74.6512C77.6235 74.7857 77.5027 74.9192 77.381 75.0518L77.2876 75.1528C77.2258 75.2198 77.1611 75.2877 77.0993 75.3552C77.0361 75.4236 76.9719 75.4915 76.9078 75.5595L76.7134 75.7642L76.5166 75.9695C76.451 76.0379 76.385 76.1072 76.3185 76.1757L75.9179 76.5885C74.0047 78.5508 71.9886 80.5064 71.3064 81.7256C71.2611 81.8053 71.2201 81.8869 71.1828 81.9705C71.0861 82.1922 71.0455 82.3819 71.0728 82.5352C71.0818 82.5857 71.0997 82.6343 71.1257 82.6782C71.1644 82.7447 71.2111 82.806 71.2649 82.8608C71.2899 82.8853 71.3158 82.9084 71.3441 82.9292C71.4843 83.0292 71.6541 83.0806 71.8263 83.0754H71.8801L71.9353 83.0717L71.991 83.0651L72.0368 83.0585C72.0429 83.058 72.049 83.0566 72.0552 83.0552L72.0972 83.0471L72.1085 83.0443L72.1547 83.0344L72.1712 83.0302L72.2208 83.0174L72.2797 83C72.3184 82.9882 72.3571 82.9749 72.3968 82.9603C72.4822 82.9301 72.5657 82.8952 72.6473 82.856C72.6681 82.8461 72.6893 82.8367 72.7096 82.8259L72.7723 82.7947C72.8544 82.7532 72.936 82.7084 73.0181 82.6598C73.0837 82.6211 73.1488 82.5815 73.2139 82.5395L73.2772 82.4975C73.2979 82.4843 73.3192 82.4706 73.3399 82.455L73.4027 82.413L73.4357 82.3899L73.5263 82.3267C73.6107 82.2682 73.6895 82.2083 73.7697 82.1474L73.7768 82.1422L73.9033 82.0441C74.0764 81.9072 74.2411 81.7695 74.3897 81.6397L74.4888 81.5524L74.4982 81.5439L74.5496 81.4982C74.6714 81.3892 74.7799 81.2873 74.8705 81.2028L74.9073 81.167L74.9964 81.0825L75.0498 81.0306L75.0682 81.0117L75.0733 81.0065C75.1186 80.9613 75.1186 80.9613 75.1639 80.9155L75.1677 80.9117L75.1847 80.8966C75.1899 80.891 75.197 80.8853 75.205 80.8782L75.2116 80.8721L75.2295 80.856L75.3253 80.7716L75.3791 80.723C75.4055 80.7003 75.4343 80.6744 75.4635 80.6466L75.5282 80.5899C75.5395 80.5805 75.5508 80.5696 75.5626 80.5593L75.6301 80.5003L75.7296 80.4135L75.782 80.3677C75.9873 80.1889 76.2373 79.9733 76.5237 79.7303L76.6412 79.6312L76.8356 79.4684L77.0337 79.3024C77.2932 79.0872 77.5725 78.8584 77.8679 78.6206L78.0618 78.4649C78.2269 78.3337 78.3968 78.1993 78.5685 78.0643C78.6374 78.0101 78.7077 77.9558 78.7794 77.902C78.9554 77.7661 79.1324 77.6307 79.3098 77.4972C79.7146 77.1915 80.1321 76.8853 80.5544 76.5866L80.736 76.4606C80.8625 76.3729 80.9889 76.2856 81.1158 76.2002L81.2305 76.1223C81.4574 75.9695 81.6863 75.8199 81.917 75.6736L82.0316 75.6015L82.1453 75.5307C82.2591 75.4604 82.3728 75.3906 82.4851 75.3231L82.5978 75.2561L82.8238 75.1245C82.8979 75.0815 82.9715 75.0395 83.0451 74.998L83.0894 74.973L83.265 74.8772C83.3376 74.8376 83.4108 74.7994 83.4829 74.7621L83.5915 74.7064L83.6962 74.6531C83.9359 74.5328 84.1798 74.4215 84.428 74.3195C84.4619 74.3054 84.4954 74.2917 84.5289 74.2771C84.5955 74.2492 84.6615 74.2238 84.7271 74.2011C84.7927 74.1789 84.8573 74.1558 84.921 74.1332C84.979 74.1138 85.0352 74.0959 85.0899 74.0789L85.1083 74.0733C85.1376 74.0643 85.1668 74.0558 85.1961 74.0483L85.2046 74.0459C85.264 74.0289 85.3235 74.0133 85.3834 73.9992H85.3881C85.4763 73.978 85.5622 73.96 85.6462 73.9459C85.675 73.9412 85.7033 73.9364 85.7307 73.9327C85.8123 73.9204 85.8944 73.9119 85.9765 73.9062C86.0284 73.9025 86.0807 73.9011 86.1326 73.9011H86.1723C86.2251 73.9011 86.2761 73.9044 86.3265 73.9095C86.3497 73.9095 86.3728 73.9138 86.3954 73.9171H86.4049C86.4275 73.9194 86.4506 73.9232 86.4728 73.9279C86.495 73.9327 86.5176 73.936 86.5393 73.9412H86.5469C86.5686 73.9459 86.5889 73.952 86.6115 73.9581C86.7918 74.0067 86.9574 74.0983 87.0947 74.2247L87.1069 74.237L87.131 74.2606L87.1546 74.2856C87.3438 74.4847 87.5004 74.7126 87.6184 74.9607L87.6368 75.0027C87.6769 75.0971 87.7085 75.1948 87.7307 75.2948C87.792 75.5736 87.7755 75.8643 87.6825 76.1341C87.6424 76.2516 87.5934 76.3658 87.5353 76.4753L87.4966 76.5451C87.3494 76.7918 87.1758 77.0216 86.9781 77.2302L86.9357 77.275C86.8427 77.3736 86.746 77.4694 86.6464 77.5614C86.6148 77.5911 86.5823 77.6208 86.5492 77.6505L86.4992 77.6958C86.3954 77.7878 86.2893 77.8775 86.1817 77.9652C86.1628 77.9803 86.1435 77.9954 86.1251 78.0115C86.0501 78.0719 85.9727 78.1332 85.8925 78.1945C85.616 78.4059 85.3343 78.6097 85.0475 78.8065C84.8786 78.9221 84.704 79.0386 84.5238 79.157C84.1878 79.3774 83.8495 79.593 83.5079 79.8044C83.4093 79.8652 83.3103 79.927 83.2093 79.9884C82.2812 80.5593 81.2522 81.1698 80.1548 81.8336L79.8707 82.0063C79.5598 82.196 79.2663 82.3772 78.9903 82.5494L78.8512 82.6371L78.5879 82.806C78.4836 82.8721 78.3822 82.9372 78.2836 83.0014C78.209 83.049 78.1364 83.0962 78.0651 83.1429L77.9245 83.2354C77.8561 83.2802 77.7882 83.325 77.7202 83.3708L77.6542 83.4128C77.5843 83.4595 77.5164 83.5053 77.4503 83.5506L77.3423 83.6242L77.2154 83.7124L77.0984 83.794C76.9134 83.9238 76.7308 84.0563 76.5497 84.1913L76.4864 84.2394C76.4152 84.2932 76.3463 84.347 76.2798 84.3993L76.193 84.4687C76.0467 84.5862 75.9141 84.699 75.7943 84.8065L75.7358 84.8603C75.7023 84.891 75.6692 84.9216 75.6381 84.9518C75.6159 84.9726 75.5956 84.9938 75.5735 85.0146L75.5428 85.0448C75.4753 85.1123 75.4098 85.1816 75.3461 85.2529L75.3149 85.2887C75.2456 85.3689 75.1852 85.4458 75.1319 85.5208L75.1083 85.5548C75.0469 85.6445 74.9927 85.7393 74.9464 85.8379L74.9304 85.8724L74.9205 85.8964L74.9125 85.9172L74.9016 85.946C74.8983 85.9559 74.8917 85.9733 74.8879 85.9884C74.8686 86.0446 74.8544 86.1026 74.845 86.1616L74.8403 86.1932L74.8365 86.222L74.8341 86.2498V86.3979C74.8341 86.4102 74.8341 86.423 74.837 86.4357C74.8374 86.4432 74.8384 86.4508 74.8393 86.4583C74.8393 86.4706 74.8426 86.4829 74.844 86.4956L74.853 86.5475V86.5499C74.8563 86.5664 74.8596 86.5829 74.8639 86.5994C74.8681 86.6159 74.8724 86.6343 74.8775 86.6518C74.8926 86.7051 74.911 86.7579 74.9323 86.8094C74.9323 86.8131 74.9356 86.8174 74.937 86.8212C74.9427 86.8339 74.9478 86.8471 74.954 86.8598C74.9771 86.9136 75.003 86.966 75.0314 87.0174L75.0611 87.0708L75.0922 87.1245L75.1248 87.1783C75.1304 87.1873 75.1366 87.1953 75.1436 87.2033L75.1545 87.2147L75.1658 87.225L75.1786 87.2349C75.187 87.2411 75.196 87.2463 75.2055 87.2515C75.2149 87.2557 75.2253 87.2604 75.2356 87.2642C75.247 87.268 75.2583 87.2713 75.2696 87.2741C75.5419 87.3354 76.1014 87.1099 76.8445 86.7174L76.9781 86.6466L77.204 86.5234L77.3149 86.4621C77.3932 86.4197 77.4739 86.3725 77.5556 86.3258L77.7051 86.2413C78.6879 85.6756 79.8622 84.9485 81.0757 84.2389C81.189 84.1724 81.3032 84.1064 81.4173 84.0403L81.6466 83.894C81.7613 83.828 81.8755 83.7629 81.9901 83.6987C82.478 83.4213 82.9724 83.1547 83.4721 82.8995L83.6962 82.7858C83.8453 82.7122 83.993 82.6404 84.1388 82.5706C84.4214 82.4366 84.7068 82.3097 84.9951 82.1894L85.1532 82.1252L85.1725 82.1177C86.0095 81.786 86.7686 81.5807 87.3829 81.5807C87.516 81.5798 87.6486 81.5906 87.7797 81.6133H87.7835C87.826 81.6208 87.8642 81.6293 87.9029 81.6392H87.91C87.9666 81.6529 88.0222 81.6704 88.076 81.6921C88.119 81.7077 88.1605 81.7261 88.2006 81.7478C88.3766 81.8369 88.5271 81.9686 88.6394 82.1309C88.6488 82.1446 88.6578 82.1587 88.6663 82.1733C88.7078 82.2366 88.7436 82.3031 88.7729 82.3729C88.7904 82.413 88.8064 82.4545 88.8215 82.4994C88.8366 82.5447 88.8498 82.5881 88.8635 82.6348C88.9635 82.9924 88.9536 83.3708 88.8352 83.7228Z" fill="#FF9D00"/>
<path fill-rule="evenodd" clip-rule="evenodd" d="M83.2691 58.0964V57.8652C83.2691 38.118 67.2662 22.1099 47.5175 22.1099C27.7698 22.1099 11.7608 38.1189 11.7608 57.8652L11.7603 57.9426C11.7598 57.994 11.7594 58.045 11.7603 58.0964C11.7626 58.1733 11.7634 58.2502 11.7627 58.3271L11.7655 58.497L11.7665 58.5583L11.7688 58.6423C11.7698 58.6876 11.7712 58.7324 11.7712 58.7777L11.7759 58.9613L11.7834 59.1769L11.7858 59.2476L11.7952 59.4708V59.4812L11.8084 59.7421V59.7487C11.8132 59.8379 11.8179 59.9271 11.8235 60.0158C11.8283 60.0983 11.8334 60.1804 11.8391 60.2625L11.8405 60.2771C11.8447 60.3474 11.8494 60.4182 11.8547 60.4885L11.8561 60.5069C11.8608 60.5749 11.866 60.6433 11.8717 60.7107L11.8726 60.7239L11.882 60.8419C11.9103 61.1821 11.9433 61.5223 11.9811 61.8615L11.9835 61.8827L12.0118 62.1318L12.0443 62.3942C12.0662 62.5687 12.0895 62.7428 12.1142 62.9169C12.1289 63.0222 12.1442 63.1269 12.1599 63.2316L12.1623 63.2444C12.1975 63.4812 12.2356 63.7181 12.2765 63.954C12.3938 64.6386 12.5316 65.3199 12.6898 65.9965L12.6921 66.0073L12.7072 66.071C12.7214 66.1314 12.7356 66.1918 12.7507 66.2527L12.7766 66.221C13.8146 64.9802 15.3036 64.296 16.9696 64.296C18.3048 64.296 19.675 64.7372 21.0475 65.6077C21.9581 66.1861 22.9649 67.2109 24.001 68.4994C24.9597 67.1675 26.3034 66.2828 27.8406 66.0413C28.1341 65.995 28.4304 65.9715 28.7266 65.971C32.2355 65.971 34.3488 69.0161 35.1471 71.7545C35.541 72.6801 37.4424 76.8939 40.3092 79.7446C44.6664 84.098 45.7567 88.5906 43.6005 93.4007H43.6076C43.7548 93.4168 43.9025 93.4319 44.0507 93.4456C44.1389 93.4541 44.2271 93.4626 44.3153 93.4701L44.3465 93.4729C44.4111 93.4791 44.4762 93.4847 44.5413 93.4894L44.7206 93.5041C44.8914 93.5173 45.0627 93.5291 45.2349 93.5404L45.3708 93.5484L45.4788 93.5546L45.5463 93.5583L45.7567 93.5697L45.8143 93.572L46.036 93.5815L46.2819 93.5909L46.48 93.5965L46.513 93.598C46.5546 93.5994 46.597 93.6013 46.639 93.6013L46.6838 93.6022C46.9622 93.6088 47.2401 93.6121 47.5185 93.6121H47.8138L48.0252 93.6098C48.0771 93.6069 48.1285 93.6069 48.1804 93.6069H48.2625L48.3338 93.6055C48.3616 93.6046 48.3899 93.6036 48.4177 93.6036H48.5022L48.6678 93.5989L48.9169 93.5904L49.1915 93.5786C49.2703 93.5753 49.3486 93.5715 49.4274 93.5673L49.5119 93.5626L49.6369 93.5555L49.711 93.5513L49.7662 93.548L50.0196 93.531C50.104 93.5258 50.1885 93.5192 50.2729 93.5126L50.5022 93.4946L50.664 93.481L50.841 93.4649C51.0226 93.4479 51.2038 93.43 51.384 93.4111C51.4992 93.3984 51.6133 93.3857 51.728 93.372L51.9294 93.3479C49.8068 88.5576 50.9056 84.0853 55.2453 79.7488C58.1055 76.8911 60.0069 72.6764 60.4032 71.7512C61.202 69.0123 63.3133 65.9677 66.8232 65.9677C67.1199 65.9681 67.4162 65.9913 67.7092 66.038C69.245 66.2795 70.5892 67.1647 71.5493 68.4961C72.5859 67.2076 73.5923 66.1828 74.5029 65.6044C75.8754 64.7339 77.2464 64.2927 78.5803 64.2927C80.0504 64.2927 81.3833 64.8259 82.3897 65.8035C82.4449 65.5572 82.4982 65.3109 82.5491 65.0637C82.5803 64.9094 82.6109 64.7546 82.6411 64.5994C82.6779 64.4088 82.7129 64.2173 82.7449 64.0257C82.7534 63.9738 82.7624 63.9219 82.7723 63.8695C82.7879 63.7879 82.8016 63.7072 82.8143 63.6251L82.8195 63.594L82.853 63.3803L82.886 63.1637L82.8865 63.1613C82.8997 63.0707 82.9134 62.9797 82.9257 62.8886C82.9356 62.8197 82.945 62.7509 82.954 62.6815L82.9596 62.6419L82.9889 62.4163L83.0129 62.2243C83.0276 62.0979 83.0417 61.9714 83.0554 61.8445C83.0615 61.794 83.0667 61.7431 83.0719 61.6921L83.0766 61.6511C83.0856 61.5666 83.0936 61.4826 83.1012 61.3982L83.12 61.2019C83.1592 60.7669 83.1908 60.3319 83.2153 59.8959V59.8931L83.2281 59.6619L83.2304 59.61L83.2399 59.3906C83.2436 59.308 83.247 59.2245 83.2498 59.1401V59.1339L83.2521 59.0731C83.2545 59.0212 83.2564 58.9693 83.2564 58.9179L83.2573 58.8966C83.2592 58.8485 83.2611 58.7985 83.2611 58.7489L83.2625 58.7065C83.2639 58.6569 83.2654 58.6079 83.2654 58.5583L83.2663 58.5163C83.2677 58.4531 83.2691 58.3904 83.2691 58.3271V58.0964ZM38.6493 93.8159C41.4807 89.663 41.2802 86.5462 37.3948 82.6632C33.5094 78.7802 31.248 73.1015 31.248 73.1015C31.248 73.1015 30.4039 69.8026 28.4789 70.1059C26.554 70.4089 25.1419 75.3379 29.172 78.3551C33.2023 81.3724 28.3704 83.4181 26.8191 80.5868C25.2674 77.755 21.0324 70.4763 18.8361 69.084C16.6403 67.6917 15.096 68.4721 15.6136 71.3416C15.8707 72.766 18.2619 75.1968 20.4959 77.4681C22.7625 79.7729 24.8673 81.9126 24.4176 82.6698C23.5245 84.174 20.3789 80.9029 20.3789 80.9029C20.3789 80.9029 10.5294 71.9399 8.38497 74.2758C6.40855 76.4287 9.45646 78.2589 14.1538 81.0794C14.5534 81.3195 14.9649 81.5667 15.3862 81.8215C20.7601 85.0751 21.1782 85.9334 20.4157 87.1643C20.134 87.6192 18.335 86.5392 16.1222 85.2106C12.3501 82.9459 7.37576 79.9597 6.67371 82.6326C6.06554 84.9459 9.72492 86.3632 13.0436 87.6489C15.8085 88.7199 18.3374 89.6994 17.9656 91.0289C17.5801 92.4071 15.4905 91.2578 13.206 90.0009C10.6417 88.5897 7.83201 87.0435 6.91292 88.7883C5.17476 92.0863 18.9017 95.9688 19.0144 95.9971C23.4495 97.1474 34.7125 99.5848 38.6493 93.8159ZM56.8915 93.8159C54.0597 89.663 54.2607 86.5462 58.146 82.6632C62.0314 78.7802 64.2933 73.1015 64.2933 73.1015C64.2933 73.1015 65.1369 69.8026 67.0619 70.1059C68.9869 70.4089 70.3995 75.3379 66.3688 78.3551C62.3381 81.3724 67.1704 83.4181 68.7222 80.5868C70.2735 77.755 74.5066 70.4763 76.7024 69.084C78.8983 67.6917 80.443 68.4721 79.9254 71.3416C79.6683 72.766 77.2771 75.1973 75.0426 77.4686C72.7765 79.7729 70.6717 81.9126 71.1214 82.6698C72.014 84.174 75.1624 80.901 75.1624 80.901C75.1624 80.901 85.0115 71.938 87.1559 74.2739C89.1323 76.4268 86.084 78.2575 81.3866 81.0784C80.987 81.3181 80.576 81.5649 80.1547 81.8201C74.7803 85.0733 74.3627 85.9319 75.1252 87.1624C75.4068 87.6173 77.2059 86.5373 79.4182 85.2091C83.1908 82.9444 88.1651 79.9579 88.8672 82.6307C89.4753 84.944 85.816 86.3618 82.4968 87.6475C79.7319 88.7185 77.2035 89.6975 77.5748 91.0275C77.9603 92.4057 80.049 91.2559 82.3326 89.999C84.8969 88.5878 87.707 87.0412 88.6266 88.7864C90.3647 92.0867 76.6359 95.965 76.5246 95.9938C72.0895 97.1474 60.8264 99.5848 56.8915 93.8159Z" fill="#FFD21E"/>
<path fill-rule="evenodd" clip-rule="evenodd" d="M59.1303 48.133C59.6875 48.3302 60.1022 48.9308 60.4967 49.5017C61.0298 50.2741 61.5262 50.9922 62.2877 50.5873C63.1865 50.1099 63.923 49.3767 64.4047 48.4802C64.8864 47.584 65.0912 46.565 64.9935 45.5522C64.9209 44.7949 64.6812 44.063 64.2915 43.4096C63.9017 42.7561 63.3719 42.1972 62.7406 41.773C62.1088 41.349 61.3908 41.0703 60.6387 40.9571C59.8861 40.8439 59.118 40.8991 58.3896 41.1185C57.4153 41.412 56.55 41.9875 55.9026 42.7726C55.2558 43.5576 54.8557 44.5168 54.7533 45.529C54.6514 46.5415 54.8519 47.5614 55.3294 48.4599C55.6823 49.1238 56.4655 48.811 57.2921 48.4802C57.9404 48.2212 58.6151 47.9513 59.1303 48.133ZM34.8905 48.1335C34.3332 48.3307 33.9181 48.9313 33.5236 49.5022C32.9905 50.2741 32.4941 50.9926 31.7326 50.5878C31.0612 50.2307 30.4776 49.7286 30.0232 49.1186C29.5689 48.5085 29.2556 47.8055 29.1056 47.0597C28.9555 46.314 28.9725 45.5444 29.1556 44.8061C29.3391 44.0679 29.6835 43.3794 30.1643 42.7902C30.646 42.2013 31.2518 41.7265 31.9388 41.3998C32.6258 41.0732 33.3769 40.903 34.1374 40.9013C34.898 40.8996 35.6496 41.0666 36.338 41.3902C37.0264 41.7138 37.6345 42.186 38.1186 42.7727C38.7659 43.5577 39.166 44.5171 39.2684 45.5296C39.3703 46.5421 39.1698 47.562 38.6919 48.4604C38.338 49.1243 37.5548 48.811 36.7282 48.4802C36.0804 48.2212 35.4057 47.9513 34.8905 48.1335ZM55.3803 70.1912C59.2223 67.164 60.6335 62.2227 60.6335 59.1786C60.6335 56.7723 59.0142 57.5296 56.4226 58.8125L56.2768 58.8851C53.8974 60.0632 50.7306 61.6315 47.2543 61.6315C43.7775 61.6315 40.6107 60.0628 38.2323 58.8846C35.5567 57.5593 33.8784 56.728 33.8784 59.1791C33.8784 62.319 35.3797 67.4754 39.501 70.4714C40.0445 69.3674 40.8098 68.3874 41.7497 67.5929C42.689 66.7984 43.7827 66.2067 44.9618 65.8543C45.3732 65.7316 45.7969 66.4398 46.2309 67.1645C46.6494 67.8642 47.0769 68.5794 47.5124 68.5794C47.9757 68.5794 48.4315 67.8746 48.8764 67.1862C49.3411 66.4671 49.7941 65.766 50.2324 65.9062C52.4386 66.6143 54.2838 68.1501 55.3803 70.1912Z" fill="#32343D"/>
<path d="M55.3789 70.1907C53.3779 71.7675 50.7183 72.8248 47.2552 72.8248C44.0011 72.8248 41.4557 71.8916 39.501 70.4709C40.045 69.3674 40.8107 68.3874 41.7501 67.5934C42.6895 66.7988 43.7832 66.2067 44.9617 65.8538C45.77 65.6127 46.6258 68.579 47.5119 68.579C48.4607 68.579 49.3746 65.6316 50.2324 65.9057C52.4376 66.6143 54.2824 68.1501 55.3789 70.1907Z" fill="#FF323D"/>
<path fill-rule="evenodd" clip-rule="evenodd" d="M25.704 52.4141C25.3389 52.6599 24.9289 52.8312 24.4975 52.918C24.0661 53.0048 23.6218 53.0058 23.19 52.9208C22.7583 52.8354 22.3476 52.666 21.9814 52.4221C21.6153 52.1777 21.301 51.864 21.0565 51.4978C20.8119 51.1322 20.642 50.7212 20.5565 50.29C20.4709 49.8583 20.4714 49.4138 20.5579 48.9821C20.6444 48.5509 20.8152 48.1409 21.0605 47.7752C21.3059 47.41 21.6209 47.0966 21.9875 46.8533C22.725 46.3639 23.6264 46.1867 24.4942 46.3607C25.362 46.5346 26.1255 47.0455 26.6174 47.7814C27.109 48.5174 27.2892 49.4181 27.118 50.2862C26.9467 51.1548 26.4381 51.9201 25.704 52.4141ZM73.5514 52.4141C73.1862 52.6599 72.7762 52.8312 72.345 52.918C71.9137 53.0048 71.4693 53.0058 71.0376 52.9208C70.6059 52.8354 70.1949 52.666 69.8288 52.4221C69.4627 52.1777 69.1485 51.864 68.9041 51.4978C68.6592 51.1322 68.4893 50.7212 68.4039 50.29C68.3185 49.8583 68.319 49.4138 68.4054 48.9821C68.4917 48.5509 68.6625 48.1409 68.9078 47.7752C69.1532 47.41 69.4683 47.0966 69.8349 46.8533C70.5724 46.3639 71.474 46.1867 72.3417 46.3607C73.2093 46.5346 73.9727 47.0455 74.4648 47.7814C74.9565 48.5174 75.1367 49.4181 74.9654 50.2862C74.7942 51.1548 74.2856 51.9201 73.5514 52.4141Z" fill="#FFAD03"/>
</g>
<defs>
<clipPath id="clip0_509_3476">
<rect width="407.549" height="120.784" fill="white" transform="translate(0.159424 0.5)"/>
</clipPath>
</defs>
</svg>
