<svg width="35" height="36" viewBox="0 0 35 36" fill="none" xmlns="http://www.w3.org/2000/svg">
<path d="M5.8335 31.5V24C5.8335 23.175 6.11909 22.4688 6.69027 21.8813C7.26145 21.2938 7.94808 21 8.75016 21H26.2502C27.0522 21 27.7389 21.2938 28.3101 21.8813C28.8812 22.4688 29.1668 23.175 29.1668 24V31.5H5.8335ZM13.1252 19.5C11.1078 19.5 9.38818 18.7688 7.96631 17.3063C6.54443 15.8438 5.8335 14.075 5.8335 12C5.8335 9.925 6.54443 8.15625 7.96631 6.69375C9.38818 5.23125 11.1078 4.5 13.1252 4.5H21.8752C23.8925 4.5 25.6121 5.23125 27.034 6.69375C28.4559 8.15625 29.1668 9.925 29.1668 12C29.1668 14.075 28.4559 15.8438 27.034 17.3063C25.6121 18.7688 23.8925 19.5 21.8752 19.5H13.1252ZM8.75016 28.5H26.2502V24H8.75016V28.5ZM13.1252 16.5H21.8752C23.0904 16.5 24.1234 16.0625 24.9741 15.1875C25.8248 14.3125 26.2502 13.25 26.2502 12C26.2502 10.75 25.8248 9.6875 24.9741 8.8125C24.1234 7.9375 23.0904 7.5 21.8752 7.5H13.1252C11.9099 7.5 10.8769 7.9375 10.0262 8.8125C9.17551 9.6875 8.75016 10.75 8.75016 12C8.75016 13.25 9.17551 14.3125 10.0262 15.1875C10.8769 16.0625 11.9099 16.5 13.1252 16.5ZM13.1252 13.5C13.5384 13.5 13.8847 13.3563 14.1642 13.0688C14.4437 12.7812 14.5835 12.425 14.5835 12C14.5835 11.575 14.4437 11.2188 14.1642 10.9313C13.8847 10.6438 13.5384 10.5 13.1252 10.5C12.712 10.5 12.3656 10.6438 12.0861 10.9313C11.8066 11.2188 11.6668 11.575 11.6668 12C11.6668 12.425 11.8066 12.7812 12.0861 13.0688C12.3656 13.3563 12.712 13.5 13.1252 13.5ZM21.8752 13.5C22.2884 13.5 22.6347 13.3563 22.9142 13.0688C23.1937 12.7812 23.3335 12.425 23.3335 12C23.3335 11.575 23.1937 11.2188 22.9142 10.9313C22.6347 10.6438 22.2884 10.5 21.8752 10.5C21.462 10.5 21.1156 10.6438 20.8361 10.9313C20.5566 11.2188 20.4168 11.575 20.4168 12C20.4168 12.425 20.5566 12.7812 20.8361 13.0688C21.1156 13.3563 21.462 13.5 21.8752 13.5Z" fill="url(#paint0_linear_343_1452)"/>
<defs>
<linearGradient id="paint0_linear_343_1452" x1="17.5002" y1="4.5" x2="17.5002" y2="31.5" gradientUnits="userSpaceOnUse">
<stop stop-color="#B345D9"/>
<stop offset="1" stop-color="#DA4B7A"/>
</linearGradient>
</defs>
</svg>
