<svg width="45" height="47" viewBox="0 0 45 47" fill="none" xmlns="http://www.w3.org/2000/svg">
<path d="M3.75 45.0416V41.1249H41.25V45.0416H3.75ZM7.5 39.1666V27.4166C6.46875 25.6541 5.67188 23.7855 5.10938 21.8109C4.54688 19.8362 4.26562 17.8208 4.26562 15.7645C4.26562 13.7735 4.50781 11.8152 4.99219 9.8895C5.47656 7.96381 6.04688 6.07075 6.70312 4.21034C6.95312 3.52492 7.35938 2.97822 7.92188 2.57023C8.48438 2.16225 9.10938 1.95825 9.79688 1.95825C10.7656 1.95825 11.5938 2.30096 12.2812 2.98638C12.9688 3.67179 13.25 4.48777 13.125 5.43429L12.6094 9.8895C12.4219 11.4562 12.5547 12.9412 13.0078 14.3447C13.4609 15.7482 14.1406 16.9803 15.0469 18.0411C15.9531 19.1018 17.0469 19.9504 18.3281 20.5869C19.6094 21.2234 21 21.5416 22.5 21.5416C24.375 21.5416 26.2578 21.7456 28.1484 22.1536C30.0391 22.5616 31.6875 23.1409 33.0938 23.8916C34.5 24.6423 35.5859 25.597 36.3516 26.7556C37.1172 27.9143 37.5 29.3423 37.5 31.0395V39.1666H7.5ZM11.25 35.2499H33.75V31.0395C33.75 30.2562 33.5625 29.5626 33.1875 28.9588C32.8125 28.355 32.2812 27.8735 31.5938 27.5145C30.3125 26.8617 28.8281 26.3558 27.1406 25.9968C25.4531 25.6378 23.9062 25.4583 22.5 25.4583C20.4375 25.4583 18.5234 25.0176 16.7578 24.1364C14.9922 23.2551 13.4922 22.072 12.2578 20.5869C11.0234 19.1018 10.0938 17.3883 9.46875 15.4463C8.84375 13.5043 8.65625 11.4888 8.90625 9.39992C8.59375 10.3791 8.36719 11.4235 8.22656 12.5333C8.08594 13.643 8.01562 14.7201 8.01562 15.7645C8.01562 17.6576 8.33594 19.4772 8.97656 21.2234C9.61719 22.9695 10.375 24.6749 11.25 26.3395V35.2499ZM22.5 19.5833C20.4375 19.5833 18.6719 18.8162 17.2031 17.2822C15.7344 15.7482 15 13.9041 15 11.7499C15 9.59575 15.7344 7.75165 17.2031 6.21763C18.6719 4.6836 20.4375 3.91659 22.5 3.91659C24.5625 3.91659 26.3281 4.6836 27.7969 6.21763C29.2656 7.75165 30 9.59575 30 11.7499C30 13.9041 29.2656 15.7482 27.7969 17.2822C26.3281 18.8162 24.5625 19.5833 22.5 19.5833ZM22.5 15.6666C23.5312 15.6666 24.4141 15.2831 25.1484 14.5161C25.8828 13.7491 26.25 12.827 26.25 11.7499C26.25 10.6728 25.8828 9.75079 25.1484 8.98377C24.4141 8.21676 23.5312 7.83325 22.5 7.83325C21.4688 7.83325 20.5859 8.21676 19.8516 8.98377C19.1172 9.75079 18.75 10.6728 18.75 11.7499C18.75 12.827 19.1172 13.7491 19.8516 14.5161C20.5859 15.2831 21.4688 15.6666 22.5 15.6666ZM15 39.1666V37.3551C15 35.1683 15.7266 33.2916 17.1797 31.7249C18.6328 30.1583 20.4062 29.3749 22.5 29.3749H30V33.2916H22.5C21.4375 33.2916 20.5469 33.6914 19.8281 34.4911C19.1094 35.2907 18.75 36.2454 18.75 37.3551V39.1666H15Z" fill="white"/>
</svg>
