<svg width="43" height="44" viewBox="0 0 43 44" fill="none" xmlns="http://www.w3.org/2000/svg">
<path d="M14.02 42.1667C13.3033 42.1667 12.6165 42.0292 11.9596 41.7542C11.3026 41.4792 10.7203 41.082 10.2127 40.5626L1.0752 31.1667L2.55332 29.6084C2.97138 29.1806 3.47901 28.8904 4.07624 28.7376C4.67346 28.5848 5.27068 28.5848 5.8679 28.7376L8.95853 29.6542V14.6667C8.95853 14.1473 9.13023 13.7119 9.47363 13.3605C9.81704 13.0091 10.2426 12.8334 10.7502 12.8334C11.2578 12.8334 11.6834 13.0091 12.0268 13.3605C12.3702 13.7119 12.5419 14.1473 12.5419 14.6667V34.5126L8.15228 33.2292L12.7658 37.9501C12.945 38.1334 13.1391 38.2709 13.3481 38.3626C13.5571 38.4543 13.7811 38.5001 14.02 38.5001H21.5002C22.4856 38.5001 23.3292 38.1411 24.0309 37.423C24.7327 36.7049 25.0835 35.8417 25.0835 34.8334V27.5001C25.0835 26.9806 25.2552 26.5452 25.5986 26.1938C25.942 25.8424 26.3676 25.6667 26.8752 25.6667C27.3828 25.6667 27.8084 25.8424 28.1518 26.1938C28.4952 26.5452 28.6669 26.9806 28.6669 27.5001V34.8334C28.6669 36.8501 27.9651 38.5765 26.5617 40.0126C25.1582 41.4487 23.471 42.1667 21.5002 42.1667H14.02ZM14.3335 29.3334V22.0001C14.3335 21.4806 14.5052 21.0452 14.8486 20.6938C15.192 20.3424 15.6176 20.1667 16.1252 20.1667C16.6328 20.1667 17.0584 20.3424 17.4018 20.6938C17.7452 21.0452 17.9169 21.4806 17.9169 22.0001V29.3334H14.3335ZM19.7085 29.3334V23.8334C19.7085 23.314 19.8802 22.8786 20.2236 22.5272C20.567 22.1758 20.9926 22.0001 21.5002 22.0001C22.0078 22.0001 22.4334 22.1758 22.7768 22.5272C23.1202 22.8786 23.2919 23.314 23.2919 23.8334V29.3334H19.7085ZM28.6669 20.1667C25.9495 20.1667 23.4412 19.4334 21.1419 17.9667C18.8426 16.5001 17.1703 14.4834 16.1252 11.9167C17.1703 9.35008 18.8426 7.33341 21.1419 5.86675C23.4412 4.40008 25.9495 3.66675 28.6669 3.66675C31.3842 3.66675 33.8926 4.40008 36.1919 5.86675C38.4912 7.33341 40.1634 9.35008 41.2085 11.9167C40.1634 14.4834 38.4912 16.5001 36.1919 17.9667C33.8926 19.4334 31.3842 20.1667 28.6669 20.1667ZM28.6669 16.5001C30.3689 16.5001 31.974 16.1029 33.482 15.3084C34.99 14.514 36.2217 13.3834 37.1773 11.9167C36.2217 10.4501 34.99 9.31953 33.482 8.52508C31.974 7.73064 30.3689 7.33341 28.6669 7.33341C26.9648 7.33341 25.3597 7.73064 23.8518 8.52508C22.3438 9.31953 21.112 10.4501 20.1564 11.9167C21.112 13.3834 22.3438 14.514 23.8518 15.3084C25.3597 16.1029 26.9648 16.5001 28.6669 16.5001ZM28.6669 14.6667C27.9203 14.6667 27.2858 14.3994 26.7632 13.8647C26.2406 13.3299 25.9794 12.6806 25.9794 11.9167C25.9794 11.1529 26.2406 10.5036 26.7632 9.96883C27.2858 9.43411 27.9203 9.16675 28.6669 9.16675C29.4134 9.16675 30.0479 9.43411 30.5705 9.96883C31.0931 10.5036 31.3544 11.1529 31.3544 11.9167C31.3544 12.6806 31.0931 13.3299 30.5705 13.8647C30.0479 14.3994 29.4134 14.6667 28.6669 14.6667Z" fill="white"/>
</svg>
