<svg width="51" height="47" viewBox="0 0 51 47" fill="none" xmlns="http://www.w3.org/2000/svg">
<path d="M25.2341 39.1667C25.3758 39.1667 25.5175 39.1341 25.6591 39.0688C25.8008 39.0036 25.9071 38.9383 25.9779 38.873L43.4029 22.8147C43.8279 22.423 44.1378 21.9824 44.3326 21.4928C44.5274 21.0032 44.6248 20.5136 44.6248 20.024C44.6248 19.5018 44.5274 19.0041 44.3326 18.5308C44.1378 18.0575 43.8279 17.6414 43.4029 17.2824L34.3716 8.95946C33.9821 8.56779 33.5305 8.2822 33.017 8.10269C32.5034 7.92317 31.9633 7.83341 31.3966 7.83341C30.8654 7.83341 30.3341 7.92317 29.8029 8.10269C29.2716 8.2822 28.7935 8.56779 28.3685 8.95946L27.7841 9.498L31.7154 13.1699C32.2466 13.6268 32.6362 14.149 32.8841 14.7365C33.1321 15.324 33.256 15.9442 33.256 16.597C33.256 17.9678 32.7513 19.1183 31.742 20.0485C30.7326 20.9787 29.4841 21.4438 27.9966 21.4438C27.2883 21.4438 26.6065 21.3296 25.9513 21.1011C25.2961 20.8727 24.7206 20.5299 24.2248 20.073L20.2404 16.4501L10.9435 25.0178C10.8373 25.1157 10.7576 25.2218 10.7045 25.336C10.6513 25.4503 10.6248 25.5727 10.6248 25.7032C10.6248 25.9643 10.731 26.201 10.9435 26.4131C11.156 26.6253 11.4039 26.7313 11.6873 26.7313C11.8289 26.7313 11.9706 26.6987 12.1123 26.6334C12.2539 26.5681 12.3602 26.5029 12.431 26.4376L19.656 19.7792L22.631 22.5209L15.4591 29.1792C15.3529 29.2772 15.2732 29.3832 15.2201 29.4975C15.167 29.6117 15.1404 29.7341 15.1404 29.8647C15.1404 30.1258 15.2466 30.3542 15.4591 30.5501C15.6716 30.7459 15.9196 30.8438 16.2029 30.8438C16.3446 30.8438 16.4862 30.8112 16.6279 30.7459C16.7696 30.6806 16.8758 30.6154 16.9466 30.5501L24.1716 23.9407L27.1466 26.6824L19.9748 33.3407C19.8685 33.406 19.7888 33.5039 19.7357 33.6345C19.6826 33.765 19.656 33.8956 19.656 34.0261C19.656 34.2872 19.7623 34.5157 19.9748 34.7115C20.1873 34.9074 20.4352 35.0053 20.7185 35.0053C20.8602 35.0053 20.993 34.9808 21.117 34.9319C21.2409 34.8829 21.356 34.8095 21.4623 34.7115L28.6873 28.1022L31.6623 30.8438L24.4373 37.5022C24.331 37.6001 24.2513 37.7062 24.1982 37.8204C24.1451 37.9346 24.1185 38.057 24.1185 38.1876C24.1185 38.4487 24.2336 38.6772 24.4638 38.873C24.694 39.0688 24.9508 39.1667 25.2341 39.1667ZM25.181 43.0834C23.8706 43.0834 22.7107 42.6836 21.7013 41.8839C20.692 41.0843 20.0987 40.0806 19.9216 38.873C18.7175 38.7098 17.7081 38.2529 16.8935 37.5022C16.0789 36.7515 15.5831 35.8213 15.406 34.7115C14.2018 34.5483 13.2013 34.0832 12.4045 33.3162C11.6076 32.5492 11.1206 31.6272 10.9435 30.5501C9.59768 30.3869 8.49977 29.8483 7.64977 28.9345C6.79977 28.0206 6.37477 26.9435 6.37477 25.7032C6.37477 25.0504 6.50758 24.4221 6.7732 23.8183C7.03883 23.2145 7.41956 22.6841 7.91539 22.2272L20.2404 10.9178L27.1998 17.3313C27.2706 17.4292 27.3768 17.5027 27.5185 17.5516C27.6602 17.6006 27.8018 17.6251 27.9435 17.6251C28.2623 17.6251 28.5279 17.5353 28.7404 17.3558C28.9529 17.1763 29.0591 16.9397 29.0591 16.6459C29.0591 16.5154 29.0326 16.3848 28.9795 16.2542C28.9263 16.1237 28.8466 16.0258 28.7404 15.9605L21.1435 8.95946C20.7539 8.56779 20.3024 8.2822 19.7888 8.10269C19.2753 7.92317 18.7352 7.83341 18.1685 7.83341C17.6373 7.83341 17.106 7.92317 16.5748 8.10269C16.0435 8.2822 15.5654 8.56779 15.1404 8.95946L7.64977 15.9115C7.33102 16.2053 7.06539 16.548 6.85289 16.9397C6.64039 17.3313 6.49872 17.723 6.42789 18.1147C6.35706 18.5063 6.35706 18.9062 6.42789 19.3141C6.49872 19.7221 6.64039 20.1056 6.85289 20.4647L3.77164 23.3042C3.16956 22.5536 2.72685 21.7294 2.44352 20.8319C2.16018 19.9343 2.05393 19.0286 2.12477 18.1147C2.1956 17.2008 2.44352 16.3114 2.86852 15.4464C3.29352 14.5815 3.87789 13.8063 4.62164 13.1209L12.1123 6.21779C12.9623 5.4671 13.9097 4.89591 14.9545 4.50425C15.9992 4.11258 17.0706 3.91675 18.1685 3.91675C19.2664 3.91675 20.3378 4.11258 21.3826 4.50425C22.4274 4.89591 23.3571 5.4671 24.1716 6.21779L24.756 6.75633L25.3404 6.21779C26.1904 5.4671 27.1378 4.89591 28.1826 4.50425C29.2274 4.11258 30.2987 3.91675 31.3966 3.91675C32.4946 3.91675 33.5659 4.11258 34.6107 4.50425C35.6555 4.89591 36.5852 5.4671 37.3998 6.21779L46.3779 14.4917C47.1925 15.2424 47.8123 16.1074 48.2373 17.0865C48.6623 18.0657 48.8748 19.0612 48.8748 20.073C48.8748 21.0848 48.6623 22.0721 48.2373 23.035C47.8123 23.9978 47.1925 24.8546 46.3779 25.6053L28.9529 41.6147C28.4571 42.0716 27.8815 42.4306 27.2263 42.6917C26.5711 42.9529 25.8893 43.0834 25.181 43.0834Z" fill="white" fill-opacity="0.93"/>
</svg>
