<svg width="35" height="33" viewBox="0 0 35 33" fill="none" xmlns="http://www.w3.org/2000/svg">
<path d="M16.078 28.875V25.9188C14.7898 25.6438 13.6778 25.1167 12.742 24.3375C11.8063 23.5583 11.1196 22.4583 10.6821 21.0375L13.38 20.0063C13.7446 21.1063 14.2854 21.9427 15.0024 22.5156C15.7195 23.0885 16.6613 23.375 17.828 23.375C18.8245 23.375 19.6691 23.163 20.3618 22.7391C21.0545 22.3151 21.4009 21.6562 21.4009 20.7625C21.4009 19.9604 21.1335 19.3245 20.5988 18.8547C20.0641 18.3849 18.8245 17.8521 16.88 17.2563C14.7898 16.6375 13.3557 15.8984 12.578 15.0391C11.8002 14.1797 11.4113 13.1313 11.4113 11.8938C11.4113 10.4042 11.9217 9.24688 12.9425 8.42188C13.9634 7.59688 15.0085 7.12708 16.078 7.0125V4.125H18.9946V7.0125C20.2099 7.19583 21.2125 7.61406 22.0024 8.26719C22.7924 8.92031 23.3696 9.71667 23.7342 10.6562L21.0363 11.7563C20.7446 11.0229 20.3314 10.4729 19.7967 10.1063C19.262 9.73958 18.5328 9.55625 17.6092 9.55625C16.5398 9.55625 15.7255 9.77969 15.1665 10.2266C14.6075 10.6734 14.328 11.2292 14.328 11.8938C14.328 12.65 14.6925 13.2458 15.4217 13.6813C16.1509 14.1167 17.4148 14.575 19.2134 15.0563C20.8905 15.5146 22.1604 16.2422 23.0233 17.2391C23.8861 18.2359 24.3175 19.3875 24.3175 20.6938C24.3175 22.3208 23.8071 23.5583 22.7863 24.4062C21.7655 25.2542 20.5016 25.7812 18.9946 25.9875V28.875H16.078Z" fill="url(#paint0_linear_343_1454)"/>
<defs>
<linearGradient id="paint0_linear_343_1454" x1="17.4998" y1="4.125" x2="17.4998" y2="28.875" gradientUnits="userSpaceOnUse">
<stop stop-color="#B345D9"/>
<stop offset="1" stop-color="#DA4B7A"/>
</linearGradient>
</defs>
</svg>
