<svg width="483" height="422" viewBox="0 0 483 422" fill="none" xmlns="http://www.w3.org/2000/svg">
<rect width="483" height="422" fill="url(#paint0_linear_342_1159)"/>
<path d="M173 294V247.889C173 242.817 174.677 238.475 178.03 234.862C181.384 231.25 185.416 229.444 190.125 229.444H292.875C297.584 229.444 301.616 231.25 304.97 234.862C308.323 238.475 310 242.817 310 247.889V294H173ZM215.812 220.222C203.968 220.222 193.871 215.726 185.523 206.735C177.174 197.743 173 186.869 173 174.111C173 161.354 177.174 150.479 185.523 141.487C193.871 132.496 203.968 128 215.812 128H267.187C279.032 128 289.129 132.496 297.477 141.487C305.826 150.479 310 161.354 310 174.111C310 186.869 305.826 197.743 297.477 206.735C289.129 215.726 279.032 220.222 267.187 220.222H215.812ZM190.125 275.556H292.875V247.889H190.125V275.556ZM215.812 201.778H267.187C274.323 201.778 280.388 199.088 285.383 193.708C290.378 188.329 292.875 181.796 292.875 174.111C292.875 166.426 290.378 159.894 285.383 154.514C280.388 149.134 274.323 146.444 267.187 146.444H215.812C208.677 146.444 202.612 149.134 197.617 154.514C192.622 159.894 190.125 166.426 190.125 174.111C190.125 181.796 192.622 188.329 197.617 193.708C202.612 199.088 208.677 201.778 215.812 201.778ZM215.812 183.333C218.239 183.333 220.272 182.45 221.913 180.682C223.554 178.914 224.375 176.724 224.375 174.111C224.375 171.498 223.554 169.308 221.913 167.54C220.272 165.773 218.239 164.889 215.812 164.889C213.386 164.889 211.353 165.773 209.712 167.54C208.071 169.308 207.25 171.498 207.25 174.111C207.25 176.724 208.071 178.914 209.712 180.682C211.353 182.45 213.386 183.333 215.812 183.333ZM267.187 183.333C269.614 183.333 271.647 182.45 273.288 180.682C274.929 178.914 275.75 176.724 275.75 174.111C275.75 171.498 274.929 169.308 273.288 167.54C271.647 165.773 269.614 164.889 267.187 164.889C264.761 164.889 262.728 165.773 261.087 167.54C259.446 169.308 258.625 171.498 258.625 174.111C258.625 176.724 259.446 178.914 261.087 180.682C262.728 182.45 264.761 183.333 267.187 183.333Z" fill="white"/>
<defs>
<linearGradient id="paint0_linear_342_1159" x1="241.5" y1="0" x2="241.5" y2="422" gradientUnits="userSpaceOnUse">
<stop stop-color="#DA4B7A"/>
<stop offset="1" stop-color="#B345D9"/>
</linearGradient>
</defs>
</svg>
