<svg width="356" height="636" viewBox="0 0 356 636" fill="none" xmlns="http://www.w3.org/2000/svg">
<rect opacity="0.4" x="34" y="9" width="288" height="568" rx="51.2" fill="url(#paint0_linear_764_18)"/>
<rect x="38" y="13" width="280" height="560" rx="48" fill="white"/>
<g filter="url(#filter0_dd_764_18)">
<rect x="38" y="13" width="280" height="560" rx="48" fill="white" fill-opacity="0.01" shape-rendering="crispEdges"/>
</g>
<g clip-path="url(#clip0_764_18)">
<rect x="50" y="25" width="256" height="536" rx="40" fill="url(#paint1_linear_764_18)"/>
<g opacity="0.8" filter="url(#filter1_f_764_18)">
<rect x="126.8" y="-28.59" width="204.8" height="268" fill="url(#paint2_radial_764_18)"/>
</g>
<g opacity="0.6" filter="url(#filter2_f_764_18)">
<rect x="-1.18994" y="293" width="256" height="321.59" fill="url(#paint3_radial_764_18)"/>
</g>
<g opacity="0.4" filter="url(#filter3_f_764_18)">
<rect x="101.19" y="239.39" width="153.59" height="214.39" fill="url(#paint4_radial_764_18)"/>
</g>
<foreignObject x="50" y="69" width="256" height="80"><div xmlns="http://www.w3.org/1999/xhtml" style="backdrop-filter:blur(10px);clip-path:url(#bgblur_1_764_18_clip_path);height:100%;width:100%"></div></foreignObject><g data-figma-bg-blur-radius="20">
<rect x="70" y="89" width="216" height="40" rx="20" fill="white" fill-opacity="0.15"/>
<rect x="70.5" y="89.5" width="215" height="39" rx="19.5" stroke="white" stroke-opacity="0.1"/>
<g filter="url(#filter5_dd_764_18)">
<rect x="70" y="89" width="216" height="40" rx="20" fill="white" fill-opacity="0.01" shape-rendering="crispEdges"/>
</g>
<path d="M84.5 116.875C84.0875 116.875 83.7344 116.728 83.4406 116.434C83.1469 116.141 83 115.788 83 115.375V107.875C83 107.463 83.1469 107.109 83.4406 106.816C83.7344 106.522 84.0875 106.375 84.5 106.375H85.25V104.875C85.25 103.838 85.6156 102.953 86.3469 102.222C87.0781 101.491 87.9625 101.125 89 101.125C90.0375 101.125 90.9219 101.491 91.6531 102.222C92.3844 102.953 92.75 103.838 92.75 104.875V106.375H93.5C93.9125 106.375 94.2656 106.522 94.5594 106.816C94.8531 107.109 95 107.463 95 107.875V115.375C95 115.788 94.8531 116.141 94.5594 116.434C94.2656 116.728 93.9125 116.875 93.5 116.875H84.5ZM84.5 115.375H93.5V107.875H84.5V115.375ZM89 113.125C89.4125 113.125 89.7656 112.978 90.0594 112.684C90.3531 112.391 90.5 112.038 90.5 111.625C90.5 111.212 90.3531 110.859 90.0594 110.566C89.7656 110.272 89.4125 110.125 89 110.125C88.5875 110.125 88.2344 110.272 87.9406 110.566C87.6469 110.859 87.5 111.212 87.5 111.625C87.5 112.038 87.6469 112.391 87.9406 112.684C88.2344 112.978 88.5875 113.125 89 113.125ZM86.75 106.375H91.25V104.875C91.25 104.25 91.0312 103.719 90.5938 103.281C90.1562 102.844 89.625 102.625 89 102.625C88.375 102.625 87.8438 102.844 87.4062 103.281C86.9688 103.719 86.75 104.25 86.75 104.875V106.375ZM84.5 115.375V107.875V115.375Z" fill="white" fill-opacity="0.7"/>
<path d="M114.947 109.119V113H113.658V104.27H114.936V108.053H114.767C114.957 107.467 115.234 107.04 115.596 106.771C115.959 106.502 116.398 106.367 116.913 106.367C117.359 106.367 117.749 106.461 118.085 106.648C118.42 106.834 118.681 107.111 118.867 107.477C119.053 107.844 119.145 108.297 119.145 108.838V113H117.852V108.998C117.852 108.527 117.729 108.157 117.483 107.89C117.237 107.623 116.901 107.489 116.472 107.489C116.182 107.489 115.921 107.553 115.69 107.68C115.46 107.807 115.278 107.992 115.145 108.235C115.013 108.477 114.947 108.772 114.947 109.119ZM123.109 113.082C122.664 113.082 122.274 112.989 121.938 112.802C121.602 112.615 121.341 112.337 121.155 111.969C120.969 111.602 120.876 111.149 120.876 110.611V106.449H122.165V110.451C122.165 110.922 122.289 111.292 122.536 111.559C122.784 111.826 123.121 111.96 123.55 111.96C123.841 111.96 124.101 111.896 124.33 111.769C124.559 111.642 124.739 111.456 124.872 111.212C125.004 110.967 125.071 110.674 125.071 110.331V106.449H126.364V113H125.131L125.122 111.396H125.25C125.057 111.988 124.777 112.417 124.411 112.683C124.045 112.949 123.611 113.082 123.109 113.082ZM130.447 113.136C129.972 113.136 129.55 113.068 129.182 112.93C128.813 112.793 128.51 112.59 128.274 112.323C128.037 112.056 127.88 111.729 127.802 111.345L129.016 111.091C129.107 111.432 129.275 111.684 129.52 111.846C129.764 112.009 130.077 112.09 130.457 112.09C130.873 112.09 131.204 112.004 131.45 111.831C131.696 111.658 131.818 111.449 131.818 111.205C131.818 110.996 131.743 110.824 131.591 110.687C131.44 110.55 131.208 110.447 130.896 110.378L129.793 110.129C129.187 109.992 128.735 109.773 128.438 109.473C128.141 109.174 127.993 108.788 127.993 108.317C127.993 107.928 128.101 107.587 128.318 107.294C128.535 107.002 128.834 106.774 129.215 106.611C129.596 106.449 130.033 106.367 130.526 106.367C130.999 106.367 131.403 106.436 131.739 106.574C132.075 106.711 132.347 106.902 132.557 107.147C132.766 107.391 132.916 107.676 133.008 108L131.852 108.256C131.769 108.025 131.627 107.822 131.424 107.647C131.222 107.472 130.927 107.385 130.54 107.385C130.183 107.385 129.885 107.465 129.647 107.625C129.409 107.786 129.289 107.99 129.289 108.239C129.289 108.455 129.369 108.631 129.528 108.767C129.687 108.902 129.946 109.011 130.304 109.092L131.357 109.327C131.964 109.463 132.414 109.678 132.707 109.972C133.001 110.266 133.147 110.641 133.147 111.096C133.147 111.495 133.033 111.847 132.805 112.154C132.577 112.46 132.26 112.701 131.854 112.875C131.448 113.049 130.979 113.136 130.447 113.136ZM135.847 109.119V113H134.558V104.27H135.836V108.053H135.667C135.857 107.467 136.134 107.04 136.497 106.771C136.86 106.502 137.298 106.367 137.814 106.367C138.259 106.367 138.65 106.461 138.985 106.648C139.32 106.834 139.581 107.111 139.767 107.477C139.953 107.844 140.046 108.297 140.046 108.838V113H138.752V108.998C138.752 108.527 138.629 108.157 138.384 107.89C138.138 107.623 137.801 107.489 137.373 107.489C137.082 107.489 136.821 107.553 136.591 107.68C136.36 107.807 136.178 107.992 136.046 108.235C135.913 108.477 135.847 108.772 135.847 109.119ZM143.066 109.119V113H141.777V104.27H143.055V108.053H142.886C143.076 107.467 143.353 107.04 143.715 106.771C144.078 106.502 144.517 106.367 145.032 106.367C145.478 106.367 145.868 106.461 146.204 106.648C146.539 106.834 146.8 107.111 146.986 107.477C147.172 107.844 147.265 108.297 147.265 108.838V113H145.971V108.998C145.971 108.527 145.848 108.157 145.602 107.89C145.357 107.623 145.02 107.489 144.591 107.489C144.301 107.489 144.04 107.553 143.809 107.68C143.579 107.807 143.397 107.992 143.265 108.235C143.132 108.477 143.066 108.772 143.066 109.119ZM149.949 113.088C149.708 113.088 149.503 113.004 149.335 112.837C149.167 112.67 149.083 112.466 149.083 112.225C149.083 111.984 149.167 111.781 149.335 111.613C149.503 111.446 149.708 111.362 149.949 111.362C150.19 111.362 150.395 111.446 150.563 111.613C150.731 111.781 150.815 111.984 150.815 112.225C150.815 112.466 150.731 112.67 150.563 112.837C150.395 113.004 150.19 113.088 149.949 113.088ZM154.467 113.144C154.052 113.144 153.678 113.067 153.342 112.914C153.007 112.761 152.742 112.536 152.546 112.239C152.351 111.941 152.253 111.578 152.253 111.147C152.253 110.775 152.324 110.47 152.468 110.232C152.612 109.994 152.805 109.805 153.047 109.666C153.29 109.526 153.561 109.421 153.86 109.351C154.159 109.281 154.464 109.227 154.775 109.191C155.162 109.144 155.476 109.106 155.717 109.077C155.959 109.048 156.137 108.999 156.253 108.931C156.368 108.862 156.426 108.751 156.426 108.598V108.565C156.426 108.32 156.379 108.113 156.285 107.944C156.191 107.774 156.051 107.644 155.864 107.553C155.678 107.463 155.446 107.417 155.169 107.417C154.886 107.417 154.642 107.461 154.438 107.549C154.234 107.637 154.067 107.749 153.939 107.884C153.811 108.02 153.716 108.162 153.653 108.311L152.44 107.999C152.589 107.606 152.802 107.291 153.08 107.052C153.357 106.814 153.675 106.64 154.034 106.531C154.393 106.422 154.765 106.367 155.151 106.367C155.414 106.367 155.694 106.399 155.991 106.462C156.288 106.525 156.567 106.638 156.828 106.801C157.089 106.964 157.303 107.195 157.468 107.493C157.633 107.791 157.715 108.177 157.715 108.651V113H156.468V112.103H156.402C156.317 112.272 156.191 112.437 156.023 112.597C155.855 112.757 155.643 112.888 155.386 112.99C155.129 113.093 154.823 113.144 154.467 113.144ZM154.753 112.112C155.106 112.112 155.407 112.043 155.656 111.905C155.906 111.766 156.097 111.585 156.231 111.359C156.364 111.134 156.43 110.895 156.43 110.641V109.799C156.384 109.845 156.295 109.887 156.164 109.925C156.033 109.963 155.884 109.996 155.717 110.026C155.551 110.055 155.389 110.079 155.231 110.1C155.073 110.12 154.944 110.137 154.844 110.149C154.603 110.18 154.382 110.232 154.18 110.306C153.978 110.38 153.818 110.486 153.699 110.622C153.58 110.759 153.521 110.94 153.521 111.165C153.521 111.373 153.574 111.547 153.681 111.687C153.788 111.827 153.933 111.933 154.118 112.004C154.303 112.076 154.515 112.112 154.753 112.112ZM159.449 113V106.449H160.738V113H159.449ZM160.097 105.45C159.876 105.45 159.686 105.375 159.526 105.225C159.367 105.074 159.287 104.894 159.287 104.684C159.287 104.47 159.367 104.288 159.526 104.14C159.686 103.992 159.876 103.918 160.097 103.918C160.321 103.918 160.513 103.992 160.672 104.14C160.831 104.288 160.911 104.47 160.911 104.684C160.911 104.894 160.831 105.075 160.672 105.225C160.513 105.375 160.321 105.45 160.097 105.45ZM165.808 103.859L162.995 114.312H161.839L164.652 103.859H165.808ZM166.908 115.449V106.449H168.163V107.516H168.27C168.346 107.38 168.454 107.222 168.592 107.042C168.731 106.863 168.924 106.706 169.173 106.57C169.422 106.435 169.751 106.367 170.158 106.367C170.685 106.367 171.153 106.5 171.564 106.766C171.975 107.031 172.3 107.416 172.538 107.92C172.776 108.424 172.895 109.03 172.895 109.74C172.895 110.446 172.778 111.052 172.544 111.557C172.309 112.063 171.986 112.452 171.575 112.723C171.164 112.994 170.691 113.13 170.159 113.13C169.764 113.13 169.441 113.062 169.19 112.927C168.938 112.792 168.742 112.634 168.599 112.454C168.457 112.274 168.347 112.114 168.27 111.975H168.197V115.449H166.908ZM169.873 112.032C170.248 112.032 170.563 111.93 170.816 111.727C171.069 111.524 171.259 111.248 171.387 110.901C171.515 110.553 171.579 110.163 171.579 109.73C171.579 109.301 171.516 108.915 171.39 108.574C171.263 108.232 171.073 107.962 170.82 107.764C170.568 107.565 170.252 107.466 169.873 107.466C169.504 107.466 169.194 107.56 168.941 107.749C168.689 107.938 168.498 108.202 168.37 108.54C168.241 108.878 168.176 109.275 168.176 109.73C168.176 110.185 168.242 110.585 168.372 110.93C168.502 111.276 168.695 111.546 168.949 111.74C169.203 111.935 169.511 112.032 169.873 112.032ZM174.326 113V106.449H175.573V107.501H175.643C175.764 107.145 175.975 106.866 176.276 106.662C176.577 106.459 176.92 106.358 177.302 106.358C177.385 106.358 177.479 106.361 177.586 106.367C177.692 106.373 177.779 106.38 177.847 106.389V107.619C177.801 107.605 177.711 107.59 177.578 107.574C177.444 107.558 177.309 107.55 177.172 107.55C176.875 107.55 176.607 107.613 176.371 107.739C176.135 107.865 175.949 108.038 175.815 108.259C175.681 108.48 175.615 108.734 175.615 109.023V113H174.326ZM181.492 113.136C180.878 113.136 180.341 112.996 179.883 112.714C179.425 112.432 179.069 112.038 178.816 111.53C178.563 111.023 178.436 110.433 178.436 109.761C178.436 109.08 178.563 108.485 178.816 107.976C179.069 107.467 179.425 107.071 179.883 106.79C180.341 106.508 180.878 106.367 181.492 106.367C182.11 106.367 182.649 106.508 183.108 106.79C183.567 107.071 183.923 107.467 184.176 107.976C184.43 108.485 184.556 109.08 184.556 109.761C184.556 110.433 184.43 111.023 184.176 111.53C183.923 112.038 183.567 112.432 183.108 112.714C182.649 112.996 182.11 113.136 181.492 113.136ZM181.492 112.046C181.891 112.046 182.22 111.942 182.48 111.733C182.741 111.524 182.934 111.246 183.06 110.9C183.186 110.553 183.249 110.173 183.249 109.759C183.249 109.342 183.186 108.959 183.06 108.61C182.934 108.261 182.741 107.982 182.48 107.772C182.22 107.562 181.891 107.457 181.492 107.457C181.096 107.457 180.77 107.562 180.512 107.772C180.255 107.982 180.063 108.26 179.937 108.608C179.811 108.955 179.748 109.339 179.748 109.759C179.748 110.173 179.811 110.553 179.937 110.9C180.063 111.246 180.255 111.524 180.512 111.733C180.77 111.942 181.096 112.046 181.492 112.046ZM188.421 113.13C187.892 113.13 187.421 112.994 187.007 112.723C186.594 112.452 186.27 112.063 186.036 111.557C185.801 111.052 185.684 110.446 185.684 109.74C185.684 109.03 185.803 108.424 186.041 107.92C186.279 107.416 186.605 107.031 187.018 106.766C187.431 106.5 187.899 106.367 188.421 106.367C188.829 106.367 189.157 106.435 189.406 106.57C189.655 106.706 189.85 106.863 189.99 107.042C190.131 107.222 190.237 107.38 190.309 107.516H190.383V104.27H191.672V113H190.416V111.975H190.309C190.236 112.114 190.127 112.274 189.983 112.454C189.839 112.634 189.642 112.792 189.393 112.927C189.143 113.062 188.819 113.13 188.421 113.13ZM188.707 112.032C189.072 112.032 189.381 111.935 189.633 111.74C189.886 111.546 190.077 111.276 190.207 110.93C190.338 110.585 190.403 110.185 190.403 109.73C190.403 109.275 190.339 108.878 190.21 108.54C190.081 108.202 189.89 107.938 189.638 107.749C189.386 107.56 189.075 107.466 188.707 107.466C188.328 107.466 188.013 107.565 187.76 107.764C187.506 107.962 187.316 108.232 187.19 108.574C187.063 108.915 187 109.301 187 109.73C187 110.163 187.064 110.553 187.192 110.901C187.32 111.248 187.512 111.524 187.767 111.727C188.022 111.93 188.335 112.032 188.707 112.032ZM195.636 113.082C195.191 113.082 194.801 112.989 194.465 112.802C194.129 112.615 193.869 112.337 193.683 111.969C193.497 111.602 193.404 111.149 193.404 110.611V106.449H194.693V110.451C194.693 110.922 194.816 111.292 195.064 111.559C195.311 111.826 195.649 111.96 196.077 111.96C196.368 111.96 196.628 111.896 196.857 111.769C197.086 111.642 197.267 111.456 197.399 111.212C197.532 110.967 197.598 110.674 197.598 110.331V106.449H198.892V113H197.658L197.65 111.396H197.777C197.584 111.988 197.305 112.417 196.939 112.683C196.573 112.949 196.138 113.082 195.636 113.082ZM203.376 113.136C202.761 113.136 202.225 112.996 201.767 112.714C201.309 112.432 200.954 112.038 200.701 111.53C200.447 111.023 200.321 110.433 200.321 109.761C200.321 109.08 200.447 108.485 200.701 107.976C200.954 107.467 201.309 107.071 201.767 106.79C202.225 106.508 202.761 106.367 203.376 106.367C203.717 106.367 204.036 106.411 204.333 106.5C204.629 106.588 204.898 106.715 205.137 106.881C205.376 107.046 205.579 107.249 205.746 107.488C205.913 107.727 206.036 107.998 206.117 108.3L204.897 108.594C204.853 108.425 204.787 108.271 204.697 108.132C204.608 107.993 204.499 107.873 204.371 107.772C204.243 107.671 204.096 107.593 203.93 107.539C203.764 107.484 203.582 107.457 203.382 107.457C202.986 107.457 202.659 107.561 202.401 107.77C202.143 107.978 201.951 108.256 201.823 108.603C201.696 108.951 201.633 109.336 201.633 109.759C201.633 110.176 201.696 110.557 201.823 110.903C201.951 111.25 202.143 111.527 202.401 111.735C202.659 111.942 202.986 112.046 203.382 112.046C203.585 112.046 203.771 112.018 203.94 111.962C204.109 111.905 204.26 111.825 204.391 111.72C204.522 111.615 204.633 111.49 204.722 111.344C204.812 111.197 204.878 111.036 204.921 110.861L206.136 111.153C206.059 111.463 205.936 111.74 205.768 111.984C205.599 112.227 205.395 112.435 205.154 112.608C204.914 112.78 204.643 112.912 204.343 113.001C204.043 113.091 203.72 113.136 203.376 113.136ZM210.352 106.449V107.497H206.799V106.449H210.352ZM207.756 104.891H209.045V111.228C209.045 111.493 209.1 111.687 209.21 111.809C209.32 111.932 209.503 111.994 209.759 111.994C209.826 111.994 209.914 111.986 210.023 111.97C210.132 111.954 210.226 111.938 210.304 111.922L210.533 112.955C210.395 113.001 210.247 113.034 210.091 113.054C209.934 113.075 209.781 113.085 209.631 113.085C209.034 113.085 208.572 112.932 208.246 112.627C207.919 112.321 207.756 111.891 207.756 111.334V104.891ZM213.879 113.136C213.404 113.136 212.982 113.068 212.613 112.93C212.245 112.793 211.942 112.59 211.705 112.323C211.468 112.056 211.311 111.729 211.234 111.345L212.448 111.091C212.539 111.432 212.707 111.684 212.951 111.846C213.196 112.009 213.508 112.09 213.888 112.09C214.305 112.09 214.636 112.004 214.881 111.831C215.127 111.658 215.25 111.449 215.25 111.205C215.25 110.996 215.174 110.824 215.023 110.687C214.871 110.55 214.639 110.447 214.327 110.378L213.225 110.129C212.618 109.992 212.167 109.773 211.87 109.473C211.573 109.174 211.425 108.788 211.425 108.317C211.425 107.928 211.533 107.587 211.75 107.294C211.967 107.002 212.266 106.774 212.646 106.611C213.027 106.449 213.464 106.367 213.958 106.367C214.43 106.367 214.835 106.436 215.171 106.574C215.506 106.711 215.779 106.902 215.988 107.147C216.197 107.391 216.348 107.676 216.44 108L215.284 108.256C215.201 108.025 215.058 107.822 214.856 107.647C214.654 107.472 214.359 107.385 213.971 107.385C213.614 107.385 213.317 107.465 213.078 107.625C212.84 107.786 212.721 107.99 212.721 108.239C212.721 108.455 212.801 108.631 212.96 108.767C213.119 108.902 213.378 109.011 213.736 109.092L214.789 109.327C215.396 109.463 215.846 109.678 216.139 109.972C216.432 110.266 216.579 110.641 216.579 111.096C216.579 111.495 216.465 111.847 216.237 112.154C216.009 112.46 215.692 112.701 215.286 112.875C214.88 113.049 214.411 113.136 213.879 113.136ZM221.325 103.859L218.513 114.312H217.357L220.169 103.859H221.325ZM222.425 115.449V106.449H223.681V107.516H223.788C223.864 107.38 223.971 107.222 224.11 107.042C224.248 106.863 224.442 106.706 224.691 106.57C224.94 106.435 225.268 106.367 225.676 106.367C226.202 106.367 226.671 106.5 227.082 106.766C227.493 107.031 227.818 107.416 228.056 107.92C228.294 108.424 228.413 109.03 228.413 109.74C228.413 110.446 228.296 111.052 228.061 111.557C227.827 112.063 227.504 112.452 227.093 112.723C226.681 112.994 226.209 113.13 225.676 113.13C225.282 113.13 224.959 113.062 224.707 112.927C224.456 112.792 224.259 112.634 224.117 112.454C223.974 112.274 223.865 112.114 223.788 111.975H223.714V115.449H222.425ZM225.39 112.032C225.766 112.032 226.08 111.93 226.333 111.727C226.586 111.524 226.777 111.248 226.905 110.901C227.033 110.553 227.097 110.163 227.097 109.73C227.097 109.301 227.034 108.915 226.907 108.574C226.781 108.232 226.591 107.962 226.338 107.764C226.085 107.565 225.769 107.466 225.39 107.466C225.022 107.466 224.711 107.56 224.459 107.749C224.207 107.938 224.016 108.202 223.887 108.54C223.758 108.878 223.694 109.275 223.694 109.73C223.694 110.185 223.759 110.585 223.89 110.93C224.02 111.276 224.212 111.546 224.466 111.74C224.72 111.935 225.028 112.032 225.39 112.032ZM232.278 113.13C231.749 113.13 231.278 112.994 230.865 112.723C230.451 112.452 230.128 112.063 229.893 111.557C229.659 111.052 229.542 110.446 229.542 109.74C229.542 109.03 229.661 108.424 229.899 107.92C230.137 107.416 230.462 107.031 230.875 106.766C231.288 106.5 231.756 106.367 232.279 106.367C232.686 106.367 233.015 106.435 233.264 106.57C233.513 106.706 233.707 106.863 233.848 107.042C233.988 107.222 234.094 107.38 234.167 107.516H234.24V104.27H235.529V113H234.273V111.975H234.167C234.093 112.114 233.984 112.274 233.84 112.454C233.696 112.634 233.499 112.792 233.25 112.927C233 113.062 232.677 113.13 232.278 113.13ZM232.564 112.032C232.93 112.032 233.238 111.935 233.491 111.74C233.743 111.546 233.934 111.276 234.065 110.93C234.195 110.585 234.261 110.185 234.261 109.73C234.261 109.275 234.196 108.878 234.067 108.54C233.938 108.202 233.748 107.938 233.496 107.749C233.243 107.56 232.933 107.466 232.564 107.466C232.186 107.466 231.87 107.565 231.617 107.764C231.364 107.962 231.174 108.232 231.047 108.574C230.921 108.915 230.858 109.301 230.858 109.73C230.858 110.163 230.922 110.553 231.05 110.901C231.178 111.248 231.369 111.524 231.624 111.727C231.879 111.93 232.192 112.032 232.564 112.032ZM239.094 113.144C238.679 113.144 238.304 113.067 237.969 112.914C237.634 112.761 237.369 112.536 237.173 112.239C236.978 111.941 236.88 111.578 236.88 111.147C236.88 110.775 236.951 110.47 237.095 110.232C237.238 109.994 237.432 109.805 237.674 109.666C237.917 109.526 238.188 109.421 238.487 109.351C238.786 109.281 239.091 109.227 239.402 109.191C239.789 109.144 240.102 109.106 240.344 109.077C240.586 109.048 240.764 108.999 240.88 108.931C240.995 108.862 241.053 108.751 241.053 108.598V108.565C241.053 108.32 241.006 108.113 240.912 107.944C240.818 107.774 240.678 107.644 240.491 107.553C240.305 107.463 240.073 107.417 239.796 107.417C239.513 107.417 239.269 107.461 239.065 107.549C238.861 107.637 238.694 107.749 238.566 107.884C238.438 108.02 238.343 108.162 238.28 108.311L237.067 107.999C237.216 107.606 237.429 107.291 237.707 107.052C237.984 106.814 238.302 106.64 238.661 106.531C239.02 106.422 239.392 106.367 239.778 106.367C240.041 106.367 240.321 106.399 240.618 106.462C240.915 106.525 241.194 106.638 241.455 106.801C241.716 106.964 241.93 107.195 242.095 107.493C242.26 107.791 242.342 108.177 242.342 108.651V113H241.095V112.103H241.029C240.944 112.272 240.818 112.437 240.65 112.597C240.482 112.757 240.27 112.888 240.013 112.99C239.756 113.093 239.45 113.144 239.094 113.144ZM239.38 112.112C239.733 112.112 240.034 112.043 240.283 111.905C240.533 111.766 240.724 111.585 240.858 111.359C240.991 111.134 241.057 110.895 241.057 110.641V109.799C241.011 109.845 240.922 109.887 240.791 109.925C240.66 109.963 240.511 109.996 240.344 110.026C240.178 110.055 240.016 110.079 239.858 110.1C239.7 110.12 239.571 110.137 239.471 110.149C239.23 110.18 239.009 110.232 238.807 110.306C238.605 110.38 238.445 110.486 238.326 110.622C238.207 110.759 238.148 110.94 238.148 111.165C238.148 111.373 238.201 111.547 238.308 111.687C238.415 111.827 238.56 111.933 238.745 112.004C238.93 112.076 239.142 112.112 239.38 112.112Z" fill="white" fill-opacity="0.9"/>
</g>
<g filter="url(#filter6_dd_764_18)">
<path d="M123.741 271.719V295H118.966V271.719H123.741ZM128.68 281.413L128.21 271.719H132.726L132.256 281.413H128.68ZM137.087 295V277.531H141.441L141.668 281.876H141.331C141.593 280.799 141.989 279.922 142.519 279.246C143.048 278.57 143.668 278.072 144.378 277.751C145.087 277.43 145.831 277.269 146.609 277.269C147.863 277.269 148.876 277.668 149.649 278.467C150.421 279.265 150.989 280.496 151.354 282.161H150.81C151.069 281.038 151.494 280.116 152.085 279.393C152.677 278.67 153.374 278.136 154.178 277.789C154.981 277.443 155.829 277.269 156.723 277.269C157.789 277.269 158.742 277.502 159.581 277.968C160.42 278.433 161.081 279.108 161.565 279.99C162.048 280.873 162.29 281.949 162.29 283.219V295H157.604V284.115C157.604 283.125 157.337 282.388 156.803 281.906C156.269 281.423 155.613 281.182 154.833 281.182C154.243 281.182 153.731 281.311 153.298 281.569C152.866 281.826 152.534 282.184 152.302 282.642C152.071 283.099 151.955 283.636 151.955 284.252V295H147.422V283.986C147.422 283.13 147.169 282.448 146.664 281.942C146.159 281.435 145.504 281.182 144.7 281.182C144.152 281.182 143.656 281.308 143.212 281.562C142.768 281.815 142.417 282.182 142.159 282.663C141.901 283.145 141.773 283.737 141.773 284.439V295H137.087ZM172.147 301.185L173.22 297.65L173.796 297.804C174.43 297.967 174.991 298.012 175.476 297.938C175.962 297.865 176.353 297.667 176.649 297.344C176.945 297.022 177.124 296.57 177.186 295.99L177.323 295.052L170.761 277.531H175.738L178.672 286.6C179.034 287.745 179.327 288.889 179.55 290.034C179.773 291.178 180.027 292.373 180.312 293.621H179.222C179.507 292.373 179.789 291.174 180.068 290.021C180.347 288.869 180.673 287.729 181.047 286.6L184.122 277.531H189.041L181.622 297.061C181.268 297.999 180.814 298.813 180.26 299.502C179.706 300.191 179.018 300.722 178.196 301.096C177.374 301.469 176.377 301.656 175.205 301.656C174.587 301.656 174.006 301.611 173.461 301.522C172.917 301.432 172.479 301.319 172.147 301.185ZM197.974 295.341C196.222 295.341 194.706 294.965 193.426 294.212C192.146 293.459 191.16 292.407 190.468 291.056C189.776 289.704 189.43 288.133 189.43 286.341C189.43 284.535 189.776 282.955 190.468 281.602C191.16 280.248 192.146 279.195 193.426 278.442C194.706 277.689 196.222 277.312 197.974 277.312C199.731 277.312 201.247 277.689 202.524 278.442C203.801 279.195 204.785 280.248 205.477 281.602C206.169 282.955 206.515 284.535 206.515 286.341C206.515 288.133 206.169 289.704 205.477 291.056C204.785 292.407 203.801 293.459 202.524 294.212C201.247 294.965 199.731 295.341 197.974 295.341ZM197.974 291.653C198.808 291.653 199.505 291.421 200.066 290.957C200.626 290.494 201.047 289.86 201.327 289.056C201.607 288.251 201.747 287.341 201.747 286.324C201.747 285.298 201.607 284.384 201.327 283.583C201.047 282.782 200.626 282.152 200.066 281.691C199.505 281.231 198.808 281.001 197.974 281.001C197.139 281.001 196.442 281.231 195.883 281.691C195.325 282.152 194.905 282.781 194.625 283.579C194.345 284.378 194.205 285.293 194.205 286.324C194.205 287.341 194.345 288.251 194.625 289.056C194.905 289.86 195.325 290.494 195.883 290.957C196.442 291.421 197.139 291.653 197.974 291.653ZM214.995 295.219C213.79 295.219 212.735 294.955 211.83 294.429C210.926 293.902 210.225 293.147 209.727 292.162C209.229 291.177 208.981 290.004 208.981 288.642V277.531H213.666V287.825C213.666 288.91 213.947 289.761 214.509 290.378C215.072 290.995 215.847 291.304 216.835 291.304C217.499 291.304 218.085 291.159 218.592 290.871C219.098 290.582 219.497 290.164 219.787 289.615C220.076 289.067 220.221 288.41 220.221 287.646V277.531H224.914V295H220.482L220.415 290.639H220.689C220.226 292.106 219.525 293.236 218.587 294.029C217.648 294.822 216.451 295.219 214.995 295.219ZM228.102 295V277.531H232.644V280.573H232.831C233.149 279.496 233.685 278.681 234.44 278.128C235.195 277.575 236.062 277.298 237.042 277.298C237.284 277.298 237.544 277.312 237.822 277.339C238.1 277.366 238.345 277.405 238.557 277.455V281.641C238.35 281.57 238.047 281.512 237.649 281.467C237.251 281.423 236.878 281.401 236.532 281.401C235.816 281.401 235.174 281.556 234.606 281.865C234.037 282.175 233.592 282.603 233.271 283.151C232.949 283.698 232.788 284.334 232.788 285.058V295H228.102ZM114.304 336.531V312.531H118.913V315.472H119.141C119.356 315.007 119.663 314.531 120.062 314.043C120.461 313.555 120.99 313.145 121.648 312.812C122.306 312.479 123.13 312.312 124.119 312.312C125.414 312.312 126.597 312.646 127.667 313.313C128.737 313.981 129.594 314.98 130.238 316.312C130.883 317.645 131.205 319.306 131.205 321.296C131.205 323.234 130.892 324.872 130.267 326.209C129.642 327.547 128.793 328.561 127.721 329.253C126.648 329.945 125.438 330.291 124.093 330.291C123.146 330.291 122.344 330.13 121.686 329.809C121.029 329.488 120.496 329.091 120.086 328.618C119.676 328.144 119.361 327.673 119.141 327.204H118.99V336.531H114.304ZM122.65 326.535C123.468 326.535 124.154 326.311 124.708 325.863C125.263 325.415 125.683 324.795 125.968 324.002C126.253 323.21 126.396 322.303 126.396 321.281C126.396 320.259 126.255 319.356 125.972 318.573C125.689 317.79 125.27 317.177 124.716 316.734C124.161 316.29 123.473 316.069 122.65 316.069C121.847 316.069 121.165 316.283 120.605 316.712C120.044 317.141 119.619 317.745 119.328 318.523C119.037 319.301 118.891 320.22 118.891 321.281C118.891 322.331 119.038 323.249 119.331 324.037C119.625 324.824 120.053 325.437 120.616 325.876C121.178 326.315 121.856 326.535 122.65 326.535ZM141.577 330.341C139.793 330.341 138.256 329.976 136.965 329.246C135.673 328.515 134.681 327.478 133.989 326.135C133.296 324.791 132.95 323.198 132.95 321.356C132.95 319.558 133.294 317.982 133.982 316.625C134.67 315.269 135.643 314.211 136.902 313.452C138.16 312.692 139.64 312.312 141.341 312.312C142.482 312.312 143.548 312.494 144.539 312.858C145.53 313.221 146.4 313.77 147.148 314.503C147.897 315.235 148.481 316.156 148.902 317.265C149.323 318.374 149.533 319.677 149.533 321.173V322.489H134.873V319.54H147.249L145.059 320.331C145.059 319.421 144.92 318.631 144.643 317.959C144.365 317.288 143.953 316.767 143.408 316.397C142.863 316.027 142.185 315.842 141.375 315.842C140.565 315.842 139.878 316.029 139.313 316.404C138.749 316.779 138.319 317.288 138.025 317.931C137.73 318.573 137.583 319.304 137.583 320.122V322.198C137.583 323.209 137.752 324.057 138.09 324.745C138.428 325.432 138.904 325.948 139.517 326.294C140.131 326.639 140.842 326.812 141.651 326.812C142.198 326.812 142.695 326.734 143.142 326.578C143.589 326.422 143.974 326.192 144.296 325.887C144.618 325.581 144.863 325.205 145.031 324.757L149.268 325.541C148.986 326.506 148.497 327.348 147.801 328.069C147.104 328.789 146.232 329.347 145.183 329.745C144.134 330.142 142.932 330.341 141.577 330.341ZM151.938 330V312.531H156.48V315.573H156.667C156.985 314.496 157.521 313.681 158.276 313.128C159.031 312.575 159.898 312.298 160.878 312.298C161.12 312.298 161.38 312.312 161.658 312.339C161.936 312.366 162.181 312.405 162.393 312.455V316.641C162.185 316.57 161.883 316.512 161.485 316.467C161.087 316.423 160.714 316.401 160.368 316.401C159.652 316.401 159.01 316.556 158.442 316.865C157.873 317.175 157.428 317.603 157.106 318.151C156.785 318.698 156.624 319.334 156.624 320.058V330H151.938ZM171.111 330.341C169.705 330.341 168.46 330.14 167.376 329.738C166.292 329.335 165.407 328.752 164.721 327.989C164.035 327.225 163.591 326.304 163.388 325.226L167.756 324.475C167.984 325.287 168.383 325.896 168.955 326.302C169.527 326.708 170.291 326.911 171.249 326.911C172.141 326.911 172.847 326.74 173.365 326.399C173.884 326.059 174.143 325.627 174.143 325.105C174.143 324.647 173.959 324.273 173.591 323.981C173.222 323.69 172.654 323.465 171.885 323.307L168.877 322.687C167.193 322.34 165.934 321.753 165.101 320.928C164.268 320.102 163.852 319.035 163.852 317.727C163.852 316.609 164.157 315.646 164.768 314.838C165.378 314.03 166.232 313.407 167.33 312.969C168.427 312.531 169.711 312.312 171.182 312.312C172.565 312.312 173.762 312.503 174.772 312.885C175.782 313.267 176.598 313.806 177.22 314.5C177.841 315.195 178.26 316.019 178.475 316.971L174.317 317.703C174.134 317.107 173.79 316.619 173.286 316.241C172.782 315.863 172.106 315.674 171.256 315.674C170.485 315.674 169.838 315.836 169.317 316.16C168.796 316.485 168.535 316.913 168.535 317.445C168.535 317.883 168.704 318.254 169.04 318.557C169.377 318.86 169.957 319.098 170.781 319.27L173.919 319.895C175.61 320.237 176.867 320.796 177.692 321.574C178.518 322.352 178.93 323.365 178.93 324.614C178.93 325.759 178.596 326.76 177.928 327.619C177.26 328.478 176.339 329.146 175.164 329.624C173.99 330.102 172.639 330.341 171.111 330.341ZM189.11 330.341C187.358 330.341 185.842 329.965 184.562 329.212C183.282 328.459 182.296 327.407 181.604 326.056C180.912 324.704 180.566 323.133 180.566 321.341C180.566 319.535 180.912 317.955 181.604 316.602C182.296 315.248 183.282 314.195 184.562 313.442C185.842 312.689 187.358 312.312 189.11 312.312C190.867 312.312 192.383 312.689 193.66 313.442C194.937 314.195 195.921 315.248 196.613 316.602C197.305 317.955 197.651 319.535 197.651 321.341C197.651 323.133 197.305 324.704 196.613 326.056C195.921 327.407 194.937 328.459 193.66 329.212C192.383 329.965 190.867 330.341 189.11 330.341ZM189.11 326.653C189.944 326.653 190.641 326.421 191.202 325.957C191.762 325.494 192.183 324.86 192.463 324.056C192.743 323.251 192.883 322.341 192.883 321.324C192.883 320.298 192.743 319.384 192.463 318.583C192.183 317.782 191.762 317.152 191.202 316.691C190.641 316.231 189.944 316.001 189.11 316.001C188.275 316.001 187.578 316.231 187.019 316.691C186.461 317.152 186.041 317.781 185.761 318.579C185.481 319.378 185.341 320.293 185.341 321.324C185.341 322.341 185.481 323.251 185.761 324.056C186.041 324.86 186.461 325.494 187.019 325.957C187.578 326.421 188.275 326.653 189.11 326.653ZM204.802 319.886V330H200.117V312.531H204.541L204.616 316.892H204.335C204.793 315.435 205.489 314.308 206.423 313.51C207.356 312.712 208.561 312.312 210.035 312.312C211.246 312.312 212.301 312.576 213.201 313.102C214.1 313.629 214.799 314.383 215.296 315.366C215.794 316.348 216.043 317.523 216.043 318.889V330H211.357V319.706C211.357 318.621 211.077 317.77 210.518 317.153C209.958 316.536 209.184 316.228 208.196 316.228C207.537 316.228 206.952 316.372 206.44 316.661C205.928 316.949 205.527 317.365 205.237 317.908C204.947 318.452 204.802 319.111 204.802 319.886ZM224.121 330.339C223.011 330.339 222.017 330.143 221.138 329.752C220.26 329.36 219.569 328.778 219.066 328.004C218.562 327.23 218.311 326.267 218.311 325.116C218.311 324.138 218.489 323.323 218.846 322.67C219.202 322.017 219.69 321.491 220.309 321.092C220.928 320.693 221.632 320.39 222.42 320.182C223.208 319.974 224.034 319.829 224.897 319.747C225.905 319.646 226.719 319.55 227.338 319.46C227.958 319.37 228.413 319.23 228.702 319.039C228.992 318.847 229.136 318.564 229.136 318.187V318.11C229.136 317.612 229.031 317.19 228.819 316.845C228.607 316.5 228.298 316.236 227.891 316.052C227.485 315.869 226.985 315.777 226.392 315.777C225.794 315.777 225.272 315.868 224.825 316.049C224.377 316.231 224.011 316.474 223.725 316.777C223.44 317.081 223.234 317.421 223.109 317.799L218.811 317.086C219.107 316.068 219.604 315.205 220.303 314.497C221.001 313.788 221.869 313.247 222.907 312.873C223.945 312.499 225.111 312.312 226.406 312.312C227.344 312.312 228.256 312.424 229.141 312.646C230.026 312.868 230.821 313.216 231.525 313.688C232.229 314.161 232.788 314.773 233.202 315.523C233.615 316.273 233.822 317.179 233.822 318.24V330H229.377V327.574H229.224C228.941 328.116 228.566 328.594 228.098 329.009C227.629 329.425 227.066 329.75 226.407 329.986C225.749 330.221 224.986 330.339 224.121 330.339ZM225.44 327.053C226.178 327.053 226.826 326.906 227.385 326.612C227.943 326.318 228.38 325.922 228.696 325.423C229.012 324.924 229.17 324.368 229.17 323.755V321.865C229.028 321.961 228.817 322.051 228.538 322.135C228.26 322.219 227.949 322.294 227.606 322.361C227.263 322.427 226.925 322.485 226.591 322.534C226.256 322.582 225.96 322.625 225.7 322.662C225.124 322.74 224.618 322.872 224.181 323.058C223.745 323.244 223.405 323.493 223.164 323.805C222.922 324.117 222.801 324.508 222.801 324.978C222.801 325.43 222.915 325.81 223.144 326.118C223.372 326.426 223.683 326.658 224.079 326.816C224.474 326.974 224.928 327.053 225.44 327.053ZM241.702 306.719V330H237.017V306.719H241.702ZM106.842 366.291C105.507 366.291 104.3 365.945 103.222 365.253C102.144 364.561 101.292 363.547 100.667 362.209C100.042 360.872 99.7299 359.234 99.7299 357.296C99.7299 355.306 100.052 353.645 100.696 352.312C101.341 350.98 102.2 349.981 103.276 349.313C104.351 348.646 105.531 348.312 106.816 348.312C107.805 348.312 108.628 348.479 109.287 348.812C109.945 349.145 110.476 349.555 110.881 350.043C111.285 350.531 111.589 351.007 111.794 351.472H111.945V342.719H116.631V366H112.022V363.204H111.794C111.578 363.673 111.264 364.144 110.852 364.618C110.44 365.091 109.908 365.488 109.256 365.809C108.604 366.13 107.799 366.291 106.842 366.291ZM108.285 362.535C109.083 362.535 109.762 362.315 110.323 361.876C110.883 361.437 111.31 360.824 111.604 360.037C111.897 359.249 112.044 358.331 112.044 357.281C112.044 356.22 111.898 355.301 111.607 354.523C111.316 353.745 110.89 353.141 110.33 352.712C109.77 352.283 109.088 352.069 108.285 352.069C107.468 352.069 106.781 352.29 106.223 352.734C105.666 353.177 105.246 353.79 104.963 354.573C104.68 355.356 104.539 356.259 104.539 357.281C104.539 358.303 104.681 359.21 104.967 360.002C105.252 360.795 105.675 361.415 106.234 361.863C106.794 362.311 107.477 362.535 108.285 362.535ZM124.71 366.339C123.6 366.339 122.606 366.143 121.727 365.752C120.849 365.36 120.158 364.778 119.655 364.004C119.152 363.23 118.9 362.267 118.9 361.116C118.9 360.138 119.078 359.323 119.435 358.67C119.791 358.017 120.279 357.491 120.898 357.092C121.517 356.693 122.221 356.39 123.009 356.182C123.797 355.974 124.623 355.829 125.486 355.747C126.494 355.646 127.308 355.55 127.927 355.46C128.547 355.37 129.002 355.23 129.291 355.039C129.581 354.847 129.726 354.564 129.726 354.187V354.11C129.726 353.612 129.62 353.19 129.408 352.845C129.196 352.5 128.887 352.236 128.48 352.052C128.074 351.869 127.574 351.777 126.981 351.777C126.384 351.777 125.861 351.868 125.414 352.049C124.966 352.231 124.6 352.474 124.314 352.777C124.029 353.081 123.824 353.421 123.698 353.799L119.4 353.086C119.696 352.068 120.193 351.205 120.892 350.497C121.59 349.788 122.458 349.247 123.496 348.873C124.534 348.499 125.7 348.312 126.995 348.312C127.933 348.312 128.845 348.424 129.73 348.646C130.615 348.868 131.41 349.216 132.114 349.688C132.818 350.161 133.377 350.773 133.791 351.523C134.204 352.273 134.411 353.179 134.411 354.24V366H129.966V363.574H129.813C129.53 364.116 129.155 364.594 128.687 365.009C128.218 365.425 127.655 365.75 126.996 365.986C126.338 366.221 125.575 366.339 124.71 366.339ZM126.029 363.053C126.767 363.053 127.415 362.906 127.974 362.612C128.532 362.318 128.969 361.922 129.285 361.423C129.601 360.924 129.759 360.368 129.759 359.755V357.865C129.617 357.961 129.406 358.051 129.127 358.135C128.849 358.219 128.538 358.294 128.195 358.361C127.852 358.427 127.514 358.485 127.18 358.534C126.846 358.582 126.549 358.625 126.289 358.662C125.713 358.74 125.207 358.872 124.77 359.058C124.334 359.244 123.995 359.493 123.753 359.805C123.511 360.117 123.39 360.508 123.39 360.978C123.39 361.43 123.504 361.81 123.733 362.118C123.961 362.426 124.272 362.658 124.668 362.816C125.063 362.974 125.517 363.053 126.029 363.053ZM146.286 348.531V352.102H135.922V348.531H146.286ZM138.327 344.375H143.013V360.887C143.013 361.443 143.137 361.853 143.384 362.116C143.632 362.38 144.038 362.512 144.603 362.512C144.786 362.512 145.038 362.49 145.359 362.445C145.68 362.401 145.924 362.358 146.091 362.316L146.762 365.83C146.24 365.985 145.722 366.093 145.209 366.153C144.696 366.214 144.203 366.244 143.732 366.244C141.98 366.244 140.641 365.819 139.715 364.969C138.79 364.118 138.327 362.895 138.327 361.299V344.375ZM153.563 366.339C152.453 366.339 151.459 366.143 150.58 365.752C149.702 365.36 149.011 364.778 148.508 364.004C148.005 363.23 147.753 362.267 147.753 361.116C147.753 360.138 147.931 359.323 148.288 358.67C148.644 358.017 149.132 357.491 149.751 357.092C150.371 356.693 151.074 356.39 151.862 356.182C152.65 355.974 153.476 355.829 154.339 355.747C155.347 355.646 156.161 355.55 156.78 355.46C157.4 355.37 157.855 355.23 158.144 355.039C158.434 354.847 158.579 354.564 158.579 354.187V354.11C158.579 353.612 158.473 353.19 158.261 352.845C158.049 352.5 157.74 352.236 157.333 352.052C156.927 351.869 156.427 351.777 155.834 351.777C155.237 351.777 154.714 351.868 154.267 352.049C153.819 352.231 153.453 352.474 153.168 352.777C152.882 353.081 152.677 353.421 152.551 353.799L148.253 353.086C148.549 352.068 149.046 351.205 149.745 350.497C150.443 349.788 151.312 349.247 152.349 348.873C153.387 348.499 154.553 348.312 155.848 348.312C156.786 348.312 157.698 348.424 158.583 348.646C159.469 348.868 160.263 349.216 160.967 349.688C161.671 350.161 162.23 350.773 162.644 351.523C163.058 352.273 163.264 353.179 163.264 354.24V366H158.82V363.574H158.666C158.384 364.116 158.008 364.594 157.54 365.009C157.071 365.425 156.508 365.75 155.849 365.986C155.191 366.221 154.429 366.339 153.563 366.339ZM154.882 363.053C155.62 363.053 156.269 362.906 156.827 362.612C157.385 362.318 157.823 361.922 158.139 361.423C158.454 360.924 158.612 360.368 158.612 359.755V357.865C158.47 357.961 158.259 358.051 157.981 358.135C157.702 358.219 157.391 358.294 157.048 358.361C156.705 358.427 156.367 358.485 156.033 358.534C155.699 358.582 155.402 358.625 155.142 358.662C154.566 358.74 154.06 358.872 153.623 359.058C153.187 359.244 152.848 359.493 152.606 359.805C152.364 360.117 152.244 360.508 152.244 360.978C152.244 361.43 152.358 361.81 152.586 362.118C152.814 362.426 153.126 362.658 153.521 362.816C153.916 362.974 154.37 363.053 154.882 363.053ZM178.119 366.339C177.009 366.339 176.015 366.143 175.137 365.752C174.258 365.36 173.567 364.778 173.064 364.004C172.561 363.23 172.309 362.267 172.309 361.116C172.309 360.138 172.488 359.323 172.844 358.67C173.2 358.017 173.688 357.491 174.308 357.092C174.927 356.693 175.631 356.39 176.419 356.182C177.207 355.974 178.032 355.829 178.895 355.747C179.903 355.646 180.717 355.55 181.337 355.46C181.956 355.37 182.411 355.23 182.701 355.039C182.99 354.847 183.135 354.564 183.135 354.187V354.11C183.135 353.612 183.029 353.19 182.817 352.845C182.606 352.5 182.296 352.236 181.89 352.052C181.483 351.869 180.983 351.777 180.39 351.777C179.793 351.777 179.271 351.868 178.823 352.049C178.376 352.231 178.009 352.474 177.724 352.777C177.438 353.081 177.233 353.421 177.107 353.799L172.809 353.086C173.105 352.068 173.603 351.205 174.301 350.497C175 349.788 175.868 349.247 176.905 348.873C177.943 348.499 179.109 348.312 180.405 348.312C181.342 348.312 182.254 348.424 183.139 348.646C184.025 348.868 184.82 349.216 185.523 349.688C186.227 350.161 186.786 350.773 187.2 351.523C187.614 352.273 187.821 353.179 187.821 354.24V366H183.376V363.574H183.222C182.94 364.116 182.564 364.594 182.096 365.009C181.628 365.425 181.064 365.75 180.406 365.986C179.747 366.221 178.985 366.339 178.119 366.339ZM179.439 363.053C180.177 363.053 180.825 362.906 181.383 362.612C181.942 362.318 182.379 361.922 182.695 361.423C183.011 360.924 183.169 360.368 183.169 359.755V357.865C183.026 357.961 182.815 358.051 182.537 358.135C182.258 358.219 181.948 358.294 181.605 358.361C181.262 358.427 180.923 358.485 180.589 358.534C180.255 358.582 179.958 358.625 179.698 358.662C179.123 358.74 178.616 358.872 178.18 359.058C177.743 359.244 177.404 359.493 177.162 359.805C176.921 360.117 176.8 360.508 176.8 360.978C176.8 361.43 176.914 361.81 177.142 362.118C177.37 362.426 177.682 362.658 178.077 362.816C178.473 362.974 178.926 363.053 179.439 363.053ZM198.777 372.906C197.322 372.906 196.054 372.722 194.974 372.355C193.893 371.987 193.014 371.481 192.335 370.835C191.657 370.189 191.189 369.45 190.931 368.618L194.959 367.504C195.108 367.826 195.334 368.141 195.64 368.449C195.945 368.756 196.352 369.008 196.861 369.205C197.37 369.401 198.003 369.5 198.76 369.5C199.953 369.5 200.892 369.225 201.576 368.677C202.261 368.128 202.603 367.276 202.603 366.12V362.907H202.236C202.027 363.375 201.724 363.827 201.328 364.263C200.933 364.699 200.414 365.056 199.773 365.335C199.132 365.613 198.339 365.753 197.394 365.753C196.083 365.753 194.89 365.444 193.814 364.828C192.739 364.211 191.883 363.273 191.245 362.014C190.608 360.754 190.289 359.162 190.289 357.238C190.289 355.267 190.614 353.621 191.264 352.298C191.913 350.976 192.777 349.981 193.854 349.313C194.932 348.646 196.116 348.312 197.406 348.312C198.391 348.312 199.214 348.478 199.878 348.808C200.541 349.139 201.079 349.549 201.492 350.039C201.904 350.53 202.218 351.007 202.432 351.472H202.622V348.531H207.238V365.854C207.238 367.427 206.876 368.737 206.151 369.783C205.426 370.829 204.427 371.611 203.155 372.129C201.884 372.647 200.424 372.906 198.777 372.906ZM198.859 362.189C199.662 362.189 200.343 361.992 200.901 361.598C201.458 361.203 201.884 360.633 202.177 359.888C202.471 359.142 202.617 358.25 202.617 357.209C202.617 356.172 202.472 355.27 202.181 354.501C201.89 353.733 201.466 353.135 200.908 352.709C200.35 352.282 199.667 352.069 198.859 352.069C198.041 352.069 197.353 352.289 196.793 352.73C196.234 353.171 195.811 353.777 195.526 354.548C195.241 355.319 195.098 356.206 195.098 357.209C195.098 358.222 195.242 359.102 195.53 359.85C195.817 360.598 196.241 361.174 196.801 361.58C197.36 361.986 198.046 362.189 198.859 362.189ZM218.334 366.341C216.551 366.341 215.014 365.976 213.722 365.246C212.431 364.515 211.439 363.478 210.747 362.135C210.054 360.791 209.708 359.198 209.708 357.356C209.708 355.558 210.052 353.982 210.74 352.625C211.428 351.269 212.401 350.211 213.66 349.452C214.918 348.692 216.398 348.312 218.099 348.312C219.24 348.312 220.306 348.494 221.297 348.858C222.288 349.221 223.158 349.77 223.906 350.503C224.655 351.235 225.239 352.156 225.66 353.265C226.08 354.374 226.291 355.677 226.291 357.173V358.489H211.631V355.54H224.007L221.817 356.331C221.817 355.421 221.678 354.631 221.4 353.959C221.123 353.288 220.711 352.767 220.166 352.397C219.621 352.027 218.943 351.842 218.133 351.842C217.323 351.842 216.635 352.029 216.071 352.404C215.507 352.779 215.077 353.288 214.783 353.931C214.488 354.573 214.341 355.304 214.341 356.122V358.198C214.341 359.209 214.51 360.057 214.848 360.745C215.186 361.432 215.662 361.948 216.275 362.294C216.888 362.639 217.6 362.812 218.409 362.812C218.956 362.812 219.453 362.734 219.9 362.578C220.347 362.422 220.732 362.192 221.054 361.887C221.376 361.581 221.621 361.205 221.789 360.757L226.026 361.541C225.744 362.506 225.255 363.348 224.558 364.069C223.862 364.789 222.989 365.347 221.941 365.745C220.892 366.142 219.69 366.341 218.334 366.341ZM233.382 355.886V366H228.696V348.531H233.121L233.195 352.892H232.914C233.373 351.435 234.069 350.308 235.002 349.51C235.936 348.712 237.14 348.312 238.615 348.312C239.826 348.312 240.881 348.576 241.781 349.102C242.68 349.629 243.379 350.383 243.876 351.366C244.374 352.348 244.623 353.523 244.623 354.889V366H239.937V355.706C239.937 354.621 239.657 353.77 239.097 353.153C238.538 352.536 237.764 352.228 236.776 352.228C236.117 352.228 235.531 352.372 235.019 352.661C234.507 352.949 234.106 353.365 233.817 353.908C233.527 354.452 233.382 355.111 233.382 355.886ZM256.499 348.531V352.102H246.134V348.531H256.499ZM248.54 344.375H253.226V360.887C253.226 361.443 253.349 361.853 253.597 362.116C253.844 362.38 254.25 362.512 254.816 362.512C254.998 362.512 255.25 362.49 255.571 362.445C255.892 362.401 256.137 362.358 256.304 362.316L256.975 365.83C256.452 365.985 255.935 366.093 255.421 366.153C254.908 366.214 254.416 366.244 253.944 366.244C252.192 366.244 250.853 365.819 249.928 364.969C249.003 364.118 248.54 362.895 248.54 361.299V344.375Z" fill="white"/>
</g>
<g filter="url(#filter7_dd_764_18)">
<path d="M81.0617 401.359V413H79.2764V401.359H81.0617ZM89.4873 407.825V413H87.7689V401.359H89.4733V406.404H89.2479C89.5014 405.623 89.87 405.053 90.3537 404.694C90.8375 404.336 91.4227 404.156 92.1095 404.156C92.7037 404.156 93.2243 404.281 93.6715 404.53C94.1187 404.779 94.4662 405.148 94.7141 405.636C94.962 406.125 95.0859 406.729 95.0859 407.45V413H93.3611V407.665C93.3611 407.036 93.1972 406.543 92.8696 406.187C92.5419 405.831 92.0926 405.652 91.5217 405.652C91.1341 405.652 90.7865 405.737 90.479 405.907C90.1714 406.077 89.9292 406.323 89.7525 406.646C89.5757 406.969 89.4873 407.362 89.4873 407.825ZM101.159 413.182C100.299 413.182 99.5574 412.996 98.9342 412.624C98.311 412.253 97.8314 411.731 97.4955 411.059C97.1596 410.387 96.9917 409.599 96.9917 408.695C96.9917 407.798 97.1567 407.009 97.4866 406.328C97.8166 405.647 98.2834 405.115 98.8872 404.732C99.491 404.348 100.199 404.156 101.01 404.156C101.509 404.156 101.991 404.238 102.457 404.401C102.923 404.564 103.34 404.82 103.71 405.17C104.079 405.519 104.372 405.972 104.588 406.529C104.804 407.085 104.912 407.757 104.912 408.545V409.154H97.9476V407.871H104.026L103.223 408.295C103.223 407.761 103.14 407.29 102.974 406.881C102.808 406.472 102.562 406.153 102.235 405.923C101.908 405.693 101.501 405.578 101.016 405.578C100.53 405.578 100.115 405.695 99.7709 405.929C99.4268 406.164 99.1643 406.472 98.9833 406.856C98.8022 407.239 98.7117 407.657 98.7117 408.109V408.981C98.7117 409.58 98.8145 410.087 99.0202 410.502C99.2259 410.917 99.5144 411.23 99.8857 411.442C100.257 411.654 100.687 411.76 101.176 411.76C101.497 411.76 101.788 411.714 102.05 411.622C102.312 411.531 102.537 411.392 102.726 411.208C102.915 411.023 103.06 410.795 103.161 410.522L104.774 410.903C104.637 411.355 104.402 411.753 104.071 412.095C103.74 412.437 103.328 412.704 102.835 412.895C102.343 413.086 101.784 413.182 101.159 413.182ZM108.511 401.359V413H106.792V401.359H108.511ZM110.824 416.266V404.266H112.498V405.688H112.64C112.742 405.506 112.885 405.296 113.07 405.057C113.254 404.817 113.512 404.607 113.844 404.427C114.176 404.246 114.614 404.156 115.157 404.156C115.859 404.156 116.484 404.333 117.032 404.688C117.581 405.042 118.013 405.555 118.331 406.227C118.648 406.898 118.807 407.707 118.807 408.653C118.807 409.595 118.651 410.402 118.338 411.077C118.026 411.751 117.595 412.269 117.047 412.631C116.498 412.993 115.869 413.173 115.158 413.173C114.632 413.173 114.202 413.083 113.866 412.903C113.531 412.723 113.269 412.512 113.079 412.272C112.889 412.032 112.743 411.819 112.64 411.633H112.542V416.266H110.824ZM114.777 411.709C115.278 411.709 115.697 411.573 116.034 411.303C116.371 411.032 116.625 410.665 116.796 410.201C116.967 409.737 117.052 409.217 117.052 408.641C117.052 408.067 116.968 407.553 116.799 407.098C116.631 406.643 116.378 406.283 116.041 406.018C115.703 405.753 115.282 405.621 114.777 405.621C114.286 405.621 113.872 405.747 113.535 405.999C113.199 406.251 112.945 406.602 112.773 407.053C112.601 407.504 112.515 408.033 112.515 408.641C112.515 409.246 112.602 409.779 112.776 410.24C112.95 410.702 113.206 411.062 113.545 411.32C113.883 411.579 114.294 411.709 114.777 411.709ZM124.866 416.14L125.284 414.739L125.479 414.79C125.776 414.866 126.043 414.887 126.28 414.852C126.517 414.817 126.723 414.707 126.897 414.521C127.072 414.335 127.211 414.055 127.315 413.681L127.505 413.04L124.187 404.266H126.042L127.771 409.23C127.963 409.782 128.123 410.331 128.251 410.875C128.378 411.42 128.516 411.963 128.664 412.505H128.139C128.287 411.963 128.43 411.419 128.569 410.871C128.707 410.323 128.872 409.776 129.063 409.23L130.825 404.266H132.666L128.872 414.213C128.695 414.679 128.478 415.069 128.221 415.383C127.963 415.698 127.657 415.934 127.301 416.091C126.945 416.249 126.533 416.328 126.063 416.328C125.793 416.328 125.552 416.308 125.34 416.269C125.128 416.23 124.97 416.187 124.866 416.14ZM137.551 413.182C136.731 413.182 136.016 412.994 135.405 412.619C134.794 412.243 134.32 411.717 133.982 411.041C133.645 410.364 133.476 409.578 133.476 408.682C133.476 407.773 133.645 406.98 133.982 406.301C134.32 405.622 134.794 405.095 135.405 404.719C136.016 404.344 136.731 404.156 137.551 404.156C138.375 404.156 139.093 404.344 139.705 404.719C140.317 405.095 140.792 405.622 141.13 406.301C141.467 406.98 141.636 407.773 141.636 408.682C141.636 409.578 141.467 410.364 141.13 411.041C140.792 411.717 140.317 412.243 139.705 412.619C139.093 412.994 138.375 413.182 137.551 413.182ZM137.551 411.729C138.082 411.729 138.522 411.589 138.869 411.311C139.215 411.032 139.473 410.662 139.641 410.199C139.809 409.737 139.894 409.23 139.894 408.679C139.894 408.122 139.809 407.612 139.641 407.147C139.473 406.682 139.215 406.309 138.869 406.029C138.522 405.749 138.082 405.61 137.551 405.61C137.023 405.61 136.587 405.749 136.244 406.029C135.901 406.309 135.646 406.681 135.477 407.143C135.309 407.606 135.225 408.118 135.225 408.679C135.225 409.23 135.309 409.737 135.477 410.199C135.646 410.662 135.901 411.032 136.244 411.311C136.587 411.589 137.023 411.729 137.551 411.729ZM146.519 413.109C145.926 413.109 145.405 412.985 144.957 412.736C144.51 412.486 144.162 412.116 143.914 411.626C143.666 411.135 143.542 410.532 143.542 409.815V404.266H145.261V409.601C145.261 410.23 145.426 410.722 145.755 411.079C146.085 411.435 146.536 411.613 147.107 411.613C147.495 411.613 147.842 411.528 148.147 411.359C148.452 411.189 148.693 410.941 148.869 410.616C149.046 410.29 149.135 409.898 149.135 409.441V404.266H150.859V413H149.215L149.203 410.862H149.374C149.116 411.651 148.743 412.223 148.255 412.578C147.767 412.932 147.188 413.109 146.519 413.109ZM160.409 413.109C159.816 413.109 159.296 412.985 158.848 412.736C158.4 412.486 158.053 412.116 157.805 411.626C157.557 411.135 157.433 410.532 157.433 409.815V404.266H159.151V409.601C159.151 410.23 159.316 410.722 159.646 411.079C159.976 411.435 160.426 411.613 160.997 411.613C161.386 411.613 161.732 411.528 162.037 411.359C162.342 411.189 162.583 410.941 162.76 410.616C162.937 410.29 163.025 409.898 163.025 409.441V404.266H164.75V413H163.105L163.094 410.862H163.265C163.007 411.651 162.634 412.223 162.146 412.578C161.658 412.932 161.079 413.109 160.409 413.109ZM170.796 404.266V405.663H166.059V404.266H170.796ZM167.335 402.188H169.053V410.637C169.053 410.99 169.127 411.249 169.274 411.413C169.421 411.576 169.665 411.658 170.005 411.658C170.095 411.658 170.212 411.648 170.358 411.626C170.503 411.605 170.628 411.584 170.733 411.563L171.037 412.94C170.853 413.001 170.656 413.045 170.448 413.072C170.239 413.1 170.034 413.114 169.834 413.114C169.039 413.114 168.423 412.91 167.988 412.503C167.552 412.095 167.335 411.521 167.335 410.779V402.188ZM172.503 413V404.266H174.222V413H172.503ZM173.367 402.933C173.073 402.933 172.819 402.833 172.607 402.633C172.394 402.433 172.288 402.192 172.288 401.912C172.288 401.626 172.394 401.385 172.607 401.187C172.819 400.99 173.073 400.891 173.367 400.891C173.666 400.891 173.922 400.989 174.134 401.187C174.347 401.384 174.453 401.626 174.453 401.912C174.453 402.192 174.347 402.433 174.134 402.633C173.922 402.833 173.666 402.933 173.367 402.933ZM178.253 401.359V413H176.535V401.359H178.253ZM180.566 413V404.266H182.284V413H180.566ZM181.43 402.933C181.135 402.933 180.882 402.833 180.669 402.633C180.457 402.433 180.351 402.192 180.351 401.912C180.351 401.626 180.457 401.385 180.669 401.187C180.882 400.99 181.135 400.891 181.43 400.891C181.729 400.891 181.984 400.989 182.197 401.187C182.409 401.384 182.516 401.626 182.516 401.912C182.516 402.192 182.409 402.433 182.197 402.633C181.984 402.833 181.729 402.933 181.43 402.933ZM184.409 413V411.829L189.112 405.845V405.766H184.56V404.266H191.265V405.528L186.739 411.421V411.5H191.418V413H184.409ZM197.041 413.182C196.182 413.182 195.44 412.996 194.817 412.624C194.194 412.253 193.714 411.731 193.378 411.059C193.042 410.387 192.875 409.599 192.875 408.695C192.875 407.798 193.039 407.009 193.369 406.328C193.699 405.647 194.166 405.115 194.77 404.732C195.374 404.348 196.081 404.156 196.893 404.156C197.392 404.156 197.874 404.238 198.34 404.401C198.805 404.564 199.223 404.82 199.592 405.17C199.962 405.519 200.255 405.972 200.471 406.529C200.687 407.085 200.795 407.757 200.795 408.545V409.154H193.83V407.871H199.909L199.106 408.295C199.106 407.761 199.023 407.29 198.857 406.881C198.691 406.472 198.444 406.153 198.117 405.923C197.79 405.693 197.384 405.578 196.898 405.578C196.413 405.578 195.998 405.695 195.654 405.929C195.31 406.164 195.047 406.472 194.866 406.856C194.685 407.239 194.594 407.657 194.594 408.109V408.981C194.594 409.58 194.697 410.087 194.903 410.502C195.109 410.917 195.397 411.23 195.768 411.442C196.14 411.654 196.57 411.76 197.059 411.76C197.379 411.76 197.671 411.714 197.933 411.622C198.195 411.531 198.42 411.392 198.609 411.208C198.798 411.023 198.943 410.795 199.044 410.522L200.657 410.903C200.519 411.355 200.285 411.753 199.954 412.095C199.622 412.437 199.21 412.704 198.718 412.895C198.225 413.086 197.667 413.182 197.041 413.182ZM206.827 416.14L207.245 414.739L207.44 414.79C207.737 414.866 208.004 414.887 208.241 414.852C208.478 414.817 208.684 414.707 208.858 414.521C209.033 414.335 209.172 414.055 209.276 413.681L209.466 413.04L206.148 404.266H208.003L209.732 409.23C209.924 409.782 210.084 410.331 210.212 410.875C210.339 411.42 210.477 411.963 210.625 412.505H210.1C210.248 411.963 210.391 411.419 210.53 410.871C210.668 410.323 210.833 409.776 211.024 409.23L212.786 404.266H214.627L210.833 414.213C210.656 414.679 210.439 415.069 210.182 415.383C209.924 415.698 209.618 415.934 209.262 416.091C208.906 416.249 208.494 416.328 208.024 416.328C207.754 416.328 207.513 416.308 207.301 416.269C207.089 416.23 206.931 416.187 206.827 416.14ZM219.512 413.182C218.692 413.182 217.977 412.994 217.366 412.619C216.755 412.243 216.281 411.717 215.943 411.041C215.606 410.364 215.437 409.578 215.437 408.682C215.437 407.773 215.606 406.98 215.943 406.301C216.281 405.622 216.755 405.095 217.366 404.719C217.977 404.344 218.692 404.156 219.512 404.156C220.336 404.156 221.054 404.344 221.666 404.719C222.278 405.095 222.753 405.622 223.091 406.301C223.428 406.98 223.597 407.773 223.597 408.682C223.597 409.578 223.428 410.364 223.091 411.041C222.753 411.717 222.278 412.243 221.666 412.619C221.054 412.994 220.336 413.182 219.512 413.182ZM219.512 411.729C220.043 411.729 220.483 411.589 220.829 411.311C221.176 411.032 221.434 410.662 221.602 410.199C221.77 409.737 221.855 409.23 221.855 408.679C221.855 408.122 221.77 407.612 221.602 407.147C221.434 406.682 221.176 406.309 220.829 406.029C220.483 405.749 220.043 405.61 219.512 405.61C218.984 405.61 218.548 405.749 218.205 406.029C217.862 406.309 217.606 406.681 217.438 407.143C217.27 407.606 217.186 408.118 217.186 408.679C217.186 409.23 217.27 409.737 217.438 410.199C217.606 410.662 217.862 411.032 218.205 411.311C218.548 411.589 218.984 411.729 219.512 411.729ZM228.48 413.109C227.886 413.109 227.366 412.985 226.918 412.736C226.471 412.486 226.123 412.116 225.875 411.626C225.627 411.135 225.503 410.532 225.503 409.815V404.266H227.222V409.601C227.222 410.23 227.387 410.722 227.716 411.079C228.046 411.435 228.497 411.613 229.067 411.613C229.456 411.613 229.803 411.528 230.108 411.359C230.413 411.189 230.654 410.941 230.83 410.616C231.007 410.29 231.095 409.898 231.095 409.441V404.266H232.82V413H231.175L231.164 410.862H231.335C231.077 411.651 230.704 412.223 230.216 412.578C229.728 412.932 229.149 413.109 228.48 413.109ZM235.128 413V404.266H236.791V405.668H236.885C237.046 405.194 237.327 404.821 237.729 404.55C238.131 404.279 238.587 404.143 239.097 404.143C239.207 404.143 239.333 404.147 239.475 404.155C239.617 404.163 239.733 404.173 239.824 404.185V405.826C239.761 405.807 239.642 405.787 239.464 405.765C239.287 405.744 239.107 405.733 238.924 405.733C238.527 405.733 238.171 405.817 237.855 405.985C237.54 406.153 237.293 406.384 237.115 406.679C236.936 406.973 236.847 407.313 236.847 407.697V413H235.128ZM248.828 413.173C248.123 413.173 247.495 412.993 246.944 412.631C246.392 412.269 245.96 411.751 245.648 411.077C245.335 410.402 245.179 409.595 245.179 408.653C245.179 407.707 245.338 406.898 245.655 406.227C245.973 405.555 246.407 405.042 246.958 404.688C247.508 404.333 248.132 404.156 248.829 404.156C249.372 404.156 249.81 404.246 250.142 404.427C250.474 404.607 250.733 404.817 250.92 405.057C251.108 405.296 251.25 405.506 251.346 405.688H251.444V401.359H253.163V413H251.488V411.633H251.346C251.248 411.819 251.102 412.032 250.911 412.272C250.719 412.512 250.456 412.723 250.124 412.903C249.791 413.083 249.359 413.173 248.828 413.173ZM249.209 411.709C249.696 411.709 250.108 411.579 250.445 411.32C250.781 411.062 251.036 410.702 251.21 410.24C251.384 409.779 251.471 409.246 251.471 408.641C251.471 408.033 251.385 407.504 251.213 407.053C251.042 406.602 250.788 406.251 250.451 405.999C250.115 405.747 249.701 405.621 249.209 405.621C248.705 405.621 248.284 405.753 247.946 406.018C247.609 406.283 247.355 406.643 247.187 407.098C247.018 407.553 246.934 408.067 246.934 408.641C246.934 409.217 247.019 409.737 247.19 410.201C247.361 410.665 247.616 411.032 247.956 411.303C248.296 411.573 248.713 411.709 249.209 411.709ZM257.916 413.192C257.363 413.192 256.863 413.09 256.416 412.886C255.969 412.682 255.616 412.381 255.355 411.985C255.094 411.589 254.963 411.104 254.963 410.53C254.963 410.033 255.059 409.627 255.25 409.31C255.442 408.992 255.699 408.741 256.023 408.554C256.347 408.368 256.708 408.228 257.106 408.134C257.505 408.041 257.912 407.97 258.327 407.921C258.842 407.859 259.26 407.809 259.582 407.769C259.904 407.73 260.143 407.665 260.297 407.574C260.451 407.483 260.528 407.335 260.528 407.13V407.086C260.528 406.76 260.465 406.484 260.34 406.258C260.214 406.032 260.027 405.859 259.779 405.738C259.53 405.617 259.221 405.557 258.852 405.557C258.474 405.557 258.15 405.615 257.877 405.732C257.605 405.849 257.383 405.998 257.212 406.179C257.041 406.36 256.914 406.549 256.831 406.748L255.213 406.332C255.412 405.808 255.696 405.388 256.066 405.07C256.436 404.752 256.86 404.52 257.339 404.375C257.817 404.229 258.314 404.156 258.828 404.156C259.179 404.156 259.552 404.198 259.948 404.282C260.344 404.366 260.716 404.517 261.064 404.735C261.412 404.952 261.696 405.26 261.916 405.657C262.136 406.055 262.246 406.57 262.246 407.201V413H260.584V411.804H260.496C260.383 412.03 260.214 412.249 259.99 412.462C259.766 412.676 259.483 412.851 259.141 412.987C258.798 413.124 258.39 413.192 257.916 413.192ZM258.297 411.816C258.768 411.816 259.169 411.724 259.502 411.54C259.834 411.355 260.089 411.113 260.267 410.813C260.445 410.512 260.534 410.193 260.534 409.855V408.733C260.472 408.794 260.353 408.85 260.178 408.9C260.003 408.951 259.805 408.995 259.583 409.034C259.361 409.073 259.145 409.106 258.934 409.133C258.724 409.16 258.552 409.182 258.419 409.199C258.097 409.24 257.802 409.309 257.533 409.408C257.264 409.507 257.05 409.647 256.892 409.83C256.734 410.012 256.654 410.253 256.654 410.554C256.654 410.83 256.725 411.062 256.868 411.249C257.01 411.436 257.204 411.577 257.451 411.673C257.697 411.768 257.979 411.816 258.297 411.816ZM268.296 404.266V405.663H263.559V404.266H268.296ZM264.835 402.188H266.553V410.637C266.553 410.99 266.627 411.249 266.774 411.413C266.921 411.576 267.165 411.658 267.505 411.658C267.595 411.658 267.712 411.648 267.858 411.626C268.003 411.605 268.128 411.584 268.233 411.563L268.537 412.94C268.353 413.001 268.156 413.045 267.948 413.072C267.739 413.1 267.534 413.114 267.334 413.114C266.539 413.114 265.923 412.91 265.488 412.503C265.052 412.095 264.835 411.521 264.835 410.779V402.188ZM272.525 413.192C271.972 413.192 271.472 413.09 271.026 412.886C270.579 412.682 270.225 412.381 269.964 411.985C269.703 411.589 269.573 411.104 269.573 410.53C269.573 410.033 269.668 409.627 269.86 409.31C270.051 408.992 270.309 408.741 270.632 408.554C270.956 408.368 271.317 408.228 271.716 408.134C272.115 408.041 272.521 407.97 272.936 407.921C273.451 407.859 273.87 407.809 274.192 407.769C274.514 407.73 274.752 407.665 274.906 407.574C275.06 407.483 275.137 407.335 275.137 407.13V407.086C275.137 406.76 275.075 406.484 274.949 406.258C274.823 406.032 274.636 405.859 274.388 405.738C274.14 405.617 273.831 405.557 273.461 405.557C273.084 405.557 272.759 405.615 272.486 405.732C272.214 405.849 271.992 405.998 271.821 406.179C271.651 406.36 271.523 406.549 271.44 406.748L269.823 406.332C270.021 405.808 270.306 405.388 270.675 405.07C271.045 404.752 271.47 404.52 271.948 404.375C272.427 404.229 272.923 404.156 273.437 404.156C273.788 404.156 274.161 404.198 274.557 404.282C274.953 404.366 275.325 404.517 275.673 404.735C276.022 404.952 276.306 405.26 276.526 405.657C276.746 406.055 276.856 406.57 276.856 407.201V413H275.193V411.804H275.105C274.992 412.03 274.824 412.249 274.6 412.462C274.376 412.676 274.093 412.851 273.75 412.987C273.408 413.124 272.999 413.192 272.525 413.192ZM272.907 411.816C273.377 411.816 273.778 411.724 274.111 411.54C274.444 411.355 274.699 411.113 274.876 410.813C275.054 410.512 275.143 410.193 275.143 409.855V408.733C275.081 408.794 274.963 408.85 274.788 408.9C274.613 408.951 274.414 408.995 274.192 409.034C273.97 409.073 273.754 409.106 273.544 409.133C273.334 409.16 273.162 409.182 273.028 409.199C272.706 409.24 272.411 409.309 272.142 409.408C271.873 409.507 271.66 409.647 271.501 409.83C271.343 410.012 271.264 410.253 271.264 410.554C271.264 410.83 271.335 411.062 271.477 411.249C271.619 411.436 271.814 411.577 272.06 411.673C272.306 411.768 272.589 411.816 272.907 411.816ZM113.386 426.266V427.663H108.648V426.266H113.386ZM109.924 424.188H111.643V432.637C111.643 432.99 111.716 433.249 111.863 433.413C112.011 433.576 112.255 433.658 112.595 433.658C112.685 433.658 112.802 433.648 112.948 433.626C113.093 433.605 113.218 433.584 113.322 433.563L113.627 434.94C113.443 435.001 113.246 435.045 113.037 435.072C112.829 435.1 112.624 435.114 112.424 435.114C111.629 435.114 111.013 434.91 110.578 434.503C110.142 434.095 109.924 433.521 109.924 432.779V424.188ZM116.827 429.825V435H115.109V423.359H116.813V428.404H116.588C116.841 427.623 117.21 427.053 117.694 426.694C118.177 426.336 118.763 426.156 119.449 426.156C120.044 426.156 120.564 426.281 121.011 426.53C121.459 426.779 121.806 427.148 122.054 427.636C122.302 428.125 122.426 428.729 122.426 429.45V435H120.701V429.665C120.701 429.036 120.537 428.543 120.209 428.187C119.882 427.831 119.432 427.652 118.862 427.652C118.474 427.652 118.126 427.737 117.819 427.907C117.511 428.077 117.269 428.323 117.092 428.646C116.916 428.969 116.827 429.362 116.827 429.825ZM128.498 435.182C127.639 435.182 126.897 434.996 126.274 434.624C125.651 434.253 125.171 433.731 124.835 433.059C124.499 432.387 124.332 431.599 124.332 430.695C124.332 429.798 124.497 429.009 124.826 428.328C125.156 427.647 125.623 427.115 126.227 426.732C126.831 426.348 127.538 426.156 128.35 426.156C128.849 426.156 129.331 426.238 129.797 426.401C130.262 426.564 130.68 426.82 131.049 427.17C131.419 427.519 131.712 427.972 131.928 428.529C132.144 429.085 132.252 429.757 132.252 430.545V431.154H125.287V429.871H131.366L130.563 430.295C130.563 429.761 130.48 429.29 130.314 428.881C130.148 428.472 129.901 428.153 129.575 427.923C129.248 427.693 128.841 427.578 128.355 427.578C127.87 427.578 127.455 427.695 127.111 427.929C126.767 428.164 126.504 428.472 126.323 428.856C126.142 429.239 126.052 429.657 126.052 430.109V430.981C126.052 431.58 126.154 432.087 126.36 432.502C126.566 432.917 126.854 433.23 127.226 433.442C127.597 433.654 128.027 433.76 128.516 433.76C128.836 433.76 129.128 433.714 129.39 433.622C129.652 433.531 129.877 433.392 130.066 433.208C130.255 433.023 130.4 432.795 130.501 432.522L132.114 432.903C131.976 433.355 131.742 433.753 131.411 434.095C131.079 434.437 130.667 434.704 130.175 434.895C129.682 435.086 129.124 435.182 128.498 435.182ZM140.312 435L137.688 426.266H139.502L140.463 429.884C140.603 430.424 140.754 431.026 140.916 431.692C141.077 432.358 141.233 433.106 141.383 433.935H141.133C141.282 433.136 141.438 432.402 141.6 431.733C141.761 431.065 141.915 430.448 142.063 429.884L143.027 426.266H144.746L145.691 429.884C145.833 430.436 145.984 431.046 146.144 431.711C146.304 432.377 146.459 433.119 146.608 433.935H146.354C146.508 433.127 146.663 432.39 146.82 431.724C146.977 431.058 147.128 430.445 147.272 429.884L148.234 426.266H150.059L147.429 435H145.703L144.625 431.241C144.517 430.862 144.411 430.466 144.306 430.052C144.202 429.637 144.101 429.214 144.002 428.78C143.903 428.347 143.801 427.918 143.697 427.493H144.044C143.945 427.914 143.845 428.342 143.743 428.777C143.642 429.212 143.539 429.639 143.435 430.058C143.332 430.477 143.225 430.871 143.116 431.241L142.038 435H140.312ZM154.092 435.192C153.539 435.192 153.039 435.09 152.592 434.886C152.145 434.682 151.791 434.381 151.53 433.985C151.27 433.589 151.139 433.104 151.139 432.53C151.139 432.033 151.235 431.627 151.426 431.31C151.617 430.992 151.875 430.741 152.199 430.554C152.522 430.368 152.884 430.228 153.282 430.134C153.681 430.041 154.088 429.97 154.502 429.921C155.018 429.859 155.436 429.809 155.758 429.769C156.08 429.73 156.318 429.665 156.472 429.574C156.627 429.483 156.704 429.335 156.704 429.13V429.086C156.704 428.76 156.641 428.484 156.515 428.258C156.39 428.032 156.203 427.859 155.955 427.738C155.706 427.617 155.397 427.557 155.027 427.557C154.65 427.557 154.325 427.615 154.053 427.732C153.78 427.849 153.559 427.998 153.388 428.179C153.217 428.36 153.09 428.549 153.006 428.748L151.389 428.332C151.588 427.808 151.872 427.388 152.242 427.07C152.612 426.752 153.036 426.52 153.514 426.375C153.993 426.229 154.489 426.156 155.004 426.156C155.355 426.156 155.728 426.198 156.124 426.282C156.52 426.366 156.892 426.517 157.24 426.735C157.588 426.952 157.872 427.26 158.092 427.657C158.312 428.055 158.422 428.57 158.422 429.201V435H156.76V433.804H156.671C156.558 434.03 156.39 434.249 156.166 434.462C155.942 434.676 155.659 434.851 155.317 434.987C154.974 435.124 154.566 435.192 154.092 435.192ZM154.473 433.816C154.943 433.816 155.345 433.724 155.677 433.54C156.01 433.355 156.265 433.113 156.443 432.813C156.621 432.512 156.709 432.193 156.709 431.855V430.733C156.647 430.794 156.529 430.85 156.354 430.9C156.179 430.951 155.981 430.995 155.759 431.034C155.536 431.073 155.32 431.106 155.11 431.133C154.9 431.16 154.728 431.182 154.595 431.199C154.273 431.24 153.978 431.309 153.709 431.408C153.44 431.507 153.226 431.647 153.068 431.83C152.909 432.012 152.83 432.253 152.83 432.554C152.83 432.83 152.901 433.062 153.043 433.249C153.186 433.436 153.38 433.577 153.626 433.673C153.873 433.768 154.155 433.816 154.473 433.816ZM160.37 438.14L160.788 436.739L160.983 436.79C161.28 436.866 161.547 436.887 161.784 436.852C162.021 436.817 162.227 436.707 162.401 436.521C162.576 436.335 162.715 436.055 162.819 435.681L163.009 435.04L159.691 426.266H161.546L163.275 431.23C163.467 431.782 163.627 432.331 163.755 432.875C163.882 433.42 164.02 433.963 164.168 434.505H163.643C163.791 433.963 163.934 433.419 164.073 432.871C164.211 432.323 164.376 431.776 164.567 431.23L166.329 426.266H168.17L164.376 436.213C164.199 436.679 163.982 437.069 163.725 437.383C163.467 437.698 163.161 437.934 162.805 438.091C162.449 438.249 162.037 438.328 161.567 438.328C161.297 438.328 161.056 438.308 160.844 438.269C160.632 438.23 160.474 438.187 160.37 438.14ZM173.839 438.14L174.257 436.739L174.452 436.79C174.749 436.866 175.016 436.887 175.253 436.852C175.49 436.817 175.696 436.707 175.87 436.521C176.045 436.335 176.184 436.055 176.288 435.681L176.477 435.04L173.16 426.266H175.015L176.744 431.23C176.936 431.782 177.096 432.331 177.223 432.875C177.351 433.42 177.489 433.963 177.637 434.505H177.111C177.26 433.963 177.403 433.419 177.541 432.871C177.68 432.323 177.845 431.776 178.035 431.23L179.798 426.266H181.639L177.845 436.213C177.668 436.679 177.451 437.069 177.193 437.383C176.936 437.698 176.63 437.934 176.274 438.091C175.918 438.249 175.505 438.328 175.036 438.328C174.766 438.328 174.525 438.308 174.313 438.269C174.1 438.23 173.942 438.187 173.839 438.14ZM186.524 435.182C185.704 435.182 184.989 434.994 184.378 434.619C183.767 434.243 183.293 433.717 182.955 433.041C182.618 432.364 182.449 431.578 182.449 430.682C182.449 429.773 182.618 428.98 182.955 428.301C183.293 427.622 183.767 427.095 184.378 426.719C184.989 426.344 185.704 426.156 186.524 426.156C187.348 426.156 188.066 426.344 188.678 426.719C189.29 427.095 189.765 427.622 190.102 428.301C190.44 428.98 190.609 429.773 190.609 430.682C190.609 431.578 190.44 432.364 190.102 433.041C189.765 433.717 189.29 434.243 188.678 434.619C188.066 434.994 187.348 435.182 186.524 435.182ZM186.524 433.729C187.055 433.729 187.494 433.589 187.841 433.311C188.188 433.032 188.446 432.662 188.614 432.199C188.782 431.737 188.866 431.23 188.866 430.679C188.866 430.122 188.782 429.612 188.614 429.147C188.446 428.682 188.188 428.309 187.841 428.029C187.494 427.749 187.055 427.61 186.524 427.61C185.996 427.61 185.56 427.749 185.217 428.029C184.874 428.309 184.618 428.681 184.45 429.143C184.282 429.606 184.198 430.118 184.198 430.679C184.198 431.23 184.282 431.737 184.45 432.199C184.618 432.662 184.874 433.032 185.217 433.311C185.56 433.589 185.996 433.729 186.524 433.729ZM195.491 435.109C194.898 435.109 194.378 434.985 193.93 434.736C193.482 434.486 193.135 434.116 192.887 433.626C192.639 433.135 192.515 432.532 192.515 431.815V426.266H194.233V431.601C194.233 432.23 194.398 432.722 194.728 433.079C195.058 433.435 195.508 433.613 196.079 433.613C196.468 433.613 196.814 433.528 197.119 433.359C197.424 433.189 197.665 432.941 197.842 432.616C198.019 432.29 198.107 431.898 198.107 431.441V426.266H199.832V435H198.187L198.176 432.862H198.347C198.089 433.651 197.716 434.223 197.228 434.578C196.74 434.932 196.161 435.109 195.491 435.109ZM208.32 435L205.696 426.266H207.51L208.471 429.884C208.611 430.424 208.762 431.026 208.924 431.692C209.085 432.358 209.241 433.106 209.391 433.935H209.141C209.29 433.136 209.446 432.402 209.607 431.733C209.769 431.065 209.923 430.448 210.07 429.884L211.034 426.266H212.754L213.699 429.884C213.841 430.436 213.992 431.046 214.152 431.711C214.312 432.377 214.467 433.119 214.616 433.935H214.362C214.516 433.127 214.671 432.39 214.828 431.724C214.985 431.058 215.136 430.445 215.28 429.884L216.241 426.266H218.067L215.437 435H213.711L212.633 431.241C212.525 430.862 212.418 430.466 212.314 430.052C212.21 429.637 212.108 429.214 212.009 428.78C211.91 428.347 211.809 427.918 211.705 427.493H212.052C211.953 427.914 211.853 428.342 211.751 428.777C211.65 429.212 211.547 429.639 211.443 430.058C211.34 430.477 211.233 430.871 211.124 431.241L210.046 435H208.32ZM222.1 435.192C221.546 435.192 221.047 435.09 220.6 434.886C220.153 434.682 219.799 434.381 219.538 433.985C219.277 433.589 219.147 433.104 219.147 432.53C219.147 432.033 219.243 431.627 219.434 431.31C219.625 430.992 219.883 430.741 220.206 430.554C220.53 430.368 220.891 430.228 221.29 430.134C221.689 430.041 222.095 429.97 222.51 429.921C223.025 429.859 223.444 429.809 223.766 429.769C224.088 429.73 224.326 429.665 224.48 429.574C224.634 429.483 224.712 429.335 224.712 429.13V429.086C224.712 428.76 224.649 428.484 224.523 428.258C224.398 428.032 224.211 427.859 223.962 427.738C223.714 427.617 223.405 427.557 223.035 427.557C222.658 427.557 222.333 427.615 222.061 427.732C221.788 427.849 221.566 427.998 221.396 428.179C221.225 428.36 221.098 428.549 221.014 428.748L219.397 428.332C219.596 427.808 219.88 427.388 220.25 427.07C220.62 426.752 221.044 426.52 221.522 426.375C222.001 426.229 222.497 426.156 223.012 426.156C223.362 426.156 223.736 426.198 224.132 426.282C224.527 426.366 224.899 426.517 225.248 426.735C225.596 426.952 225.88 427.26 226.1 427.657C226.32 428.055 226.43 428.57 226.43 429.201V435H224.767V433.804H224.679C224.566 434.03 224.398 434.249 224.174 434.462C223.95 434.676 223.667 434.851 223.324 434.987C222.982 435.124 222.574 435.192 222.1 435.192ZM222.481 433.816C222.951 433.816 223.353 433.724 223.685 433.54C224.018 433.355 224.273 433.113 224.451 432.813C224.628 432.512 224.717 432.193 224.717 431.855V430.733C224.655 430.794 224.537 430.85 224.362 430.9C224.187 430.951 223.988 430.995 223.766 431.034C223.544 431.073 223.328 431.106 223.118 431.133C222.908 431.16 222.736 431.182 222.602 431.199C222.281 431.24 221.985 431.309 221.716 431.408C221.447 431.507 221.234 431.647 221.075 431.83C220.917 432.012 220.838 432.253 220.838 432.554C220.838 432.83 220.909 433.062 221.051 433.249C221.193 433.436 221.388 433.577 221.634 433.673C221.881 433.768 222.163 433.816 222.481 433.816ZM230.46 429.825V435H228.742V426.266H230.38L230.398 428.404H230.221C230.474 427.623 230.843 427.053 231.326 426.694C231.81 426.336 232.395 426.156 233.082 426.156C233.676 426.156 234.196 426.281 234.641 426.53C235.086 426.779 235.433 427.148 235.68 427.636C235.928 428.125 236.052 428.729 236.052 429.45V435H234.334V429.665C234.334 429.036 234.17 428.543 233.842 428.187C233.515 427.831 233.065 427.652 232.494 427.652C232.107 427.652 231.759 427.737 231.452 427.907C231.144 428.077 230.902 428.323 230.725 428.646C230.548 428.969 230.46 429.362 230.46 429.825ZM242.105 426.266V427.663H237.367V426.266H242.105ZM238.643 424.188H240.362V432.637C240.362 432.99 240.435 433.249 240.582 433.413C240.729 433.576 240.973 433.658 241.314 433.658C241.404 433.658 241.521 433.648 241.667 433.626C241.812 433.605 241.937 433.584 242.041 433.563L242.346 434.94C242.161 435.001 241.965 435.045 241.756 435.072C241.547 435.1 241.343 435.114 241.143 435.114C240.347 435.114 239.732 434.91 239.296 434.503C238.861 434.095 238.643 433.521 238.643 432.779V424.188ZM245.083 435.117C244.762 435.117 244.489 435.005 244.265 434.782C244.041 434.559 243.929 434.287 243.929 433.967C243.929 433.646 244.041 433.374 244.265 433.151C244.489 432.928 244.762 432.816 245.083 432.816C245.405 432.816 245.678 432.928 245.902 433.151C246.126 433.374 246.238 433.646 246.238 433.967C246.238 434.287 246.126 434.559 245.902 434.782C245.678 435.005 245.405 435.117 245.083 435.117Z" fill="white" fill-opacity="0.9"/>
</g>
<rect x="122" y="45" width="112" height="28" rx="14" fill="black"/>
</g>
<rect x="42" y="17" width="272" height="552" rx="44" stroke="black" stroke-width="8"/>
<defs>
<filter id="filter0_dd_764_18" x="0" y="0" width="356" height="636" filterUnits="userSpaceOnUse" color-interpolation-filters="sRGB">
<feFlood flood-opacity="0" result="BackgroundImageFix"/>
<feColorMatrix in="SourceAlpha" type="matrix" values="0 0 0 0 0 0 0 0 0 0 0 0 0 0 0 0 0 0 127 0" result="hardAlpha"/>
<feMorphology radius="12" operator="erode" in="SourceAlpha" result="effect1_dropShadow_764_18"/>
<feOffset dy="25"/>
<feGaussianBlur stdDeviation="25"/>
<feComposite in2="hardAlpha" operator="out"/>
<feColorMatrix type="matrix" values="0 0 0 0 0 0 0 0 0 0 0 0 0 0 0 0 0 0 0.25 0"/>
<feBlend mode="normal" in2="BackgroundImageFix" result="effect1_dropShadow_764_18"/>
<feColorMatrix in="SourceAlpha" type="matrix" values="0 0 0 0 0 0 0 0 0 0 0 0 0 0 0 0 0 0 127 0" result="hardAlpha"/>
<feMorphology radius="1" operator="dilate" in="SourceAlpha" result="effect2_dropShadow_764_18"/>
<feOffset/>
<feComposite in2="hardAlpha" operator="out"/>
<feColorMatrix type="matrix" values="0 0 0 0 0.898039 0 0 0 0 0.905882 0 0 0 0 0.921569 0 0 0 1 0"/>
<feBlend mode="normal" in2="effect1_dropShadow_764_18" result="effect2_dropShadow_764_18"/>
<feBlend mode="normal" in="SourceGraphic" in2="effect2_dropShadow_764_18" result="shape"/>
</filter>
<filter id="filter1_f_764_18" x="86.8" y="-68.59" width="284.8" height="348" filterUnits="userSpaceOnUse" color-interpolation-filters="sRGB">
<feFlood flood-opacity="0" result="BackgroundImageFix"/>
<feBlend mode="normal" in="SourceGraphic" in2="BackgroundImageFix" result="shape"/>
<feGaussianBlur stdDeviation="20" result="effect1_foregroundBlur_764_18"/>
</filter>
<filter id="filter2_f_764_18" x="-51.1899" y="243" width="356" height="421.59" filterUnits="userSpaceOnUse" color-interpolation-filters="sRGB">
<feFlood flood-opacity="0" result="BackgroundImageFix"/>
<feBlend mode="normal" in="SourceGraphic" in2="BackgroundImageFix" result="shape"/>
<feGaussianBlur stdDeviation="25" result="effect1_foregroundBlur_764_18"/>
</filter>
<filter id="filter3_f_764_18" x="71.19" y="209.39" width="213.59" height="274.39" filterUnits="userSpaceOnUse" color-interpolation-filters="sRGB">
<feFlood flood-opacity="0" result="BackgroundImageFix"/>
<feBlend mode="normal" in="SourceGraphic" in2="BackgroundImageFix" result="shape"/>
<feGaussianBlur stdDeviation="15" result="effect1_foregroundBlur_764_18"/>
</filter>
<clipPath id="bgblur_1_764_18_clip_path" transform="translate(-50 -69)"><rect x="70" y="89" width="216" height="40" rx="20"/>
</clipPath><filter id="filter5_dd_764_18" x="58" y="87" width="240" height="64" filterUnits="userSpaceOnUse" color-interpolation-filters="sRGB">
<feFlood flood-opacity="0" result="BackgroundImageFix"/>
<feColorMatrix in="SourceAlpha" type="matrix" values="0 0 0 0 0 0 0 0 0 0 0 0 0 0 0 0 0 0 127 0" result="hardAlpha"/>
<feMorphology radius="4" operator="erode" in="SourceAlpha" result="effect1_dropShadow_764_18"/>
<feOffset dy="4"/>
<feGaussianBlur stdDeviation="3"/>
<feComposite in2="hardAlpha" operator="out"/>
<feColorMatrix type="matrix" values="0 0 0 0 0 0 0 0 0 0 0 0 0 0 0 0 0 0 0.1 0"/>
<feBlend mode="normal" in2="BackgroundImageFix" result="effect1_dropShadow_764_18"/>
<feColorMatrix in="SourceAlpha" type="matrix" values="0 0 0 0 0 0 0 0 0 0 0 0 0 0 0 0 0 0 127 0" result="hardAlpha"/>
<feMorphology radius="3" operator="erode" in="SourceAlpha" result="effect2_dropShadow_764_18"/>
<feOffset dy="10"/>
<feGaussianBlur stdDeviation="7.5"/>
<feComposite in2="hardAlpha" operator="out"/>
<feColorMatrix type="matrix" values="0 0 0 0 0 0 0 0 0 0 0 0 0 0 0 0 0 0 0.1 0"/>
<feBlend mode="normal" in2="effect1_dropShadow_764_18" result="effect2_dropShadow_764_18"/>
<feBlend mode="normal" in="SourceGraphic" in2="effect2_dropShadow_764_18" result="shape"/>
</filter>
<filter id="filter6_dd_764_18" x="90.85" y="266" width="174.3" height="124.906" filterUnits="userSpaceOnUse" color-interpolation-filters="sRGB">
<feFlood flood-opacity="0" result="BackgroundImageFix"/>
<feColorMatrix in="SourceAlpha" type="matrix" values="0 0 0 0 0 0 0 0 0 0 0 0 0 0 0 0 0 0 127 0" result="hardAlpha"/>
<feOffset dy="10"/>
<feGaussianBlur stdDeviation="4"/>
<feComposite in2="hardAlpha" operator="out"/>
<feColorMatrix type="matrix" values="0 0 0 0 0 0 0 0 0 0 0 0 0 0 0 0 0 0 0.04 0"/>
<feBlend mode="normal" in2="BackgroundImageFix" result="effect1_dropShadow_764_18"/>
<feColorMatrix in="SourceAlpha" type="matrix" values="0 0 0 0 0 0 0 0 0 0 0 0 0 0 0 0 0 0 127 0" result="hardAlpha"/>
<feOffset dy="4"/>
<feGaussianBlur stdDeviation="1.5"/>
<feComposite in2="hardAlpha" operator="out"/>
<feColorMatrix type="matrix" values="0 0 0 0 0 0 0 0 0 0 0 0 0 0 0 0 0 0 0.1 0"/>
<feBlend mode="normal" in2="effect1_dropShadow_764_18" result="effect2_dropShadow_764_18"/>
<feBlend mode="normal" in="SourceGraphic" in2="effect2_dropShadow_764_18" result="shape"/>
</filter>
<filter id="filter7_dd_764_18" x="67" y="396" width="222" height="51" filterUnits="userSpaceOnUse" color-interpolation-filters="sRGB">
<feFlood flood-opacity="0" result="BackgroundImageFix"/>
<feColorMatrix in="SourceAlpha" type="matrix" values="0 0 0 0 0 0 0 0 0 0 0 0 0 0 0 0 0 0 127 0" result="hardAlpha"/>
<feOffset dy="4"/>
<feGaussianBlur stdDeviation="1.5"/>
<feComposite in2="hardAlpha" operator="out"/>
<feColorMatrix type="matrix" values="0 0 0 0 0 0 0 0 0 0 0 0 0 0 0 0 0 0 0.07 0"/>
<feBlend mode="normal" in2="BackgroundImageFix" result="effect1_dropShadow_764_18"/>
<feColorMatrix in="SourceAlpha" type="matrix" values="0 0 0 0 0 0 0 0 0 0 0 0 0 0 0 0 0 0 127 0" result="hardAlpha"/>
<feOffset dy="2"/>
<feGaussianBlur stdDeviation="1"/>
<feComposite in2="hardAlpha" operator="out"/>
<feColorMatrix type="matrix" values="0 0 0 0 0 0 0 0 0 0 0 0 0 0 0 0 0 0 0.06 0"/>
<feBlend mode="normal" in2="effect1_dropShadow_764_18" result="effect2_dropShadow_764_18"/>
<feBlend mode="normal" in="SourceGraphic" in2="effect2_dropShadow_764_18" result="shape"/>
</filter>
<linearGradient id="paint0_linear_764_18" x1="-51.1002" y1="409.163" x2="407.1" y2="176.837" gradientUnits="userSpaceOnUse">
<stop stop-color="#DBEAFE"/>
<stop offset="1" stop-color="#DBEAFE" stop-opacity="0"/>
</linearGradient>
<linearGradient id="paint1_linear_764_18" x1="178" y1="25" x2="178" y2="561" gradientUnits="userSpaceOnUse">
<stop stop-color="#0C50AF"/>
<stop offset="1" stop-color="#C12173"/>
</linearGradient>
<radialGradient id="paint2_radial_764_18" cx="0" cy="0" r="1" gradientUnits="userSpaceOnUse" gradientTransform="translate(229.2 105.41) scale(168.647 168.647)">
<stop stop-color="#0C50AF" stop-opacity="0.5"/>
<stop offset="0.7" stop-color="#0C50AF" stop-opacity="0"/>
</radialGradient>
<radialGradient id="paint3_radial_764_18" cx="0" cy="0" r="1" gradientUnits="userSpaceOnUse" gradientTransform="translate(126.81 453.795) scale(205.521 205.521)">
<stop stop-color="#C12173" stop-opacity="0.4"/>
<stop offset="0.7" stop-color="#C12173" stop-opacity="0"/>
</radialGradient>
<radialGradient id="paint4_radial_764_18" cx="0" cy="0" r="1" gradientUnits="userSpaceOnUse" gradientTransform="translate(177.985 346.585) scale(131.864)">
<stop stop-color="#6464FF" stop-opacity="0.3"/>
<stop offset="0.6" stop-color="#6464FF" stop-opacity="0"/>
</radialGradient>
<clipPath id="clip0_764_18">
<rect x="50" y="25" width="256" height="536" rx="40" fill="white"/>
</clipPath>
</defs>
</svg>
