<svg width="36" height="33" viewBox="0 0 36 33" fill="none" xmlns="http://www.w3.org/2000/svg">
<path d="M15.75 20.625H20.25L19.3875 16.1906C19.8875 15.9615 20.2813 15.6292 20.5688 15.1938C20.8563 14.7583 21 14.2771 21 13.75C21 12.9938 20.7063 12.3464 20.1188 11.8078C19.5313 11.2693 18.825 11 18 11C17.175 11 16.4688 11.2693 15.8813 11.8078C15.2938 12.3464 15 12.9938 15 13.75C15 14.2771 15.1438 14.7583 15.4313 15.1938C15.7188 15.6292 16.1125 15.9615 16.6125 16.1906L15.75 20.625ZM18 30.25C14.525 29.4479 11.6562 27.6203 9.39375 24.7672C7.13125 21.9141 6 18.7458 6 15.2625V6.875L18 2.75L30 6.875V15.2625C30 18.7458 28.8688 21.9141 26.6063 24.7672C24.3438 27.6203 21.475 29.4479 18 30.25ZM18 27.3625C20.6 26.6063 22.75 25.0938 24.45 22.825C26.15 20.5562 27 18.0354 27 15.2625V8.76562L18 5.67188L9 8.76562V15.2625C9 18.0354 9.85 20.5562 11.55 22.825C13.25 25.0938 15.4 26.6063 18 27.3625Z" fill="url(#paint0_linear_343_1448)"/>
<defs>
<linearGradient id="paint0_linear_343_1448" x1="18" y1="2.75" x2="18" y2="30.25" gradientUnits="userSpaceOnUse">
<stop stop-color="#B345D9"/>
<stop offset="1" stop-color="#DA4B7A"/>
</linearGradient>
</defs>
</svg>
