<svg width="30" height="35" viewBox="0 0 30 35" fill="none" xmlns="http://www.w3.org/2000/svg">
<path d="M3.75 35C2.71875 35 1.83594 34.6736 1.10156 34.0208C0.367188 33.3681 0 32.5833 0 31.6667V15C0 14.0833 0.367188 13.2986 1.10156 12.6458C1.83594 11.9931 2.71875 11.6667 3.75 11.6667H5.625V8.33333C5.625 6.02778 6.53906 4.0625 8.36719 2.4375C10.1953 0.8125 12.4062 0 15 0C17.5938 0 19.8047 0.8125 21.6328 2.4375C23.4609 4.0625 24.375 6.02778 24.375 8.33333V11.6667H26.25C27.2812 11.6667 28.1641 11.9931 28.8984 12.6458C29.6328 13.2986 30 14.0833 30 15V31.6667C30 32.5833 29.6328 33.3681 28.8984 34.0208C28.1641 34.6736 27.2812 35 26.25 35H3.75ZM3.75 31.6667H26.25V15H3.75V31.6667ZM15 26.6667C16.0312 26.6667 16.9141 26.3403 17.6484 25.6875C18.3828 25.0347 18.75 24.25 18.75 23.3333C18.75 22.4167 18.3828 21.6319 17.6484 20.9792C16.9141 20.3264 16.0312 20 15 20C13.9688 20 13.0859 20.3264 12.3516 20.9792C11.6172 21.6319 11.25 22.4167 11.25 23.3333C11.25 24.25 11.6172 25.0347 12.3516 25.6875C13.0859 26.3403 13.9688 26.6667 15 26.6667ZM9.375 11.6667H20.625V8.33333C20.625 6.94445 20.0781 5.76389 18.9844 4.79167C17.8906 3.81944 16.5625 3.33333 15 3.33333C13.4375 3.33333 12.1094 3.81944 11.0156 4.79167C9.92188 5.76389 9.375 6.94445 9.375 8.33333V11.6667Z" fill="white"/>
</svg>
