<svg width="33" height="32" viewBox="0 0 33 32" fill="none" xmlns="http://www.w3.org/2000/svg">
<path d="M8.25 30.6666H4.125C3.36875 30.6666 2.72135 30.4055 2.18281 29.8833C1.64427 29.361 1.375 28.7333 1.375 27.9999V23.9999H4.125V27.9999H8.25V30.6666ZM24.75 30.6666V27.9999H28.875V23.9999H31.625V27.9999C31.625 28.7333 31.3557 29.361 30.8172 29.8833C30.2786 30.4055 29.6313 30.6666 28.875 30.6666H24.75ZM16.5 24.6666C13.75 24.6666 11.2578 23.8777 9.02344 22.2999C6.78906 20.7221 5.15625 18.6221 4.125 15.9999C5.15625 13.3777 6.78906 11.2777 9.02344 9.69992C11.2578 8.12214 13.75 7.33325 16.5 7.33325C19.25 7.33325 21.7422 8.12214 23.9766 9.69992C26.2109 11.2777 27.8438 13.3777 28.875 15.9999C27.8438 18.6221 26.2109 20.7221 23.9766 22.2999C21.7422 23.8777 19.25 24.6666 16.5 24.6666ZM16.5 21.9999C18.5167 21.9999 20.3615 21.4666 22.0344 20.3999C23.7073 19.3333 24.9906 17.8666 25.8844 15.9999C24.9906 14.1333 23.7073 12.6666 22.0344 11.5999C20.3615 10.5333 18.5167 9.99992 16.5 9.99992C14.4833 9.99992 12.6385 10.5333 10.9656 11.5999C9.29271 12.6666 8.00938 14.1333 7.11562 15.9999C8.00938 17.8666 9.29271 19.3333 10.9656 20.3999C12.6385 21.4666 14.4833 21.9999 16.5 21.9999ZM16.5 20.6666C17.8292 20.6666 18.9635 20.211 19.9031 19.2999C20.8427 18.3888 21.3125 17.2888 21.3125 15.9999C21.3125 14.711 20.8427 13.611 19.9031 12.6999C18.9635 11.7888 17.8292 11.3333 16.5 11.3333C15.1708 11.3333 14.0365 11.7888 13.0969 12.6999C12.1573 13.611 11.6875 14.711 11.6875 15.9999C11.6875 17.2888 12.1573 18.3888 13.0969 19.2999C14.0365 20.211 15.1708 20.6666 16.5 20.6666ZM16.5 17.9999C15.9271 17.9999 15.4401 17.8055 15.0391 17.4166C14.638 17.0277 14.4375 16.5555 14.4375 15.9999C14.4375 15.4444 14.638 14.9721 15.0391 14.5833C15.4401 14.1944 15.9271 13.9999 16.5 13.9999C17.0729 13.9999 17.5599 14.1944 17.9609 14.5833C18.362 14.9721 18.5625 15.4444 18.5625 15.9999C18.5625 16.5555 18.362 17.0277 17.9609 17.4166C17.5599 17.8055 17.0729 17.9999 16.5 17.9999ZM1.375 7.99992V3.99992C1.375 3.26659 1.64427 2.63881 2.18281 2.11659C2.72135 1.59436 3.36875 1.33325 4.125 1.33325H8.25V3.99992H4.125V7.99992H1.375ZM28.875 7.99992V3.99992H24.75V1.33325H28.875C29.6313 1.33325 30.2786 1.59436 30.8172 2.11659C31.3557 2.63881 31.625 3.26659 31.625 3.99992V7.99992H28.875Z" fill="white"/>
</svg>
