<svg width="39" height="39" viewBox="0 0 39 39" fill="none" xmlns="http://www.w3.org/2000/svg">
<path opacity="0.2" d="M5.45301 11.8798C5.3466 12.0603 5.29049 12.266 5.29053 12.4755V26.9437C5.29053 27.1519 5.34593 27.3564 5.45104 27.5361C5.55615 27.7158 5.70718 27.8644 5.88865 27.9664L18.7959 35.2268C18.9715 35.3256 19.1697 35.3775 19.3712 35.3775L19.3727 35.3775L19.5104 19.7096L5.45304 11.8798L5.45301 11.8798Z" fill="#0B63E5"/>
<path d="M33.4518 26.9437V12.4755C33.4518 12.2673 33.3964 12.0629 33.2913 11.8831C33.1862 11.7034 33.0352 11.5549 32.8537 11.4528L19.9464 4.1925C19.7708 4.09371 19.5727 4.04181 19.3712 4.04181C19.1697 4.04181 18.9715 4.09371 18.7959 4.1925L5.88865 11.4528C5.70718 11.5549 5.55615 11.7034 5.45104 11.8831C5.34593 12.0629 5.29053 12.2673 5.29053 12.4755V26.9437C5.29053 27.1519 5.34593 27.3564 5.45104 27.5361C5.55615 27.7158 5.70718 27.8644 5.88865 27.9664L18.7959 35.2268C18.9715 35.3256 19.1697 35.3775 19.3712 35.3775C19.5727 35.3775 19.7708 35.3256 19.9464 35.2268L32.8537 27.9664C33.0352 27.8644 33.1862 27.7158 33.2913 27.5361C33.3964 27.3564 33.4518 27.1519 33.4518 26.9437Z" stroke="#0B63E5" stroke-width="2.34677" stroke-linecap="round" stroke-linejoin="round"/>
<path d="M26.5614 23.3048V15.6777L12.3308 7.8291" stroke="#0B63E5" stroke-width="2.34677" stroke-linecap="round" stroke-linejoin="round"/>
<path d="M33.2899 11.8812L19.5102 19.7096L5.45288 11.8798" stroke="#0B63E5" stroke-width="2.34677" stroke-linecap="round" stroke-linejoin="round"/>
<path d="M19.5103 19.7097L19.3726 35.3775" stroke="#0B63E5" stroke-width="2.34677" stroke-linecap="round" stroke-linejoin="round"/>
</svg>
