<svg width="39" height="39" viewBox="0 0 39 39" fill="none" xmlns="http://www.w3.org/2000/svg">
<path opacity="0.2" d="M19.4842 19.7097C26.6126 19.7097 32.3914 16.5576 32.3914 12.6694C32.3914 8.78109 26.6126 5.62903 19.4842 5.62903C12.3557 5.62903 6.5769 8.78109 6.5769 12.6694C6.5769 16.5576 12.3557 19.7097 19.4842 19.7097Z" fill="#0B63E5"/>
<path d="M19.4842 19.7097C26.6126 19.7097 32.3914 16.5576 32.3914 12.6694C32.3914 8.78109 26.6126 5.62903 19.4842 5.62903C12.3557 5.62903 6.5769 8.78109 6.5769 12.6694C6.5769 16.5576 12.3557 19.7097 19.4842 19.7097Z" stroke="#0B63E5" stroke-width="2.34677" stroke-linecap="round" stroke-linejoin="round"/>
<path d="M6.5769 12.6694V19.7097C6.5769 23.598 12.3557 26.75 19.4842 26.75C26.6126 26.75 32.3914 23.598 32.3914 19.7097V12.6694" stroke="#0B63E5" stroke-width="2.34677" stroke-linecap="round" stroke-linejoin="round"/>
<path d="M6.5769 19.7097V26.75C6.5769 30.6382 12.3557 33.7903 19.4842 33.7903C26.6126 33.7903 32.3914 30.6382 32.3914 26.75V19.7097" stroke="#0B63E5" stroke-width="2.34677" stroke-linecap="round" stroke-linejoin="round"/>
</svg>
