<svg width="39" height="39" viewBox="0 0 39 39" fill="none" xmlns="http://www.w3.org/2000/svg">
<path opacity="0.2" d="M31.3305 19.7097V22.0564C31.3305 25.1684 30.0943 28.153 27.8938 30.3535C25.6932 32.5541 22.7087 33.7903 19.5967 33.7903C16.4846 33.7903 13.5001 32.5541 11.2996 30.3535C9.09904 28.153 7.86279 25.1684 7.86279 22.0564V19.7097H31.3305Z" fill="white"/>
<path d="M23.6929 13.8432C24.0168 13.8432 24.2796 14.1053 24.2798 14.4291C24.2798 14.7532 24.0169 15.0161 23.6929 15.0161C23.369 15.0159 23.1069 14.7531 23.1069 14.4291C23.1071 14.1054 23.3691 13.8434 23.6929 13.8432Z" fill="white" stroke="white" stroke-width="2.34677"/>
<path d="M15.4795 13.8432C15.8034 13.8432 16.0662 14.1053 16.0664 14.4291C16.0664 14.7532 15.8035 15.0161 15.4795 15.0161C15.1556 15.0159 14.8936 14.7531 14.8936 14.4291C14.8937 14.1054 15.1557 13.8434 15.4795 13.8432Z" fill="white" stroke="white" stroke-width="2.34677"/>
<path d="M19.5967 19.7097V32.6169" stroke="white" stroke-width="2.34677" stroke-linecap="round" stroke-linejoin="round"/>
<path d="M36.6112 19.7097L2.58301 19.7097" stroke="white" stroke-width="2.34677" stroke-linecap="round" stroke-linejoin="round"/>
<path d="M31.3305 22.0564C31.3305 25.1685 30.0943 28.153 27.8938 30.3535C25.6932 32.5541 22.7087 33.7903 19.5967 33.7903C16.4846 33.7903 13.5001 32.5541 11.2996 30.3535C9.09904 28.153 7.86279 25.1685 7.86279 22.0564V17.3629C7.86279 14.2509 9.09904 11.2663 11.2996 9.0658C13.5001 6.86527 16.4846 5.62903 19.5967 5.62903C22.7087 5.62903 25.6932 6.86527 27.8938 9.0658C30.0943 11.2663 31.3305 14.2509 31.3305 17.3629V22.0564Z" stroke="white" stroke-width="2.34677" stroke-linecap="round" stroke-linejoin="round"/>
<path d="M34.8391 28.5101L30.6235 26.0762" stroke="white" stroke-width="2.34677" stroke-linecap="round" stroke-linejoin="round"/>
<path d="M34.8391 10.9093L30.6235 13.3432" stroke="white" stroke-width="2.34677" stroke-linecap="round" stroke-linejoin="round"/>
<path d="M4.35449 10.9093L8.57006 13.3432" stroke="white" stroke-width="2.34677" stroke-linecap="round" stroke-linejoin="round"/>
<path d="M4.35449 28.5101L8.57002 26.0762" stroke="white" stroke-width="2.34677" stroke-linecap="round" stroke-linejoin="round"/>
</svg>
