<svg width="39" height="39" viewBox="0 0 39 39" fill="none" xmlns="http://www.w3.org/2000/svg">
<path opacity="0.2" d="M31.9414 19.6266L27.9246 11.4965H11.4972L7.48026 19.6267C7.38495 19.8196 7.34453 20.035 7.36341 20.2494C7.3823 20.4637 7.45976 20.6688 7.58733 20.8421L19.7109 37.311L31.8343 20.842C31.9619 20.6687 32.0394 20.4637 32.0583 20.2493C32.0772 20.035 32.0367 19.8195 31.9414 19.6266V19.6266ZM19.7109 23.2303C19.1307 23.2303 18.5635 23.0583 18.0811 22.736C17.5987 22.4136 17.2227 21.9555 17.0007 21.4195C16.7787 20.8834 16.7206 20.2936 16.8338 19.7246C16.947 19.1555 17.2263 18.6328 17.6366 18.2226C18.0468 17.8123 18.5695 17.533 19.1386 17.4198C19.7076 17.3066 20.2974 17.3647 20.8335 17.5867C21.3695 17.8087 21.8276 18.1847 22.15 18.6671C22.4723 19.1495 22.6443 19.7167 22.6443 20.2969C22.6443 20.6821 22.5685 21.0636 22.4211 21.4195C22.2736 21.7754 22.0576 22.0988 21.7852 22.3711C21.5128 22.6435 21.1894 22.8596 20.8335 23.007C20.4776 23.1545 20.0961 23.2303 19.7109 23.2303V23.2303Z" fill="#0B63E5"/>
<path d="M19.7105 23.2303L19.7104 37.311" stroke="#0B63E5" stroke-width="2.34677" stroke-linecap="round" stroke-linejoin="round"/>
<path d="M19.7103 23.2303C21.3304 23.2303 22.6438 21.917 22.6438 20.2969C22.6438 18.6768 21.3304 17.3634 19.7103 17.3634C18.0902 17.3634 16.7769 18.6768 16.7769 20.2969C16.7769 21.917 18.0902 23.2303 19.7103 23.2303Z" stroke="#0B63E5" stroke-width="2.34677" stroke-linecap="round" stroke-linejoin="round"/>
<path d="M11.4966 11.4964V5.6295C11.4966 5.3183 11.6202 5.01985 11.8403 4.79979C12.0603 4.57974 12.3588 4.45612 12.67 4.45612H26.7506C27.0618 4.45612 27.3603 4.57974 27.5803 4.79979C27.8004 5.01985 27.924 5.3183 27.924 5.6295V11.4964" stroke="#0B63E5" stroke-width="2.34677" stroke-linecap="round" stroke-linejoin="round"/>
<path d="M11.4972 11.4965L7.48028 19.6267C7.38496 19.8196 7.34453 20.035 7.36341 20.2494C7.38229 20.4637 7.45975 20.6688 7.58732 20.8421L19.7109 37.311L31.8344 20.842C31.962 20.6687 32.0394 20.4637 32.0583 20.2493C32.0772 20.035 32.0367 19.8195 31.9414 19.6266L27.9246 11.4965H11.4972Z" stroke="#0B63E5" stroke-width="2.34677" stroke-linecap="round" stroke-linejoin="round"/>
</svg>
